<mxfile host="Electron" modified="2024-03-28T17:02:38.110Z" agent="Mozilla/5.0 (Windows NT 10.0; Win64; x64) AppleWebKit/537.36 (KHTML, like Gecko) draw.io/21.7.5 Chrome/114.0.5735.289 Electron/25.8.1 Safari/537.36" etag="ptDsemAtP0ZDJ04TzowI" version="21.7.5" type="device">
  <diagram id="nMbIOyWw1tff--0FTw4Q" name="Page-1">
    <mxGraphModel dx="1418" dy="948" grid="1" gridSize="10" guides="1" tooltips="1" connect="1" arrows="1" fold="1" page="1" pageScale="1" pageWidth="816" pageHeight="1056" math="0" shadow="0">
      <root>
        <mxCell id="0" />
        <mxCell id="1" style="locked=1" parent="0" visible="0" />
        <mxCell id="Eej9fTaPfRlqOAoHaqO3pB" value="L0" style="locked=1" parent="0" />
        <mxCell id="VvMwp9qMalIiSO9KRwSK9D" value="Containers" style="locked=1" parent="0" />
        <mxCell id="6noWaNZZjm9BNdp7o4IMYL" value="Compliance" style="fontFamily=Helvetica;fontSize=24;fontColor=#333333;strokeColor=none;fillColor=#D6D6D6;verticalAlign=top;align=left;spacingTop=3;spacingLeft=10;fontStyle=3;whiteSpace=wrap" parent="VvMwp9qMalIiSO9KRwSK9D" vertex="1">
          <mxGeometry width="540" height="400" as="geometry" />
        </mxCell>
        <mxCell id="JW4vbhJcRwVD0BNDdsuLjJ" value="Compliance" style="rounded=0;whiteSpace=wrap;html=1;fillColor=#f5f5f5;fontColor=#333333;strokeColor=none;verticalAlign=top;spacing=5;fontStyle=0;fontSize=18;fontFamily=Helvetica;whiteSpace=wrap;" parent="VvMwp9qMalIiSO9KRwSK9D" vertex="1">
          <mxGeometry x="10" y="50" width="520" height="340" as="geometry" />
        </mxCell>
        <mxCell id="1aRHV7gxxPJU9_COkzfs1R" value="Information Security" style="fontFamily=Helvetica;fontSize=24;fontColor=#333333;strokeColor=none;fillColor=#D6D6D6;verticalAlign=top;align=left;spacingTop=3;spacingLeft=10;fontStyle=3;whiteSpace=wrap" parent="VvMwp9qMalIiSO9KRwSK9D" vertex="1">
          <mxGeometry x="550" width="540" height="460" as="geometry" />
        </mxCell>
        <mxCell id="VD4u8rnein18bUgzc8-7AU" value="Information Security" style="rounded=0;whiteSpace=wrap;html=1;fillColor=#f5f5f5;fontColor=#333333;strokeColor=none;verticalAlign=top;spacing=5;fontStyle=0;fontSize=18;fontFamily=Helvetica;whiteSpace=wrap;" parent="VvMwp9qMalIiSO9KRwSK9D" vertex="1">
          <mxGeometry x="560" y="50" width="520" height="400" as="geometry" />
        </mxCell>
        <mxCell id="89n2SUBuM-QfRI4w4XfeaQ" value="Apps" style="fontFamily=Helvetica;fontSize=24;fontColor=#333333;strokeColor=none;fillColor=#D6D6D6;verticalAlign=top;align=left;spacingTop=3;spacingLeft=10;fontStyle=3;whiteSpace=wrap" parent="VvMwp9qMalIiSO9KRwSK9D" vertex="1">
          <mxGeometry x="1100" width="370" height="340" as="geometry" />
        </mxCell>
        <mxCell id="ztKPHi4Xevdhec_Nensp-k" value="Apps" style="rounded=0;whiteSpace=wrap;html=1;fillColor=#f5f5f5;fontColor=#333333;strokeColor=none;verticalAlign=top;spacing=5;fontStyle=0;fontSize=18;fontFamily=Helvetica;whiteSpace=wrap;" parent="VvMwp9qMalIiSO9KRwSK9D" vertex="1">
          <mxGeometry x="1110" y="50" width="350" height="280" as="geometry" />
        </mxCell>
        <mxCell id="DH5K7y_mczX5rkD7Ny4VyQ" value="Corporate Support Services" style="fontFamily=Helvetica;fontSize=24;fontColor=#333333;strokeColor=none;fillColor=#D6D6D6;verticalAlign=top;align=left;spacingTop=3;spacingLeft=10;fontStyle=3;whiteSpace=wrap" parent="VvMwp9qMalIiSO9KRwSK9D" vertex="1">
          <mxGeometry x="1480" width="370" height="400" as="geometry" />
        </mxCell>
        <mxCell id="EpAJu83bA9VtsmAQCIdb3u" value="Corporate Support Services" style="rounded=0;whiteSpace=wrap;html=1;fillColor=#f5f5f5;fontColor=#333333;strokeColor=none;verticalAlign=top;spacing=5;fontStyle=0;fontSize=18;fontFamily=Helvetica;whiteSpace=wrap;" parent="VvMwp9qMalIiSO9KRwSK9D" vertex="1">
          <mxGeometry x="1490" y="50" width="350" height="340" as="geometry" />
        </mxCell>
        <mxCell id="4fdCfqvwThDwpyp_3YeclI" value="Customer Management" style="fontFamily=Helvetica;fontSize=24;fontColor=#333333;strokeColor=none;fillColor=#D6D6D6;verticalAlign=top;align=left;spacingTop=3;spacingLeft=10;fontStyle=3;whiteSpace=wrap" parent="VvMwp9qMalIiSO9KRwSK9D" vertex="1">
          <mxGeometry y="470" width="370" height="340" as="geometry" />
        </mxCell>
        <mxCell id="ZLOvJy6E3nxY-1xqR7fIPK" value="Customer Management" style="rounded=0;whiteSpace=wrap;html=1;fillColor=#f5f5f5;fontColor=#333333;strokeColor=none;verticalAlign=top;spacing=5;fontStyle=0;fontSize=18;fontFamily=Helvetica;whiteSpace=wrap;" parent="VvMwp9qMalIiSO9KRwSK9D" vertex="1">
          <mxGeometry x="10" y="520" width="350" height="280" as="geometry" />
        </mxCell>
        <mxCell id="HtFVTnphx8z60LXqwhgYij" value="Data and Analytics" style="fontFamily=Helvetica;fontSize=24;fontColor=#333333;strokeColor=none;fillColor=#D6D6D6;verticalAlign=top;align=left;spacingTop=3;spacingLeft=10;fontStyle=3;whiteSpace=wrap" parent="VvMwp9qMalIiSO9KRwSK9D" vertex="1">
          <mxGeometry x="380" y="470" width="370" height="280" as="geometry" />
        </mxCell>
        <mxCell id="ynpouBF5B9jVdnIui2XEQ8" value="Data and Analytics" style="rounded=0;whiteSpace=wrap;html=1;fillColor=#f5f5f5;fontColor=#333333;strokeColor=none;verticalAlign=top;spacing=5;fontStyle=0;fontSize=18;fontFamily=Helvetica;whiteSpace=wrap;" parent="VvMwp9qMalIiSO9KRwSK9D" vertex="1">
          <mxGeometry x="390" y="520" width="350" height="220" as="geometry" />
        </mxCell>
        <mxCell id="YTuv9g3-xyt9-ynD7-rS-L" value="Digital Channels" style="fontFamily=Helvetica;fontSize=24;fontColor=#333333;strokeColor=none;fillColor=#D6D6D6;verticalAlign=top;align=left;spacingTop=3;spacingLeft=10;fontStyle=3;whiteSpace=wrap" parent="VvMwp9qMalIiSO9KRwSK9D" vertex="1">
          <mxGeometry x="760" y="470" width="370" height="220" as="geometry" />
        </mxCell>
        <mxCell id="-tENPcvzPot08HEj15-cN-" value="Digital Channels" style="rounded=0;whiteSpace=wrap;html=1;fillColor=#f5f5f5;fontColor=#333333;strokeColor=none;verticalAlign=top;spacing=5;fontStyle=0;fontSize=18;fontFamily=Helvetica;whiteSpace=wrap;" parent="VvMwp9qMalIiSO9KRwSK9D" vertex="1">
          <mxGeometry x="770" y="520" width="350" height="160" as="geometry" />
        </mxCell>
        <mxCell id="gRJaJ1Gc75C9ia4xlvHJE3" value="Enterprise Architecture" style="fontFamily=Helvetica;fontSize=24;fontColor=#333333;strokeColor=none;fillColor=#D6D6D6;verticalAlign=top;align=left;spacingTop=3;spacingLeft=10;fontStyle=3;whiteSpace=wrap" parent="VvMwp9qMalIiSO9KRwSK9D" vertex="1">
          <mxGeometry x="1140" y="470" width="370" height="280" as="geometry" />
        </mxCell>
        <mxCell id="Kxr6X2xfiHIcLCxcMCODAJ" value="Enterprise Architecture" style="rounded=0;whiteSpace=wrap;html=1;fillColor=#f5f5f5;fontColor=#333333;strokeColor=none;verticalAlign=top;spacing=5;fontStyle=0;fontSize=18;fontFamily=Helvetica;whiteSpace=wrap;" parent="VvMwp9qMalIiSO9KRwSK9D" vertex="1">
          <mxGeometry x="1150" y="520" width="350" height="220" as="geometry" />
        </mxCell>
        <mxCell id="ZadkwUQvRvY2BfXq4xh-Q-" value="Enterprise Support Services" style="fontFamily=Helvetica;fontSize=18;fontColor=#333333;strokeColor=none;fillColor=#D6D6D6;verticalAlign=top;align=left;spacingTop=3;spacingLeft=10;fontStyle=3;whiteSpace=wrap" parent="VvMwp9qMalIiSO9KRwSK9D" vertex="1">
          <mxGeometry x="1520" y="470" width="370" height="280" as="geometry" />
        </mxCell>
        <mxCell id="ktX_qfQ3MK-HPH4fPs1lkZ" value="Enterprise Support Services" style="rounded=0;whiteSpace=wrap;html=1;fillColor=#f5f5f5;fontColor=#333333;strokeColor=none;verticalAlign=top;spacing=5;fontStyle=0;fontSize=18;fontFamily=Helvetica;whiteSpace=wrap;" parent="VvMwp9qMalIiSO9KRwSK9D" vertex="1">
          <mxGeometry x="1530" y="520" width="350" height="220" as="geometry" />
        </mxCell>
        <mxCell id="CG4Em9073oeKK6XaNZkD9S" value="Payments" style="fontFamily=Helvetica;fontSize=24;fontColor=#333333;strokeColor=none;fillColor=#D6D6D6;verticalAlign=top;align=left;spacingTop=3;spacingLeft=10;fontStyle=3;whiteSpace=wrap" parent="VvMwp9qMalIiSO9KRwSK9D" vertex="1">
          <mxGeometry y="820" width="370" height="340" as="geometry" />
        </mxCell>
        <mxCell id="rwpnfyygI0XK5dwsSYviwp" value="Payments" style="rounded=0;whiteSpace=wrap;html=1;fillColor=#f5f5f5;fontColor=#333333;strokeColor=none;verticalAlign=top;spacing=5;fontStyle=0;fontSize=18;fontFamily=Helvetica;whiteSpace=wrap;" parent="VvMwp9qMalIiSO9KRwSK9D" vertex="1">
          <mxGeometry x="10" y="870" width="350" height="280" as="geometry" />
        </mxCell>
        <mxCell id="6t-rQGD4T8HdFh1vg1REKR" value="Product and Pricing" style="fontFamily=Helvetica;fontSize=24;fontColor=#333333;strokeColor=none;fillColor=#D6D6D6;verticalAlign=top;align=left;spacingTop=3;spacingLeft=10;fontStyle=3;whiteSpace=wrap" parent="VvMwp9qMalIiSO9KRwSK9D" vertex="1">
          <mxGeometry x="380" y="820" width="370" height="280" as="geometry" />
        </mxCell>
        <mxCell id="YWhxa-eOkejeX113NuBF_d" value="Product and Pricing" style="rounded=0;whiteSpace=wrap;html=1;fillColor=#f5f5f5;fontColor=#333333;strokeColor=none;verticalAlign=top;spacing=5;fontStyle=0;fontSize=18;fontFamily=Helvetica;whiteSpace=wrap;" parent="VvMwp9qMalIiSO9KRwSK9D" vertex="1">
          <mxGeometry x="390" y="870" width="350" height="220" as="geometry" />
        </mxCell>
        <mxCell id="CkO3jPyCgJIplJA5gDgLaZ" value="Products and Services" style="fontFamily=Helvetica;fontSize=24;fontColor=#333333;strokeColor=none;fillColor=#D6D6D6;verticalAlign=top;align=left;spacingTop=3;spacingLeft=10;fontStyle=3;whiteSpace=wrap" parent="VvMwp9qMalIiSO9KRwSK9D" vertex="1">
          <mxGeometry x="760" y="820" width="370" height="400" as="geometry" />
        </mxCell>
        <mxCell id="rMu33ljO6BIk_-4RoGBRKL" value="Products and Services" style="rounded=0;whiteSpace=wrap;html=1;fillColor=#f5f5f5;fontColor=#333333;strokeColor=none;verticalAlign=top;spacing=5;fontStyle=0;fontSize=18;fontFamily=Helvetica;whiteSpace=wrap;" parent="VvMwp9qMalIiSO9KRwSK9D" vertex="1">
          <mxGeometry x="770" y="870" width="350" height="340" as="geometry" />
        </mxCell>
        <mxCell id="Z3cbC8C_izp9ISHGl-hA3D" value="Risk and Finance" style="fontFamily=Helvetica;fontSize=24;fontColor=#333333;strokeColor=none;fillColor=#D6D6D6;verticalAlign=top;align=left;spacingTop=3;spacingLeft=10;fontStyle=3;whiteSpace=wrap" parent="VvMwp9qMalIiSO9KRwSK9D" vertex="1">
          <mxGeometry x="1140" y="820" width="370" height="400" as="geometry" />
        </mxCell>
        <mxCell id="bccc-eKNXgoDbjI2I0g3pK" value="Risk and Finance" style="rounded=0;whiteSpace=wrap;html=1;fillColor=#f5f5f5;fontColor=#333333;strokeColor=none;verticalAlign=top;spacing=5;fontStyle=0;fontSize=18;fontFamily=Helvetica;whiteSpace=wrap;" parent="VvMwp9qMalIiSO9KRwSK9D" vertex="1">
          <mxGeometry x="1150" y="870" width="350" height="340" as="geometry" />
        </mxCell>
        <mxCell id="Mc9jke7dW8150Jzvst1FOT" value="Sales and Relationship Management" style="fontFamily=Helvetica;fontSize=18;fontColor=#333333;strokeColor=none;fillColor=#D6D6D6;verticalAlign=top;align=left;spacingTop=3;spacingLeft=10;fontStyle=3;whiteSpace=wrap" parent="VvMwp9qMalIiSO9KRwSK9D" vertex="1">
          <mxGeometry x="1520" y="820" width="370" height="280" as="geometry" />
        </mxCell>
        <mxCell id="nNFQYEnwFjoUDbQlsqGcR2" value="Sales and Relationship Management" style="rounded=0;whiteSpace=wrap;html=1;fillColor=#f5f5f5;fontColor=#333333;strokeColor=none;verticalAlign=top;spacing=5;fontStyle=0;fontSize=18;fontFamily=Helvetica;whiteSpace=wrap;" parent="VvMwp9qMalIiSO9KRwSK9D" vertex="1">
          <mxGeometry x="1530" y="870" width="350" height="220" as="geometry" />
        </mxCell>
        <mxCell id="YWwljzzNlbHDJ1Oajkl3LH" value="Transaction Banking" style="fontFamily=Helvetica;fontSize=24;fontColor=#333333;strokeColor=none;fillColor=#D6D6D6;verticalAlign=top;align=left;spacingTop=3;spacingLeft=10;fontStyle=3;whiteSpace=wrap" parent="VvMwp9qMalIiSO9KRwSK9D" vertex="1">
          <mxGeometry y="1230" width="370" height="280" as="geometry" />
        </mxCell>
        <mxCell id="fHp2I3eZ7zQF8zMzHhZLlO" value="Transaction Banking" style="rounded=0;whiteSpace=wrap;html=1;fillColor=#f5f5f5;fontColor=#333333;strokeColor=none;verticalAlign=top;spacing=5;fontStyle=0;fontSize=18;fontFamily=Helvetica;whiteSpace=wrap;" parent="VvMwp9qMalIiSO9KRwSK9D" vertex="1">
          <mxGeometry x="10" y="1280" width="350" height="220" as="geometry" />
        </mxCell>
        <mxCell id="11HovoxGmMjI5leqOHoEOk" value="Treasury Services" style="fontFamily=Helvetica;fontSize=24;fontColor=#333333;strokeColor=none;fillColor=#D6D6D6;verticalAlign=top;align=left;spacingTop=3;spacingLeft=10;fontStyle=3;whiteSpace=wrap" parent="VvMwp9qMalIiSO9KRwSK9D" vertex="1">
          <mxGeometry x="380" y="1230" width="370" height="220" as="geometry" />
        </mxCell>
        <mxCell id="5ULweKNOdepE_6GYHLWDAq" value="Treasury Services" style="rounded=0;whiteSpace=wrap;html=1;fillColor=#f5f5f5;fontColor=#333333;strokeColor=none;verticalAlign=top;spacing=5;fontStyle=0;fontSize=18;fontFamily=Helvetica;whiteSpace=wrap;" parent="VvMwp9qMalIiSO9KRwSK9D" vertex="1">
          <mxGeometry x="390" y="1280" width="350" height="160" as="geometry" />
        </mxCell>
        <mxCell id="PPTagXg3BHBtgQ2I_agOuY" value="Wealth and Asset Management" style="fontFamily=Helvetica;fontSize=18;fontColor=#333333;strokeColor=none;fillColor=#D6D6D6;verticalAlign=top;align=left;spacingTop=3;spacingLeft=10;fontStyle=3;whiteSpace=wrap" parent="VvMwp9qMalIiSO9KRwSK9D" vertex="1">
          <mxGeometry x="760" y="1230" width="370" height="280" as="geometry" />
        </mxCell>
        <mxCell id="xOEag3gXCV6IzuKzBEQ1GJ" value="Wealth and Asset Management" style="rounded=0;whiteSpace=wrap;html=1;fillColor=#f5f5f5;fontColor=#333333;strokeColor=none;verticalAlign=top;spacing=5;fontStyle=0;fontSize=18;fontFamily=Helvetica;whiteSpace=wrap;" parent="VvMwp9qMalIiSO9KRwSK9D" vertex="1">
          <mxGeometry x="770" y="1280" width="350" height="220" as="geometry" />
        </mxCell>
        <mxCell id="QF8QLv7K4gAI_clIOqp2h3" value="Wholesale Banking" style="fontFamily=Helvetica;fontSize=24;fontColor=#333333;strokeColor=none;fillColor=#D6D6D6;verticalAlign=top;align=left;spacingTop=3;spacingLeft=10;fontStyle=3;whiteSpace=wrap" parent="VvMwp9qMalIiSO9KRwSK9D" vertex="1">
          <mxGeometry x="1140" y="1230" width="370" height="280" as="geometry" />
        </mxCell>
        <mxCell id="mpvNT7NGLnyVcztR7gsKmZ" value="Wholesale Banking" style="rounded=0;whiteSpace=wrap;html=1;fillColor=#f5f5f5;fontColor=#333333;strokeColor=none;verticalAlign=top;spacing=5;fontStyle=0;fontSize=18;fontFamily=Helvetica;whiteSpace=wrap;" parent="VvMwp9qMalIiSO9KRwSK9D" vertex="1">
          <mxGeometry x="1150" y="1280" width="350" height="220" as="geometry" />
        </mxCell>
        <mxCell id="ct6TPsn22iouOeqSlKkqnE" value="Applications" style="locked=1" parent="0" />
        <UserObject link="http://www.example.com" label="Anti-Money Laundering" id="KSGv6Fr8nLpBvdxTdwvsfT">
          <mxCell style="style=rounded=1;whiteSpace=wrap;html=1;fontFamily=Helvetica;fontStyle=0;verticalAlign=middle;spacing=0;arcSize=4;spacingLeft=2;spacingRight=2;fontSize=12" parent="ct6TPsn22iouOeqSlKkqnE" vertex="1">
            <mxGeometry x="20" y="90" width="160" height="50" as="geometry" />
          </mxCell>
        </UserObject>
        <UserObject link="http://www.example.com" label="Compliance Monitoring" id="HwJXPU5CFw0CbCNoyG2gsT">
          <mxCell style="style=rounded=1;whiteSpace=wrap;html=1;fontFamily=Helvetica;fontStyle=0;verticalAlign=middle;spacing=0;arcSize=4;spacingLeft=2;spacingRight=2;fontSize=12" parent="ct6TPsn22iouOeqSlKkqnE" vertex="1">
            <mxGeometry x="20" y="150" width="160" height="50" as="geometry" />
          </mxCell>
        </UserObject>
        <UserObject link="http://www.example.com" label="Compliance Training" id="We3EW7-hRzypGR58YPbzg0">
          <mxCell style="style=rounded=1;whiteSpace=wrap;html=1;fontFamily=Helvetica;fontStyle=0;verticalAlign=middle;spacing=0;arcSize=4;spacingLeft=2;spacingRight=2;fontSize=12" parent="ct6TPsn22iouOeqSlKkqnE" vertex="1">
            <mxGeometry x="20" y="210" width="160" height="50" as="geometry" />
          </mxCell>
        </UserObject>
        <UserObject link="http://www.example.com" label="Conduct Risk Management" id="HkVo13shWChj-L2VlbJJm2">
          <mxCell style="style=rounded=1;whiteSpace=wrap;html=1;fontFamily=Helvetica;fontStyle=0;verticalAlign=middle;spacing=0;arcSize=4;spacingLeft=2;spacingRight=2;fontSize=12" parent="ct6TPsn22iouOeqSlKkqnE" vertex="1">
            <mxGeometry x="20" y="270" width="160" height="50" as="geometry" />
          </mxCell>
        </UserObject>
        <UserObject link="http://www.example.com" label="Customer Sanctions" id="AmFsrSMgaVFRc6YvXfsNq5">
          <mxCell style="style=rounded=1;whiteSpace=wrap;html=1;fontFamily=Helvetica;fontStyle=0;verticalAlign=middle;spacing=0;arcSize=4;spacingLeft=2;spacingRight=2;fontSize=12" parent="ct6TPsn22iouOeqSlKkqnE" vertex="1">
            <mxGeometry x="20" y="330" width="160" height="50" as="geometry" />
          </mxCell>
        </UserObject>
        <UserObject link="http://www.example.com" label="Data Privacy" id="Bfm4jxUEJ1zKcp9ZHpBJzf">
          <mxCell style="style=rounded=1;whiteSpace=wrap;html=1;fontFamily=Helvetica;fontStyle=0;verticalAlign=middle;spacing=0;arcSize=4;spacingLeft=2;spacingRight=2;fontSize=12" parent="ct6TPsn22iouOeqSlKkqnE" vertex="1">
            <mxGeometry x="190" y="90" width="160" height="50" as="geometry" />
          </mxCell>
        </UserObject>
        <UserObject link="http://www.example.com" label="Financial Crime Prevention" id="Ydb-KNEFg_-6WgBcTDENoA">
          <mxCell style="style=rounded=1;whiteSpace=wrap;html=1;fontFamily=Helvetica;fontStyle=0;verticalAlign=middle;spacing=0;arcSize=4;spacingLeft=2;spacingRight=2;fontSize=12" parent="ct6TPsn22iouOeqSlKkqnE" vertex="1">
            <mxGeometry x="190" y="150" width="160" height="50" as="geometry" />
          </mxCell>
        </UserObject>
        <UserObject link="http://www.example.com" label="Know Your Customer" id="F79vWv9xdtwRPxWZW-OIMv">
          <mxCell style="style=rounded=1;whiteSpace=wrap;html=1;fontFamily=Helvetica;fontStyle=0;verticalAlign=middle;spacing=0;arcSize=4;spacingLeft=2;spacingRight=2;fontSize=12" parent="ct6TPsn22iouOeqSlKkqnE" vertex="1">
            <mxGeometry x="190" y="210" width="160" height="50" as="geometry" />
          </mxCell>
        </UserObject>
        <UserObject link="http://www.example.com" label="&lt;br&gt;Regulatory Change Management" id="CcJpVMn3RKDym0d62-LJnw">
          <mxCell style="style=rounded=1;whiteSpace=wrap;html=1;fontFamily=Helvetica;fontStyle=0;verticalAlign=middle;spacing=0;arcSize=4;spacingLeft=2;spacingRight=2;fontSize=12" parent="ct6TPsn22iouOeqSlKkqnE" vertex="1">
            <mxGeometry x="190" y="270" width="160" height="50" as="geometry" />
          </mxCell>
        </UserObject>
        <UserObject link="http://www.example.com" label="Regulatory Engagement" id="KuTfQ1qKdfWEhKSdRBcPLy">
          <mxCell style="style=rounded=1;whiteSpace=wrap;html=1;fontFamily=Helvetica;fontStyle=0;verticalAlign=middle;spacing=0;arcSize=4;spacingLeft=2;spacingRight=2;fontSize=12" parent="ct6TPsn22iouOeqSlKkqnE" vertex="1">
            <mxGeometry x="190" y="330" width="160" height="50" as="geometry" />
          </mxCell>
        </UserObject>
        <UserObject link="http://www.example.com" label="Regulatory Reporting" id="VOzlKftT2XPO34-F432eBc">
          <mxCell style="style=rounded=1;whiteSpace=wrap;html=1;fontFamily=Helvetica;fontStyle=0;verticalAlign=middle;spacing=0;arcSize=4;spacingLeft=2;spacingRight=2;fontSize=12" parent="ct6TPsn22iouOeqSlKkqnE" vertex="1">
            <mxGeometry x="360" y="90" width="160" height="50" as="geometry" />
          </mxCell>
        </UserObject>
        <UserObject link="http://www.example.com" label="Risk and Control" id="xqmVrAjEt-Lg4i2GAebCIW">
          <mxCell style="style=rounded=1;whiteSpace=wrap;html=1;fontFamily=Helvetica;fontStyle=0;verticalAlign=middle;spacing=0;arcSize=4;spacingLeft=2;spacingRight=2;fontSize=12" parent="ct6TPsn22iouOeqSlKkqnE" vertex="1">
            <mxGeometry x="360" y="150" width="160" height="50" as="geometry" />
          </mxCell>
        </UserObject>
        <UserObject link="http://www.example.com" label="Trade/Price Reporting" id="7a1muiHxAtiO2IPvSsWdAr">
          <mxCell style="style=rounded=1;whiteSpace=wrap;html=1;fontFamily=Helvetica;fontStyle=0;verticalAlign=middle;spacing=0;arcSize=4;spacingLeft=2;spacingRight=2;fontSize=12" parent="ct6TPsn22iouOeqSlKkqnE" vertex="1">
            <mxGeometry x="360" y="210" width="160" height="50" as="geometry" />
          </mxCell>
        </UserObject>
        <UserObject link="http://www.example.com" label="Cyber Defense" id="Ht1-1UGQYuKKuOz2TXQI1e">
          <mxCell style="style=rounded=1;whiteSpace=wrap;html=1;fontFamily=Helvetica;fontStyle=0;verticalAlign=middle;spacing=0;arcSize=4;spacingLeft=2;spacingRight=2;fontSize=12" parent="ct6TPsn22iouOeqSlKkqnE" vertex="1">
            <mxGeometry x="570" y="90" width="160" height="50" as="geometry" />
          </mxCell>
        </UserObject>
        <UserObject link="http://www.example.com" label="Data Loss Prevention (DLP)" id="am_sZ2umvputPgn91vz2gq">
          <mxCell style="style=rounded=1;whiteSpace=wrap;html=1;fontFamily=Helvetica;fontStyle=0;verticalAlign=middle;spacing=0;arcSize=4;spacingLeft=2;spacingRight=2;fontSize=12" parent="ct6TPsn22iouOeqSlKkqnE" vertex="1">
            <mxGeometry x="570" y="150" width="160" height="50" as="geometry" />
          </mxCell>
        </UserObject>
        <UserObject link="http://www.example.com" label="&lt;br&gt;Extended Detection and Response (XDR)" id="SWn64eID0jj-DLFyqqt-Bh">
          <mxCell style="style=rounded=1;whiteSpace=wrap;html=1;fontFamily=Helvetica;fontStyle=0;verticalAlign=middle;spacing=0;arcSize=4;spacingLeft=2;spacingRight=2;fontSize=12" parent="ct6TPsn22iouOeqSlKkqnE" vertex="1">
            <mxGeometry x="570" y="210" width="160" height="50" as="geometry" />
          </mxCell>
        </UserObject>
        <UserObject link="http://www.example.com" label="&lt;br&gt;Identity and Access Management (IAM)" id="YbfdviAyXLgxiM8IWChufK">
          <mxCell style="style=rounded=1;whiteSpace=wrap;html=1;fontFamily=Helvetica;fontStyle=0;verticalAlign=middle;spacing=0;arcSize=4;spacingLeft=2;spacingRight=2;fontSize=12" parent="ct6TPsn22iouOeqSlKkqnE" vertex="1">
            <mxGeometry x="570" y="270" width="160" height="50" as="geometry" />
          </mxCell>
        </UserObject>
        <UserObject link="http://www.example.com" label="&lt;br&gt;Incident Response and Case Management" id="n4jjK2BZSxUb951__Gncwo">
          <mxCell style="style=rounded=1;whiteSpace=wrap;html=1;fontFamily=Helvetica;fontStyle=0;verticalAlign=middle;spacing=0;arcSize=4;spacingLeft=2;spacingRight=2;fontSize=12" parent="ct6TPsn22iouOeqSlKkqnE" vertex="1">
            <mxGeometry x="570" y="330" width="160" height="50" as="geometry" />
          </mxCell>
        </UserObject>
        <UserObject link="http://www.example.com" label="Security Analytics" id="arNcAXs62Bm1jDTJ3G9kMK">
          <mxCell style="style=rounded=1;whiteSpace=wrap;html=1;fontFamily=Helvetica;fontStyle=0;verticalAlign=middle;spacing=0;arcSize=4;spacingLeft=2;spacingRight=2;fontSize=12" parent="ct6TPsn22iouOeqSlKkqnE" vertex="1">
            <mxGeometry x="570" y="390" width="160" height="50" as="geometry" />
          </mxCell>
        </UserObject>
        <UserObject link="http://www.example.com" label="&lt;br&gt;Security Awareness and Training" id="bQCLnbI8VkPntiO56TjG4S">
          <mxCell style="style=rounded=1;whiteSpace=wrap;html=1;fontFamily=Helvetica;fontStyle=0;verticalAlign=middle;spacing=0;arcSize=4;spacingLeft=2;spacingRight=2;fontSize=12" parent="ct6TPsn22iouOeqSlKkqnE" vertex="1">
            <mxGeometry x="740" y="90" width="160" height="50" as="geometry" />
          </mxCell>
        </UserObject>
        <UserObject link="http://www.example.com" label="Security Logging" id="nnRm3OXlnyAxNZG1Hlg1Ad">
          <mxCell style="style=rounded=1;whiteSpace=wrap;html=1;fontFamily=Helvetica;fontStyle=0;verticalAlign=middle;spacing=0;arcSize=4;spacingLeft=2;spacingRight=2;fontSize=12" parent="ct6TPsn22iouOeqSlKkqnE" vertex="1">
            <mxGeometry x="740" y="150" width="160" height="50" as="geometry" />
          </mxCell>
        </UserObject>
        <UserObject link="http://www.example.com" label="Security Monitoring" id="3JfNDMDWP-5b-kKjTBrZrV">
          <mxCell style="style=rounded=1;whiteSpace=wrap;html=1;fontFamily=Helvetica;fontStyle=0;verticalAlign=middle;spacing=0;arcSize=4;spacingLeft=2;spacingRight=2;fontSize=12" parent="ct6TPsn22iouOeqSlKkqnE" vertex="1">
            <mxGeometry x="740" y="210" width="160" height="50" as="geometry" />
          </mxCell>
        </UserObject>
        <UserObject link="http://www.example.com" label="&lt;br&gt;Security Orchestration, Automation and Response (SOAR)" id="Fk26QiZ4feEOEubL1uZWrt">
          <mxCell style="style=rounded=1;whiteSpace=wrap;html=1;fontFamily=Helvetica;fontStyle=0;verticalAlign=middle;spacing=0;arcSize=4;spacingLeft=2;spacingRight=2;fontSize=12" parent="ct6TPsn22iouOeqSlKkqnE" vertex="1">
            <mxGeometry x="740" y="270" width="160" height="50" as="geometry" />
          </mxCell>
        </UserObject>
        <UserObject link="http://www.example.com" label="Shadow IT Monitoring" id="7LNFtgdhNOM__70xmtt-TS">
          <mxCell style="style=rounded=1;whiteSpace=wrap;html=1;fontFamily=Helvetica;fontStyle=0;verticalAlign=middle;spacing=0;arcSize=4;spacingLeft=2;spacingRight=2;fontSize=12" parent="ct6TPsn22iouOeqSlKkqnE" vertex="1">
            <mxGeometry x="740" y="330" width="160" height="50" as="geometry" />
          </mxCell>
        </UserObject>
        <UserObject link="http://www.example.com" label="&lt;br&gt;Third Party Risk Management" id="D9_ANt5g90yslBCOApyfbN">
          <mxCell style="style=rounded=1;whiteSpace=wrap;html=1;fontFamily=Helvetica;fontStyle=0;verticalAlign=middle;spacing=0;arcSize=4;spacingLeft=2;spacingRight=2;fontSize=12" parent="ct6TPsn22iouOeqSlKkqnE" vertex="1">
            <mxGeometry x="740" y="390" width="160" height="50" as="geometry" />
          </mxCell>
        </UserObject>
        <UserObject link="http://www.example.com" label="Threat Hunting" id="H8_Exp4rXBL-xKuG6jrq2D">
          <mxCell style="style=rounded=1;whiteSpace=wrap;html=1;fontFamily=Helvetica;fontStyle=0;verticalAlign=middle;spacing=0;arcSize=4;spacingLeft=2;spacingRight=2;fontSize=12" parent="ct6TPsn22iouOeqSlKkqnE" vertex="1">
            <mxGeometry x="910" y="90" width="160" height="50" as="geometry" />
          </mxCell>
        </UserObject>
        <UserObject link="http://www.example.com" label="Threat Intelligence" id="Pz8_3itL0fOKGrCYWBzWok">
          <mxCell style="style=rounded=1;whiteSpace=wrap;html=1;fontFamily=Helvetica;fontStyle=0;verticalAlign=middle;spacing=0;arcSize=4;spacingLeft=2;spacingRight=2;fontSize=12" parent="ct6TPsn22iouOeqSlKkqnE" vertex="1">
            <mxGeometry x="910" y="150" width="160" height="50" as="geometry" />
          </mxCell>
        </UserObject>
        <UserObject link="http://www.example.com" label="Vulnerability Management" id="M-O_Gpjgtvot9gb-BKR48Z">
          <mxCell style="style=rounded=1;whiteSpace=wrap;html=1;fontFamily=Helvetica;fontStyle=0;verticalAlign=middle;spacing=0;arcSize=4;spacingLeft=2;spacingRight=2;fontSize=12" parent="ct6TPsn22iouOeqSlKkqnE" vertex="1">
            <mxGeometry x="910" y="210" width="160" height="50" as="geometry" />
          </mxCell>
        </UserObject>
        <UserObject link="http://www.example.com" label="eCrime" id="9t1CEYdb-h0q08aQDs7e5U">
          <mxCell style="style=rounded=1;whiteSpace=wrap;html=1;fontFamily=Helvetica;fontStyle=0;verticalAlign=middle;spacing=0;arcSize=4;spacingLeft=2;spacingRight=2;fontSize=12" parent="ct6TPsn22iouOeqSlKkqnE" vertex="1">
            <mxGeometry x="910" y="270" width="160" height="50" as="geometry" />
          </mxCell>
        </UserObject>
        <UserObject link="http://www.example.com" label="Chatbot Apps" id="ojrasl2_7DMVW8JHCSxrCS">
          <mxCell style="style=rounded=1;whiteSpace=wrap;html=1;fontFamily=Helvetica;fontStyle=0;verticalAlign=middle;spacing=0;arcSize=4;spacingLeft=2;spacingRight=2;fontSize=12" parent="ct6TPsn22iouOeqSlKkqnE" vertex="1">
            <mxGeometry x="1120" y="90" width="160" height="50" as="geometry" />
          </mxCell>
        </UserObject>
        <UserObject link="http://www.example.com" label="Internal Apps" id="DaJxtUpYBtcxzfcxLWKa7l">
          <mxCell style="style=rounded=1;whiteSpace=wrap;html=1;fontFamily=Helvetica;fontStyle=0;verticalAlign=middle;spacing=0;arcSize=4;spacingLeft=2;spacingRight=2;fontSize=12" parent="ct6TPsn22iouOeqSlKkqnE" vertex="1">
            <mxGeometry x="1120" y="150" width="160" height="50" as="geometry" />
          </mxCell>
        </UserObject>
        <UserObject link="http://www.example.com" label="Mobile Apps" id="TjoH1qPSWI959u3aaXEMKb">
          <mxCell style="style=rounded=1;whiteSpace=wrap;html=1;fontFamily=Helvetica;fontStyle=0;verticalAlign=middle;spacing=0;arcSize=4;spacingLeft=2;spacingRight=2;fontSize=12" parent="ct6TPsn22iouOeqSlKkqnE" vertex="1">
            <mxGeometry x="1120" y="210" width="160" height="50" as="geometry" />
          </mxCell>
        </UserObject>
        <UserObject link="http://www.example.com" label="Online Apps" id="hEqCmSxbP13k12YJK-cxXh">
          <mxCell style="style=rounded=1;whiteSpace=wrap;html=1;fontFamily=Helvetica;fontStyle=0;verticalAlign=middle;spacing=0;arcSize=4;spacingLeft=2;spacingRight=2;fontSize=12" parent="ct6TPsn22iouOeqSlKkqnE" vertex="1">
            <mxGeometry x="1120" y="270" width="160" height="50" as="geometry" />
          </mxCell>
        </UserObject>
        <UserObject link="http://www.example.com" label="Partner Apps" id="nMIEL8UWevtSLojL0Dyc_9">
          <mxCell style="style=rounded=1;whiteSpace=wrap;html=1;fontFamily=Helvetica;fontStyle=0;verticalAlign=middle;spacing=0;arcSize=4;spacingLeft=2;spacingRight=2;fontSize=12" parent="ct6TPsn22iouOeqSlKkqnE" vertex="1">
            <mxGeometry x="1290" y="90" width="160" height="50" as="geometry" />
          </mxCell>
        </UserObject>
        <UserObject link="http://www.example.com" label="Public Apps" id="_JBrSzd0owEmd8k1gRNQ6e">
          <mxCell style="style=rounded=1;whiteSpace=wrap;html=1;fontFamily=Helvetica;fontStyle=0;verticalAlign=middle;spacing=0;arcSize=4;spacingLeft=2;spacingRight=2;fontSize=12" parent="ct6TPsn22iouOeqSlKkqnE" vertex="1">
            <mxGeometry x="1290" y="150" width="160" height="50" as="geometry" />
          </mxCell>
        </UserObject>
        <UserObject link="http://www.example.com" label="Social Media Apps" id="ApB5czqQeeTqF-WwBxNkOW">
          <mxCell style="style=rounded=1;whiteSpace=wrap;html=1;fontFamily=Helvetica;fontStyle=0;verticalAlign=middle;spacing=0;arcSize=4;spacingLeft=2;spacingRight=2;fontSize=12" parent="ct6TPsn22iouOeqSlKkqnE" vertex="1">
            <mxGeometry x="1290" y="210" width="160" height="50" as="geometry" />
          </mxCell>
        </UserObject>
        <UserObject link="http://www.example.com" label="Voice Assistant Apps" id="UIe7tlYrwEjrBkKK3ZssG2">
          <mxCell style="style=rounded=1;whiteSpace=wrap;html=1;fontFamily=Helvetica;fontStyle=0;verticalAlign=middle;spacing=0;arcSize=4;spacingLeft=2;spacingRight=2;fontSize=12" parent="ct6TPsn22iouOeqSlKkqnE" vertex="1">
            <mxGeometry x="1290" y="270" width="160" height="50" as="geometry" />
          </mxCell>
        </UserObject>
        <UserObject link="http://www.example.com" label="Corporate Communications" id="rJ5l_97G9ncUT3epKsjSii">
          <mxCell style="style=rounded=1;whiteSpace=wrap;html=1;fontFamily=Helvetica;fontStyle=0;verticalAlign=middle;spacing=0;arcSize=4;spacingLeft=2;spacingRight=2;fontSize=12" parent="ct6TPsn22iouOeqSlKkqnE" vertex="1">
            <mxGeometry x="1500" y="90" width="160" height="50" as="geometry" />
          </mxCell>
        </UserObject>
        <UserObject link="http://www.example.com" label="Executive Office" id="noKN5p6YMpa2Q73f8ltr49">
          <mxCell style="style=rounded=1;whiteSpace=wrap;html=1;fontFamily=Helvetica;fontStyle=0;verticalAlign=middle;spacing=0;arcSize=4;spacingLeft=2;spacingRight=2;fontSize=12" parent="ct6TPsn22iouOeqSlKkqnE" vertex="1">
            <mxGeometry x="1500" y="150" width="160" height="50" as="geometry" />
          </mxCell>
        </UserObject>
        <UserObject link="http://www.example.com" label="Facilities Management" id="mIx2dvqiA5m8nT61jyjDxz">
          <mxCell style="style=rounded=1;whiteSpace=wrap;html=1;fontFamily=Helvetica;fontStyle=0;verticalAlign=middle;spacing=0;arcSize=4;spacingLeft=2;spacingRight=2;fontSize=12" parent="ct6TPsn22iouOeqSlKkqnE" vertex="1">
            <mxGeometry x="1500" y="210" width="160" height="50" as="geometry" />
          </mxCell>
        </UserObject>
        <UserObject link="http://www.example.com" label="Finance" id="8G6zFCVhd6i6341t-urZKt">
          <mxCell style="style=rounded=1;whiteSpace=wrap;html=1;fontFamily=Helvetica;fontStyle=0;verticalAlign=middle;spacing=0;arcSize=4;spacingLeft=2;spacingRight=2;fontSize=12" parent="ct6TPsn22iouOeqSlKkqnE" vertex="1">
            <mxGeometry x="1500" y="270" width="160" height="50" as="geometry" />
          </mxCell>
        </UserObject>
        <UserObject link="http://www.example.com" label="Human Resources" id="yFSmFhvcuud6bO-UeY65tV">
          <mxCell style="style=rounded=1;whiteSpace=wrap;html=1;fontFamily=Helvetica;fontStyle=0;verticalAlign=middle;spacing=0;arcSize=4;spacingLeft=2;spacingRight=2;fontSize=12" parent="ct6TPsn22iouOeqSlKkqnE" vertex="1">
            <mxGeometry x="1500" y="330" width="160" height="50" as="geometry" />
          </mxCell>
        </UserObject>
        <UserObject link="http://www.example.com" label="Internal Audit" id="IAWYaeIQk2JQTg7ivHi6bw">
          <mxCell style="style=rounded=1;whiteSpace=wrap;html=1;fontFamily=Helvetica;fontStyle=0;verticalAlign=middle;spacing=0;arcSize=4;spacingLeft=2;spacingRight=2;fontSize=12" parent="ct6TPsn22iouOeqSlKkqnE" vertex="1">
            <mxGeometry x="1670" y="90" width="160" height="50" as="geometry" />
          </mxCell>
        </UserObject>
        <UserObject link="http://www.example.com" label="Legal" id="_Tf-yLeHDPyMn2Dg07VaIr">
          <mxCell style="style=rounded=1;whiteSpace=wrap;html=1;fontFamily=Helvetica;fontStyle=0;verticalAlign=middle;spacing=0;arcSize=4;spacingLeft=2;spacingRight=2;fontSize=12" parent="ct6TPsn22iouOeqSlKkqnE" vertex="1">
            <mxGeometry x="1670" y="150" width="160" height="50" as="geometry" />
          </mxCell>
        </UserObject>
        <UserObject link="http://www.example.com" label="Procurement" id="v-2eLC33wdN2Yl0j1w_tLJ">
          <mxCell style="style=rounded=1;whiteSpace=wrap;html=1;fontFamily=Helvetica;fontStyle=0;verticalAlign=middle;spacing=0;arcSize=4;spacingLeft=2;spacingRight=2;fontSize=12" parent="ct6TPsn22iouOeqSlKkqnE" vertex="1">
            <mxGeometry x="1670" y="210" width="160" height="50" as="geometry" />
          </mxCell>
        </UserObject>
        <UserObject link="http://www.example.com" label="Strategy and Planning" id="2bgwFHvpgFZuAD5AGideF9">
          <mxCell style="style=rounded=1;whiteSpace=wrap;html=1;fontFamily=Helvetica;fontStyle=0;verticalAlign=middle;spacing=0;arcSize=4;spacingLeft=2;spacingRight=2;fontSize=12" parent="ct6TPsn22iouOeqSlKkqnE" vertex="1">
            <mxGeometry x="1670" y="270" width="160" height="50" as="geometry" />
          </mxCell>
        </UserObject>
        <UserObject link="http://www.example.com" label="Travel and Expenses" id="px2d8s474rbptNNBTk48ns">
          <mxCell style="style=rounded=1;whiteSpace=wrap;html=1;fontFamily=Helvetica;fontStyle=0;verticalAlign=middle;spacing=0;arcSize=4;spacingLeft=2;spacingRight=2;fontSize=12" parent="ct6TPsn22iouOeqSlKkqnE" vertex="1">
            <mxGeometry x="1670" y="330" width="160" height="50" as="geometry" />
          </mxCell>
        </UserObject>
        <UserObject link="http://www.example.com" label="Complaints Handling" id="49uTYPLR1t-yJRXskZ0cqA">
          <mxCell style="style=rounded=1;whiteSpace=wrap;html=1;fontFamily=Helvetica;fontStyle=0;verticalAlign=middle;spacing=0;arcSize=4;spacingLeft=2;spacingRight=2;fontSize=12" parent="ct6TPsn22iouOeqSlKkqnE" vertex="1">
            <mxGeometry x="20" y="560" width="160" height="50" as="geometry" />
          </mxCell>
        </UserObject>
        <UserObject link="http://www.example.com" label="&lt;br&gt;Contact Party Administration" id="XQxmmxcrw0ilQ4GSMECnyf">
          <mxCell style="style=rounded=1;whiteSpace=wrap;html=1;fontFamily=Helvetica;fontStyle=0;verticalAlign=middle;spacing=0;arcSize=4;spacingLeft=2;spacingRight=2;fontSize=12" parent="ct6TPsn22iouOeqSlKkqnE" vertex="1">
            <mxGeometry x="20" y="620" width="160" height="50" as="geometry" />
          </mxCell>
        </UserObject>
        <UserObject link="http://www.example.com" label="Customer Acces Entitlement" id="MJTTAmHWGka6luBCMoWMaL">
          <mxCell style="style=rounded=1;whiteSpace=wrap;html=1;fontFamily=Helvetica;fontStyle=0;verticalAlign=middle;spacing=0;arcSize=4;spacingLeft=2;spacingRight=2;fontSize=12" parent="ct6TPsn22iouOeqSlKkqnE" vertex="1">
            <mxGeometry x="20" y="680" width="160" height="50" as="geometry" />
          </mxCell>
        </UserObject>
        <UserObject link="http://www.example.com" label="Customer On-boarding" id="rtn2e82FQZDMSu5EElFF4y">
          <mxCell style="style=rounded=1;whiteSpace=wrap;html=1;fontFamily=Helvetica;fontStyle=0;verticalAlign=middle;spacing=0;arcSize=4;spacingLeft=2;spacingRight=2;fontSize=12" parent="ct6TPsn22iouOeqSlKkqnE" vertex="1">
            <mxGeometry x="20" y="740" width="160" height="50" as="geometry" />
          </mxCell>
        </UserObject>
        <UserObject link="http://www.example.com" label="Customer Service" id="X71QgFE80U-rlj5n6bAaen">
          <mxCell style="style=rounded=1;whiteSpace=wrap;html=1;fontFamily=Helvetica;fontStyle=0;verticalAlign=middle;spacing=0;arcSize=4;spacingLeft=2;spacingRight=2;fontSize=12" parent="ct6TPsn22iouOeqSlKkqnE" vertex="1">
            <mxGeometry x="190" y="560" width="160" height="50" as="geometry" />
          </mxCell>
        </UserObject>
        <UserObject link="http://www.example.com" label="Dispute Resolution" id="2sPvx1LRUX2F3MFmeAjeQX">
          <mxCell style="style=rounded=1;whiteSpace=wrap;html=1;fontFamily=Helvetica;fontStyle=0;verticalAlign=middle;spacing=0;arcSize=4;spacingLeft=2;spacingRight=2;fontSize=12" parent="ct6TPsn22iouOeqSlKkqnE" vertex="1">
            <mxGeometry x="190" y="620" width="160" height="50" as="geometry" />
          </mxCell>
        </UserObject>
        <UserObject link="http://www.example.com" label="&lt;br&gt;Relationship and Contact Management" id="et3fArzOs0uze_j062tqEz">
          <mxCell style="style=rounded=1;whiteSpace=wrap;html=1;fontFamily=Helvetica;fontStyle=0;verticalAlign=middle;spacing=0;arcSize=4;spacingLeft=2;spacingRight=2;fontSize=12" parent="ct6TPsn22iouOeqSlKkqnE" vertex="1">
            <mxGeometry x="190" y="680" width="160" height="50" as="geometry" />
          </mxCell>
        </UserObject>
        <UserObject link="http://www.example.com" label="Single Customer View" id="YaYqpbDmxcrJ2PrRCLKzNd">
          <mxCell style="style=rounded=1;whiteSpace=wrap;html=1;fontFamily=Helvetica;fontStyle=0;verticalAlign=middle;spacing=0;arcSize=4;spacingLeft=2;spacingRight=2;fontSize=12" parent="ct6TPsn22iouOeqSlKkqnE" vertex="1">
            <mxGeometry x="190" y="740" width="160" height="50" as="geometry" />
          </mxCell>
        </UserObject>
        <UserObject link="http://www.example.com" label="Advanced Analytics" id="95C25_nZZGmhrbMAm5F98L">
          <mxCell style="style=rounded=1;whiteSpace=wrap;html=1;fontFamily=Helvetica;fontStyle=0;verticalAlign=middle;spacing=0;arcSize=4;spacingLeft=2;spacingRight=2;fontSize=12" parent="ct6TPsn22iouOeqSlKkqnE" vertex="1">
            <mxGeometry x="400" y="560" width="160" height="50" as="geometry" />
          </mxCell>
        </UserObject>
        <UserObject link="http://www.example.com" label="Artificial Intelligence" id="fB6cN4UA2Ut1jvCo3gu8qy">
          <mxCell style="style=rounded=1;whiteSpace=wrap;html=1;fontFamily=Helvetica;fontStyle=0;verticalAlign=middle;spacing=0;arcSize=4;spacingLeft=2;spacingRight=2;fontSize=12" parent="ct6TPsn22iouOeqSlKkqnE" vertex="1">
            <mxGeometry x="400" y="620" width="160" height="50" as="geometry" />
          </mxCell>
        </UserObject>
        <UserObject link="http://www.example.com" label="Business Intelligence" id="24dw8-B9w2J0gOTnOtnk8S">
          <mxCell style="style=rounded=1;whiteSpace=wrap;html=1;fontFamily=Helvetica;fontStyle=0;verticalAlign=middle;spacing=0;arcSize=4;spacingLeft=2;spacingRight=2;fontSize=12" parent="ct6TPsn22iouOeqSlKkqnE" vertex="1">
            <mxGeometry x="400" y="680" width="160" height="50" as="geometry" />
          </mxCell>
        </UserObject>
        <UserObject link="http://www.example.com" label="Data Management" id="Uylave9OcmgNp51vk7qCXp">
          <mxCell style="style=rounded=1;whiteSpace=wrap;html=1;fontFamily=Helvetica;fontStyle=0;verticalAlign=middle;spacing=0;arcSize=4;spacingLeft=2;spacingRight=2;fontSize=12" parent="ct6TPsn22iouOeqSlKkqnE" vertex="1">
            <mxGeometry x="570" y="560" width="160" height="50" as="geometry" />
          </mxCell>
        </UserObject>
        <UserObject link="http://www.example.com" label="Data Warehousing" id="ZsXGubZStFru9XqKJ6iU8m">
          <mxCell style="style=rounded=1;whiteSpace=wrap;html=1;fontFamily=Helvetica;fontStyle=0;verticalAlign=middle;spacing=0;arcSize=4;spacingLeft=2;spacingRight=2;fontSize=12" parent="ct6TPsn22iouOeqSlKkqnE" vertex="1">
            <mxGeometry x="570" y="620" width="160" height="50" as="geometry" />
          </mxCell>
        </UserObject>
        <UserObject link="http://www.example.com" label="Mobile" id="RicPjwMRqUwqoy5CsgQ7TS">
          <mxCell style="style=rounded=1;whiteSpace=wrap;html=1;fontFamily=Helvetica;fontStyle=0;verticalAlign=middle;spacing=0;arcSize=4;spacingLeft=2;spacingRight=2;fontSize=12" parent="ct6TPsn22iouOeqSlKkqnE" vertex="1">
            <mxGeometry x="780" y="560" width="160" height="50" as="geometry" />
          </mxCell>
        </UserObject>
        <UserObject link="http://www.example.com" label="Social Media" id="yzk38iOzjR8cWOqUJCWQIj">
          <mxCell style="style=rounded=1;whiteSpace=wrap;html=1;fontFamily=Helvetica;fontStyle=0;verticalAlign=middle;spacing=0;arcSize=4;spacingLeft=2;spacingRight=2;fontSize=12" parent="ct6TPsn22iouOeqSlKkqnE" vertex="1">
            <mxGeometry x="780" y="620" width="160" height="50" as="geometry" />
          </mxCell>
        </UserObject>
        <UserObject link="http://www.example.com" label="Web" id="Pmh3ltagD40uDLxLCCAFwN">
          <mxCell style="style=rounded=1;whiteSpace=wrap;html=1;fontFamily=Helvetica;fontStyle=0;verticalAlign=middle;spacing=0;arcSize=4;spacingLeft=2;spacingRight=2;fontSize=12" parent="ct6TPsn22iouOeqSlKkqnE" vertex="1">
            <mxGeometry x="950" y="560" width="160" height="50" as="geometry" />
          </mxCell>
        </UserObject>
        <UserObject link="http://www.example.com" label="Application Architecture" id="cyOYfcj0Xz70_4bO9gabZw">
          <mxCell style="style=rounded=1;whiteSpace=wrap;html=1;fontFamily=Helvetica;fontStyle=0;verticalAlign=middle;spacing=0;arcSize=4;spacingLeft=2;spacingRight=2;fontSize=12" parent="ct6TPsn22iouOeqSlKkqnE" vertex="1">
            <mxGeometry x="1160" y="560" width="160" height="50" as="geometry" />
          </mxCell>
        </UserObject>
        <UserObject link="http://www.example.com" label="Business Architecture" id="o2F-triD_pmaheSKxd19TP">
          <mxCell style="style=rounded=1;whiteSpace=wrap;html=1;fontFamily=Helvetica;fontStyle=0;verticalAlign=middle;spacing=0;arcSize=4;spacingLeft=2;spacingRight=2;fontSize=12" parent="ct6TPsn22iouOeqSlKkqnE" vertex="1">
            <mxGeometry x="1160" y="620" width="160" height="50" as="geometry" />
          </mxCell>
        </UserObject>
        <UserObject link="http://www.example.com" label="Data Architecture" id="QSNMDLVqlqsTYnBmeoMRZS">
          <mxCell style="style=rounded=1;whiteSpace=wrap;html=1;fontFamily=Helvetica;fontStyle=0;verticalAlign=middle;spacing=0;arcSize=4;spacingLeft=2;spacingRight=2;fontSize=12" parent="ct6TPsn22iouOeqSlKkqnE" vertex="1">
            <mxGeometry x="1160" y="680" width="160" height="50" as="geometry" />
          </mxCell>
        </UserObject>
        <UserObject link="http://www.example.com" label="Security Architecture" id="0jIjziKhBqzUMBhnc1NrRH">
          <mxCell style="style=rounded=1;whiteSpace=wrap;html=1;fontFamily=Helvetica;fontStyle=0;verticalAlign=middle;spacing=0;arcSize=4;spacingLeft=2;spacingRight=2;fontSize=12" parent="ct6TPsn22iouOeqSlKkqnE" vertex="1">
            <mxGeometry x="1330" y="560" width="160" height="50" as="geometry" />
          </mxCell>
        </UserObject>
        <UserObject link="http://www.example.com" label="Technology Architecture" id="hI9KHCUfXeNvIIsHDyyivX">
          <mxCell style="style=rounded=1;whiteSpace=wrap;html=1;fontFamily=Helvetica;fontStyle=0;verticalAlign=middle;spacing=0;arcSize=4;spacingLeft=2;spacingRight=2;fontSize=12" parent="ct6TPsn22iouOeqSlKkqnE" vertex="1">
            <mxGeometry x="1330" y="620" width="160" height="50" as="geometry" />
          </mxCell>
        </UserObject>
        <UserObject link="http://www.example.com" label="IT Asset Management" id="hg0Rgdzb-AfGonwlA9GNgP">
          <mxCell style="style=rounded=1;whiteSpace=wrap;html=1;fontFamily=Helvetica;fontStyle=0;verticalAlign=middle;spacing=0;arcSize=4;spacingLeft=2;spacingRight=2;fontSize=12" parent="ct6TPsn22iouOeqSlKkqnE" vertex="1">
            <mxGeometry x="1540" y="560" width="160" height="50" as="geometry" />
          </mxCell>
        </UserObject>
        <UserObject link="http://www.example.com" label="IT Financial Management" id="s6A2XSUMLLJudSLuLC28VI">
          <mxCell style="style=rounded=1;whiteSpace=wrap;html=1;fontFamily=Helvetica;fontStyle=0;verticalAlign=middle;spacing=0;arcSize=4;spacingLeft=2;spacingRight=2;fontSize=12" parent="ct6TPsn22iouOeqSlKkqnE" vertex="1">
            <mxGeometry x="1540" y="620" width="160" height="50" as="geometry" />
          </mxCell>
        </UserObject>
        <UserObject link="http://www.example.com" label="IT Procurement" id="RXC92Hhw7PRVWrYM63BICE">
          <mxCell style="style=rounded=1;whiteSpace=wrap;html=1;fontFamily=Helvetica;fontStyle=0;verticalAlign=middle;spacing=0;arcSize=4;spacingLeft=2;spacingRight=2;fontSize=12" parent="ct6TPsn22iouOeqSlKkqnE" vertex="1">
            <mxGeometry x="1540" y="680" width="160" height="50" as="geometry" />
          </mxCell>
        </UserObject>
        <UserObject link="http://www.example.com" label="IT Service Management" id="6WyIk73tj24a0w2shWit_-">
          <mxCell style="style=rounded=1;whiteSpace=wrap;html=1;fontFamily=Helvetica;fontStyle=0;verticalAlign=middle;spacing=0;arcSize=4;spacingLeft=2;spacingRight=2;fontSize=12" parent="ct6TPsn22iouOeqSlKkqnE" vertex="1">
            <mxGeometry x="1710" y="560" width="160" height="50" as="geometry" />
          </mxCell>
        </UserObject>
        <UserObject link="http://www.example.com" label="IT Training" id="X611cvoHUaUS0eBxkRRmvz">
          <mxCell style="style=rounded=1;whiteSpace=wrap;html=1;fontFamily=Helvetica;fontStyle=0;verticalAlign=middle;spacing=0;arcSize=4;spacingLeft=2;spacingRight=2;fontSize=12" parent="ct6TPsn22iouOeqSlKkqnE" vertex="1">
            <mxGeometry x="1710" y="620" width="160" height="50" as="geometry" />
          </mxCell>
        </UserObject>
        <UserObject link="http://www.example.com" label="Vendor Management" id="JtvqoxbCB_P2jMy4P7N8-C">
          <mxCell style="style=rounded=1;whiteSpace=wrap;html=1;fontFamily=Helvetica;fontStyle=0;verticalAlign=middle;spacing=0;arcSize=4;spacingLeft=2;spacingRight=2;fontSize=12" parent="ct6TPsn22iouOeqSlKkqnE" vertex="1">
            <mxGeometry x="1710" y="680" width="160" height="50" as="geometry" />
          </mxCell>
        </UserObject>
        <UserObject link="http://www.example.com" label="Bank Transfers" id="B9n14eqKx75b_Y2xiKdpkY">
          <mxCell style="style=rounded=1;whiteSpace=wrap;html=1;fontFamily=Helvetica;fontStyle=0;verticalAlign=middle;spacing=0;arcSize=4;spacingLeft=2;spacingRight=2;fontSize=12" parent="ct6TPsn22iouOeqSlKkqnE" vertex="1">
            <mxGeometry x="20" y="910" width="160" height="50" as="geometry" />
          </mxCell>
        </UserObject>
        <UserObject link="http://www.example.com" label="Card Payments" id="WCcF1DjpfDXLyJ4840riFX">
          <mxCell style="style=rounded=1;whiteSpace=wrap;html=1;fontFamily=Helvetica;fontStyle=0;verticalAlign=middle;spacing=0;arcSize=4;spacingLeft=2;spacingRight=2;fontSize=12" parent="ct6TPsn22iouOeqSlKkqnE" vertex="1">
            <mxGeometry x="20" y="970" width="160" height="50" as="geometry" />
          </mxCell>
        </UserObject>
        <UserObject link="http://www.example.com" label="Cash Management" id="jDdECLeneE-XfhikxdlBwF">
          <mxCell style="style=rounded=1;whiteSpace=wrap;html=1;fontFamily=Helvetica;fontStyle=0;verticalAlign=middle;spacing=0;arcSize=4;spacingLeft=2;spacingRight=2;fontSize=12" parent="ct6TPsn22iouOeqSlKkqnE" vertex="1">
            <mxGeometry x="20" y="1030" width="160" height="50" as="geometry" />
          </mxCell>
        </UserObject>
        <UserObject link="http://www.example.com" label="Check Processing" id="FbNnmk3U2H4NtXMrRduOfX">
          <mxCell style="style=rounded=1;whiteSpace=wrap;html=1;fontFamily=Helvetica;fontStyle=0;verticalAlign=middle;spacing=0;arcSize=4;spacingLeft=2;spacingRight=2;fontSize=12" parent="ct6TPsn22iouOeqSlKkqnE" vertex="1">
            <mxGeometry x="20" y="1090" width="160" height="50" as="geometry" />
          </mxCell>
        </UserObject>
        <UserObject link="http://www.example.com" label="Direct Debits" id="HL890WXjW8G79aAB8e9OdM">
          <mxCell style="style=rounded=1;whiteSpace=wrap;html=1;fontFamily=Helvetica;fontStyle=0;verticalAlign=middle;spacing=0;arcSize=4;spacingLeft=2;spacingRight=2;fontSize=12" parent="ct6TPsn22iouOeqSlKkqnE" vertex="1">
            <mxGeometry x="190" y="910" width="160" height="50" as="geometry" />
          </mxCell>
        </UserObject>
        <UserObject link="http://www.example.com" label="Merchant Acquiring" id="AVVP8rF5_lG8t1QsQbNEUG">
          <mxCell style="style=rounded=1;whiteSpace=wrap;html=1;fontFamily=Helvetica;fontStyle=0;verticalAlign=middle;spacing=0;arcSize=4;spacingLeft=2;spacingRight=2;fontSize=12" parent="ct6TPsn22iouOeqSlKkqnE" vertex="1">
            <mxGeometry x="190" y="970" width="160" height="50" as="geometry" />
          </mxCell>
        </UserObject>
        <UserObject link="http://www.example.com" label="Payment Gateways" id="Sy3c8JNTGEvTxuDgBAvvXd">
          <mxCell style="style=rounded=1;whiteSpace=wrap;html=1;fontFamily=Helvetica;fontStyle=0;verticalAlign=middle;spacing=0;arcSize=4;spacingLeft=2;spacingRight=2;fontSize=12" parent="ct6TPsn22iouOeqSlKkqnE" vertex="1">
            <mxGeometry x="190" y="1030" width="160" height="50" as="geometry" />
          </mxCell>
        </UserObject>
        <UserObject link="http://www.example.com" label="Billing" id="5hSZgB0m4yvlGWsd8KHi4y">
          <mxCell style="style=rounded=1;whiteSpace=wrap;html=1;fontFamily=Helvetica;fontStyle=0;verticalAlign=middle;spacing=0;arcSize=4;spacingLeft=2;spacingRight=2;fontSize=12" parent="ct6TPsn22iouOeqSlKkqnE" vertex="1">
            <mxGeometry x="400" y="910" width="160" height="50" as="geometry" />
          </mxCell>
        </UserObject>
        <UserObject link="http://www.example.com" label="Commissions and Incentives" id="3KZcZcbv5cZDvjgaeEloAw">
          <mxCell style="style=rounded=1;whiteSpace=wrap;html=1;fontFamily=Helvetica;fontStyle=0;verticalAlign=middle;spacing=0;arcSize=4;spacingLeft=2;spacingRight=2;fontSize=12" parent="ct6TPsn22iouOeqSlKkqnE" vertex="1">
            <mxGeometry x="400" y="970" width="160" height="50" as="geometry" />
          </mxCell>
        </UserObject>
        <UserObject link="http://www.example.com" label="Pricing Engine" id="Dbcj74KZ4bxF9U30qm0S1k">
          <mxCell style="style=rounded=1;whiteSpace=wrap;html=1;fontFamily=Helvetica;fontStyle=0;verticalAlign=middle;spacing=0;arcSize=4;spacingLeft=2;spacingRight=2;fontSize=12" parent="ct6TPsn22iouOeqSlKkqnE" vertex="1">
            <mxGeometry x="400" y="1030" width="160" height="50" as="geometry" />
          </mxCell>
        </UserObject>
        <UserObject link="http://www.example.com" label="Product Catalog" id="7enI20wtl3VR9sgmqGTm5b">
          <mxCell style="style=rounded=1;whiteSpace=wrap;html=1;fontFamily=Helvetica;fontStyle=0;verticalAlign=middle;spacing=0;arcSize=4;spacingLeft=2;spacingRight=2;fontSize=12" parent="ct6TPsn22iouOeqSlKkqnE" vertex="1">
            <mxGeometry x="570" y="910" width="160" height="50" as="geometry" />
          </mxCell>
        </UserObject>
        <UserObject link="http://www.example.com" label="Product Configuration" id="mhoAGU2tp6joT0I_vP5Znv">
          <mxCell style="style=rounded=1;whiteSpace=wrap;html=1;fontFamily=Helvetica;fontStyle=0;verticalAlign=middle;spacing=0;arcSize=4;spacingLeft=2;spacingRight=2;fontSize=12" parent="ct6TPsn22iouOeqSlKkqnE" vertex="1">
            <mxGeometry x="570" y="970" width="160" height="50" as="geometry" />
          </mxCell>
        </UserObject>
        <UserObject link="http://www.example.com" label="Credit Cards" id="TL0Y99l0xfKN0vciST767Z">
          <mxCell style="style=rounded=1;whiteSpace=wrap;html=1;fontFamily=Helvetica;fontStyle=0;verticalAlign=middle;spacing=0;arcSize=4;spacingLeft=2;spacingRight=2;fontSize=12" parent="ct6TPsn22iouOeqSlKkqnE" vertex="1">
            <mxGeometry x="780" y="910" width="160" height="50" as="geometry" />
          </mxCell>
        </UserObject>
        <UserObject link="http://www.example.com" label="Current Accounts" id="thpgfUuhKbuMhqURLxjH8Y">
          <mxCell style="style=rounded=1;whiteSpace=wrap;html=1;fontFamily=Helvetica;fontStyle=0;verticalAlign=middle;spacing=0;arcSize=4;spacingLeft=2;spacingRight=2;fontSize=12" parent="ct6TPsn22iouOeqSlKkqnE" vertex="1">
            <mxGeometry x="780" y="970" width="160" height="50" as="geometry" />
          </mxCell>
        </UserObject>
        <UserObject link="http://www.example.com" label="Foreign Exchange" id="DDDqXIWQmxWLrXj625uVYo">
          <mxCell style="style=rounded=1;whiteSpace=wrap;html=1;fontFamily=Helvetica;fontStyle=0;verticalAlign=middle;spacing=0;arcSize=4;spacingLeft=2;spacingRight=2;fontSize=12" parent="ct6TPsn22iouOeqSlKkqnE" vertex="1">
            <mxGeometry x="780" y="1030" width="160" height="50" as="geometry" />
          </mxCell>
        </UserObject>
        <UserObject link="http://www.example.com" label="Insurance" id="XC2HMKBdDRbKuZoz4Tfxjd">
          <mxCell style="style=rounded=1;whiteSpace=wrap;html=1;fontFamily=Helvetica;fontStyle=0;verticalAlign=middle;spacing=0;arcSize=4;spacingLeft=2;spacingRight=2;fontSize=12" parent="ct6TPsn22iouOeqSlKkqnE" vertex="1">
            <mxGeometry x="780" y="1090" width="160" height="50" as="geometry" />
          </mxCell>
        </UserObject>
        <UserObject link="http://www.example.com" label="Investments" id="6Wgr8AfrLqy6h-78kPj28p">
          <mxCell style="style=rounded=1;whiteSpace=wrap;html=1;fontFamily=Helvetica;fontStyle=0;verticalAlign=middle;spacing=0;arcSize=4;spacingLeft=2;spacingRight=2;fontSize=12" parent="ct6TPsn22iouOeqSlKkqnE" vertex="1">
            <mxGeometry x="780" y="1150" width="160" height="50" as="geometry" />
          </mxCell>
        </UserObject>
        <UserObject link="http://www.example.com" label="Loans" id="BotoMHCYk2erP1K2xJ2r_Y">
          <mxCell style="style=rounded=1;whiteSpace=wrap;html=1;fontFamily=Helvetica;fontStyle=0;verticalAlign=middle;spacing=0;arcSize=4;spacingLeft=2;spacingRight=2;fontSize=12" parent="ct6TPsn22iouOeqSlKkqnE" vertex="1">
            <mxGeometry x="950" y="910" width="160" height="50" as="geometry" />
          </mxCell>
        </UserObject>
        <UserObject link="http://www.example.com" label="Mortgages" id="d7Oj_M3LjG8zADZNjQhQBs">
          <mxCell style="style=rounded=1;whiteSpace=wrap;html=1;fontFamily=Helvetica;fontStyle=0;verticalAlign=middle;spacing=0;arcSize=4;spacingLeft=2;spacingRight=2;fontSize=12" parent="ct6TPsn22iouOeqSlKkqnE" vertex="1">
            <mxGeometry x="950" y="970" width="160" height="50" as="geometry" />
          </mxCell>
        </UserObject>
        <UserObject link="http://www.example.com" label="Pensions" id="MGz9hl6g_KtnIekyNTL8PE">
          <mxCell style="style=rounded=1;whiteSpace=wrap;html=1;fontFamily=Helvetica;fontStyle=0;verticalAlign=middle;spacing=0;arcSize=4;spacingLeft=2;spacingRight=2;fontSize=12" parent="ct6TPsn22iouOeqSlKkqnE" vertex="1">
            <mxGeometry x="950" y="1030" width="160" height="50" as="geometry" />
          </mxCell>
        </UserObject>
        <UserObject link="http://www.example.com" label="Savings Accounts" id="2zqT7iqWwEZHY35aNAKYkc">
          <mxCell style="style=rounded=1;whiteSpace=wrap;html=1;fontFamily=Helvetica;fontStyle=0;verticalAlign=middle;spacing=0;arcSize=4;spacingLeft=2;spacingRight=2;fontSize=12" parent="ct6TPsn22iouOeqSlKkqnE" vertex="1">
            <mxGeometry x="950" y="1090" width="160" height="50" as="geometry" />
          </mxCell>
        </UserObject>
        <UserObject link="http://www.example.com" label="Trade Finance" id="734tTeLH3stm_1ot5csqWH">
          <mxCell style="style=rounded=1;whiteSpace=wrap;html=1;fontFamily=Helvetica;fontStyle=0;verticalAlign=middle;spacing=0;arcSize=4;spacingLeft=2;spacingRight=2;fontSize=12" parent="ct6TPsn22iouOeqSlKkqnE" vertex="1">
            <mxGeometry x="950" y="1150" width="160" height="50" as="geometry" />
          </mxCell>
        </UserObject>
        <UserObject link="http://www.example.com" label="&lt;br&gt;Asset and Liability Management" id="xOaa0e5z8BmfxhUmyRIlg0">
          <mxCell style="style=rounded=1;whiteSpace=wrap;html=1;fontFamily=Helvetica;fontStyle=0;verticalAlign=middle;spacing=0;arcSize=4;spacingLeft=2;spacingRight=2;fontSize=12" parent="ct6TPsn22iouOeqSlKkqnE" vertex="1">
            <mxGeometry x="1160" y="910" width="160" height="50" as="geometry" />
          </mxCell>
        </UserObject>
        <UserObject link="http://www.example.com" label="Credit Risk Management" id="SJRvC61_NdyOXBgESQzyMD">
          <mxCell style="style=rounded=1;whiteSpace=wrap;html=1;fontFamily=Helvetica;fontStyle=0;verticalAlign=middle;spacing=0;arcSize=4;spacingLeft=2;spacingRight=2;fontSize=12" parent="ct6TPsn22iouOeqSlKkqnE" vertex="1">
            <mxGeometry x="1160" y="970" width="160" height="50" as="geometry" />
          </mxCell>
        </UserObject>
        <UserObject link="http://www.example.com" label="&lt;br&gt;Financial Planning and Analysis" id="_8g8nb5CvNxBOdx-HiPlXR">
          <mxCell style="style=rounded=1;whiteSpace=wrap;html=1;fontFamily=Helvetica;fontStyle=0;verticalAlign=middle;spacing=0;arcSize=4;spacingLeft=2;spacingRight=2;fontSize=12" parent="ct6TPsn22iouOeqSlKkqnE" vertex="1">
            <mxGeometry x="1160" y="1030" width="160" height="50" as="geometry" />
          </mxCell>
        </UserObject>
        <UserObject link="http://www.example.com" label="Liquidity Risk Management" id="OouTmhRUjImtX0og1kr75z">
          <mxCell style="style=rounded=1;whiteSpace=wrap;html=1;fontFamily=Helvetica;fontStyle=0;verticalAlign=middle;spacing=0;arcSize=4;spacingLeft=2;spacingRight=2;fontSize=12" parent="ct6TPsn22iouOeqSlKkqnE" vertex="1">
            <mxGeometry x="1160" y="1090" width="160" height="50" as="geometry" />
          </mxCell>
        </UserObject>
        <UserObject link="http://www.example.com" label="Management Reporting" id="grQ3B8sMwhMMiIq4pJ-Q0R">
          <mxCell style="style=rounded=1;whiteSpace=wrap;html=1;fontFamily=Helvetica;fontStyle=0;verticalAlign=middle;spacing=0;arcSize=4;spacingLeft=2;spacingRight=2;fontSize=12" parent="ct6TPsn22iouOeqSlKkqnE" vertex="1">
            <mxGeometry x="1160" y="1150" width="160" height="50" as="geometry" />
          </mxCell>
        </UserObject>
        <UserObject link="http://www.example.com" label="Market Risk Management" id="0I-4488gFS60z385SNg6wm">
          <mxCell style="style=rounded=1;whiteSpace=wrap;html=1;fontFamily=Helvetica;fontStyle=0;verticalAlign=middle;spacing=0;arcSize=4;spacingLeft=2;spacingRight=2;fontSize=12" parent="ct6TPsn22iouOeqSlKkqnE" vertex="1">
            <mxGeometry x="1330" y="910" width="160" height="50" as="geometry" />
          </mxCell>
        </UserObject>
        <UserObject link="http://www.example.com" label="&lt;br&gt;Operational Risk Management" id="5adi3sjQBVWm4SaYqn2a68">
          <mxCell style="style=rounded=1;whiteSpace=wrap;html=1;fontFamily=Helvetica;fontStyle=0;verticalAlign=middle;spacing=0;arcSize=4;spacingLeft=2;spacingRight=2;fontSize=12" parent="ct6TPsn22iouOeqSlKkqnE" vertex="1">
            <mxGeometry x="1330" y="970" width="160" height="50" as="geometry" />
          </mxCell>
        </UserObject>
        <UserObject link="http://www.example.com" label="Profitability Analysis" id="t2ZsN48cwc_2uLGQXYJwOP">
          <mxCell style="style=rounded=1;whiteSpace=wrap;html=1;fontFamily=Helvetica;fontStyle=0;verticalAlign=middle;spacing=0;arcSize=4;spacingLeft=2;spacingRight=2;fontSize=12" parent="ct6TPsn22iouOeqSlKkqnE" vertex="1">
            <mxGeometry x="1330" y="1030" width="160" height="50" as="geometry" />
          </mxCell>
        </UserObject>
        <UserObject link="http://www.example.com" label="Regulatory Reporting" id="mZ0WXBiwjhPjnsEVct822y">
          <mxCell style="style=rounded=1;whiteSpace=wrap;html=1;fontFamily=Helvetica;fontStyle=0;verticalAlign=middle;spacing=0;arcSize=4;spacingLeft=2;spacingRight=2;fontSize=12" parent="ct6TPsn22iouOeqSlKkqnE" vertex="1">
            <mxGeometry x="1330" y="1090" width="160" height="50" as="geometry" />
          </mxCell>
        </UserObject>
        <UserObject link="http://www.example.com" label="Treasury Management" id="2UU8kYskzpZ7Bnwq8HAP0F">
          <mxCell style="style=rounded=1;whiteSpace=wrap;html=1;fontFamily=Helvetica;fontStyle=0;verticalAlign=middle;spacing=0;arcSize=4;spacingLeft=2;spacingRight=2;fontSize=12" parent="ct6TPsn22iouOeqSlKkqnE" vertex="1">
            <mxGeometry x="1330" y="1150" width="160" height="50" as="geometry" />
          </mxCell>
        </UserObject>
        <UserObject link="http://www.example.com" label="Account Management" id="3QjsqocFyDTwZafjl9pXbt">
          <mxCell style="style=rounded=1;whiteSpace=wrap;html=1;fontFamily=Helvetica;fontStyle=0;verticalAlign=middle;spacing=0;arcSize=4;spacingLeft=2;spacingRight=2;fontSize=12" parent="ct6TPsn22iouOeqSlKkqnE" vertex="1">
            <mxGeometry x="1540" y="910" width="160" height="50" as="geometry" />
          </mxCell>
        </UserObject>
        <UserObject link="http://www.example.com" label="Campaign Management" id="W6aF5D5Hzdx-QPdfbHQmf_">
          <mxCell style="style=rounded=1;whiteSpace=wrap;html=1;fontFamily=Helvetica;fontStyle=0;verticalAlign=middle;spacing=0;arcSize=4;spacingLeft=2;spacingRight=2;fontSize=12" parent="ct6TPsn22iouOeqSlKkqnE" vertex="1">
            <mxGeometry x="1540" y="970" width="160" height="50" as="geometry" />
          </mxCell>
        </UserObject>
        <UserObject link="http://www.example.com" label="Contact Center" id="efawx7VQSt9V3Ztjulr4YS">
          <mxCell style="style=rounded=1;whiteSpace=wrap;html=1;fontFamily=Helvetica;fontStyle=0;verticalAlign=middle;spacing=0;arcSize=4;spacingLeft=2;spacingRight=2;fontSize=12" parent="ct6TPsn22iouOeqSlKkqnE" vertex="1">
            <mxGeometry x="1540" y="1030" width="160" height="50" as="geometry" />
          </mxCell>
        </UserObject>
        <UserObject link="http://www.example.com" label="Lead Management" id="49YP19-Xz8O8rlxyPAaySs">
          <mxCell style="style=rounded=1;whiteSpace=wrap;html=1;fontFamily=Helvetica;fontStyle=0;verticalAlign=middle;spacing=0;arcSize=4;spacingLeft=2;spacingRight=2;fontSize=12" parent="ct6TPsn22iouOeqSlKkqnE" vertex="1">
            <mxGeometry x="1710" y="910" width="160" height="50" as="geometry" />
          </mxCell>
        </UserObject>
        <UserObject link="http://www.example.com" label="Opportunity Management" id="k7JybQ_1lz44gaWjxbzILF">
          <mxCell style="style=rounded=1;whiteSpace=wrap;html=1;fontFamily=Helvetica;fontStyle=0;verticalAlign=middle;spacing=0;arcSize=4;spacingLeft=2;spacingRight=2;fontSize=12" parent="ct6TPsn22iouOeqSlKkqnE" vertex="1">
            <mxGeometry x="1710" y="970" width="160" height="50" as="geometry" />
          </mxCell>
        </UserObject>
        <UserObject link="http://www.example.com" label="Cash Management" id="PqTVpZAL7yFzdmu0eqhjQc">
          <mxCell style="style=rounded=1;whiteSpace=wrap;html=1;fontFamily=Helvetica;fontStyle=0;verticalAlign=middle;spacing=0;arcSize=4;spacingLeft=2;spacingRight=2;fontSize=12" parent="ct6TPsn22iouOeqSlKkqnE" vertex="1">
            <mxGeometry x="20" y="1320" width="160" height="50" as="geometry" />
          </mxCell>
        </UserObject>
        <UserObject link="http://www.example.com" label="Liquidity Management" id="JHgKE5nummWNsOeZK5c6tQ">
          <mxCell style="style=rounded=1;whiteSpace=wrap;html=1;fontFamily=Helvetica;fontStyle=0;verticalAlign=middle;spacing=0;arcSize=4;spacingLeft=2;spacingRight=2;fontSize=12" parent="ct6TPsn22iouOeqSlKkqnE" vertex="1">
            <mxGeometry x="20" y="1380" width="160" height="50" as="geometry" />
          </mxCell>
        </UserObject>
        <UserObject link="http://www.example.com" label="Payments and Collections" id="r2PHqBATlIsmY8hEsErfk2">
          <mxCell style="style=rounded=1;whiteSpace=wrap;html=1;fontFamily=Helvetica;fontStyle=0;verticalAlign=middle;spacing=0;arcSize=4;spacingLeft=2;spacingRight=2;fontSize=12" parent="ct6TPsn22iouOeqSlKkqnE" vertex="1">
            <mxGeometry x="20" y="1440" width="160" height="50" as="geometry" />
          </mxCell>
        </UserObject>
        <UserObject link="http://www.example.com" label="Supply Chain Finance" id="dg1q_bwYVs-RqKMmd41i5o">
          <mxCell style="style=rounded=1;whiteSpace=wrap;html=1;fontFamily=Helvetica;fontStyle=0;verticalAlign=middle;spacing=0;arcSize=4;spacingLeft=2;spacingRight=2;fontSize=12" parent="ct6TPsn22iouOeqSlKkqnE" vertex="1">
            <mxGeometry x="190" y="1320" width="160" height="50" as="geometry" />
          </mxCell>
        </UserObject>
        <UserObject link="http://www.example.com" label="Trade Finance" id="lmWLj3c5QTmtdiZOsOj-Md">
          <mxCell style="style=rounded=1;whiteSpace=wrap;html=1;fontFamily=Helvetica;fontStyle=0;verticalAlign=middle;spacing=0;arcSize=4;spacingLeft=2;spacingRight=2;fontSize=12" parent="ct6TPsn22iouOeqSlKkqnE" vertex="1">
            <mxGeometry x="190" y="1380" width="160" height="50" as="geometry" />
          </mxCell>
        </UserObject>
        <UserObject link="http://www.example.com" label="Cash Management" id="l-nxL4KmWgdNLkdZzK1Vrl">
          <mxCell style="style=rounded=1;whiteSpace=wrap;html=1;fontFamily=Helvetica;fontStyle=0;verticalAlign=middle;spacing=0;arcSize=4;spacingLeft=2;spacingRight=2;fontSize=12" parent="ct6TPsn22iouOeqSlKkqnE" vertex="1">
            <mxGeometry x="400" y="1320" width="160" height="50" as="geometry" />
          </mxCell>
        </UserObject>
        <UserObject link="http://www.example.com" label="&lt;br&gt;Debt and Investment Management" id="AxRMZZYmrQggy-GKw49wTo">
          <mxCell style="style=rounded=1;whiteSpace=wrap;html=1;fontFamily=Helvetica;fontStyle=0;verticalAlign=middle;spacing=0;arcSize=4;spacingLeft=2;spacingRight=2;fontSize=12" parent="ct6TPsn22iouOeqSlKkqnE" vertex="1">
            <mxGeometry x="400" y="1380" width="160" height="50" as="geometry" />
          </mxCell>
        </UserObject>
        <UserObject link="http://www.example.com" label="Derivatives and Hedging" id="A8e-n_1UBC0xP1egpSvgkp">
          <mxCell style="style=rounded=1;whiteSpace=wrap;html=1;fontFamily=Helvetica;fontStyle=0;verticalAlign=middle;spacing=0;arcSize=4;spacingLeft=2;spacingRight=2;fontSize=12" parent="ct6TPsn22iouOeqSlKkqnE" vertex="1">
            <mxGeometry x="570" y="1320" width="160" height="50" as="geometry" />
          </mxCell>
        </UserObject>
        <UserObject link="http://www.example.com" label="Foreign Exchange" id="80aUzIafuGoTWhAhLpz6q4">
          <mxCell style="style=rounded=1;whiteSpace=wrap;html=1;fontFamily=Helvetica;fontStyle=0;verticalAlign=middle;spacing=0;arcSize=4;spacingLeft=2;spacingRight=2;fontSize=12" parent="ct6TPsn22iouOeqSlKkqnE" vertex="1">
            <mxGeometry x="570" y="1380" width="160" height="50" as="geometry" />
          </mxCell>
        </UserObject>
        <UserObject link="http://www.example.com" label="Brokerage Services" id="V8nD-sgcVcjUtg7g1y3vt_">
          <mxCell style="style=rounded=1;whiteSpace=wrap;html=1;fontFamily=Helvetica;fontStyle=0;verticalAlign=middle;spacing=0;arcSize=4;spacingLeft=2;spacingRight=2;fontSize=12" parent="ct6TPsn22iouOeqSlKkqnE" vertex="1">
            <mxGeometry x="780" y="1320" width="160" height="50" as="geometry" />
          </mxCell>
        </UserObject>
        <UserObject link="http://www.example.com" label="Financial Planning" id="QJ0VKxEy8itjwvwTeH-Pmv">
          <mxCell style="style=rounded=1;whiteSpace=wrap;html=1;fontFamily=Helvetica;fontStyle=0;verticalAlign=middle;spacing=0;arcSize=4;spacingLeft=2;spacingRight=2;fontSize=12" parent="ct6TPsn22iouOeqSlKkqnE" vertex="1">
            <mxGeometry x="780" y="1380" width="160" height="50" as="geometry" />
          </mxCell>
        </UserObject>
        <UserObject link="http://www.example.com" label="Investment Research" id="zrnAopVS0yGtgBof4W3TNj">
          <mxCell style="style=rounded=1;whiteSpace=wrap;html=1;fontFamily=Helvetica;fontStyle=0;verticalAlign=middle;spacing=0;arcSize=4;spacingLeft=2;spacingRight=2;fontSize=12" parent="ct6TPsn22iouOeqSlKkqnE" vertex="1">
            <mxGeometry x="780" y="1440" width="160" height="50" as="geometry" />
          </mxCell>
        </UserObject>
        <UserObject link="http://www.example.com" label="Portfolio Management" id="UW4n_Uork5BTY-u74429A9">
          <mxCell style="style=rounded=1;whiteSpace=wrap;html=1;fontFamily=Helvetica;fontStyle=0;verticalAlign=middle;spacing=0;arcSize=4;spacingLeft=2;spacingRight=2;fontSize=12" parent="ct6TPsn22iouOeqSlKkqnE" vertex="1">
            <mxGeometry x="950" y="1320" width="160" height="50" as="geometry" />
          </mxCell>
        </UserObject>
        <UserObject link="http://www.example.com" label="&lt;br&gt;Trust and Fiduciary Services" id="Iu-WNKhl2UGi4d7c659YVK">
          <mxCell style="style=rounded=1;whiteSpace=wrap;html=1;fontFamily=Helvetica;fontStyle=0;verticalAlign=middle;spacing=0;arcSize=4;spacingLeft=2;spacingRight=2;fontSize=12" parent="ct6TPsn22iouOeqSlKkqnE" vertex="1">
            <mxGeometry x="950" y="1380" width="160" height="50" as="geometry" />
          </mxCell>
        </UserObject>
        <UserObject link="http://www.example.com" label="Commercial Banking" id="TWviIwHORBsFoSK_Q94FIQ">
          <mxCell style="style=rounded=1;whiteSpace=wrap;html=1;fontFamily=Helvetica;fontStyle=0;verticalAlign=middle;spacing=0;arcSize=4;spacingLeft=2;spacingRight=2;fontSize=12" parent="ct6TPsn22iouOeqSlKkqnE" vertex="1">
            <mxGeometry x="1160" y="1320" width="160" height="50" as="geometry" />
          </mxCell>
        </UserObject>
        <UserObject link="http://www.example.com" label="Corporate Banking" id="2eleU0tzinuaW_lhfs2k0W">
          <mxCell style="style=rounded=1;whiteSpace=wrap;html=1;fontFamily=Helvetica;fontStyle=0;verticalAlign=middle;spacing=0;arcSize=4;spacingLeft=2;spacingRight=2;fontSize=12" parent="ct6TPsn22iouOeqSlKkqnE" vertex="1">
            <mxGeometry x="1160" y="1380" width="160" height="50" as="geometry" />
          </mxCell>
        </UserObject>
        <UserObject link="http://www.example.com" label="Investment Banking" id="VqJaWBQhg0VfQL6-qhTWxR">
          <mxCell style="style=rounded=1;whiteSpace=wrap;html=1;fontFamily=Helvetica;fontStyle=0;verticalAlign=middle;spacing=0;arcSize=4;spacingLeft=2;spacingRight=2;fontSize=12" parent="ct6TPsn22iouOeqSlKkqnE" vertex="1">
            <mxGeometry x="1160" y="1440" width="160" height="50" as="geometry" />
          </mxCell>
        </UserObject>
        <UserObject link="http://www.example.com" label="Structured Finance" id="y7YClbGeK3aRDVfIycxeBn">
          <mxCell style="style=rounded=1;whiteSpace=wrap;html=1;fontFamily=Helvetica;fontStyle=0;verticalAlign=middle;spacing=0;arcSize=4;spacingLeft=2;spacingRight=2;fontSize=12" parent="ct6TPsn22iouOeqSlKkqnE" vertex="1">
            <mxGeometry x="1330" y="1320" width="160" height="50" as="geometry" />
          </mxCell>
        </UserObject>
        <UserObject link="http://www.example.com" label="Syndicated Lending" id="i2EmLp3FK7UMmtmu_IaxdO">
          <mxCell style="style=rounded=1;whiteSpace=wrap;html=1;fontFamily=Helvetica;fontStyle=0;verticalAlign=middle;spacing=0;arcSize=4;spacingLeft=2;spacingRight=2;fontSize=12" parent="ct6TPsn22iouOeqSlKkqnE" vertex="1">
            <mxGeometry x="1330" y="1380" width="160" height="50" as="geometry" />
          </mxCell>
        </UserObject>
        <mxCell id="QNrw7z2RwkjMqDyv-cJb-R" value="Strategy" style="locked=1" parent="0" />
        <mxCell id="OJj2dm9gobyE0_KKR6aW62" value="Anti-Money Laundering" style="style=rounded=1;whiteSpace=wrap;html=1;fontFamily=Helvetica;fontStyle=0;verticalAlign=middle;spacing=0;arcSize=4;spacingLeft=2;spacingRight=2;fontSize=12;fillColor=#D5E8D4;strokeColor=#82B366" parent="QNrw7z2RwkjMqDyv-cJb-R" vertex="1">
          <mxGeometry x="20" y="90" width="160" height="50" as="geometry" />
        </mxCell>
        <mxCell id="KfoMUTsRAGUqnhS-4OQvQB" value="Compliance Monitoring" style="style=rounded=1;whiteSpace=wrap;html=1;fontFamily=Helvetica;fontStyle=0;verticalAlign=middle;spacing=0;arcSize=4;spacingLeft=2;spacingRight=2;fontSize=12;fillColor=#D5E8D4;strokeColor=#82B366" parent="QNrw7z2RwkjMqDyv-cJb-R" vertex="1">
          <mxGeometry x="20" y="150" width="160" height="50" as="geometry" />
        </mxCell>
        <mxCell id="FKK1HT3yxDpQStdWDeX8yP" value="Compliance Training" style="style=rounded=1;whiteSpace=wrap;html=1;fontFamily=Helvetica;fontStyle=0;verticalAlign=middle;spacing=0;arcSize=4;spacingLeft=2;spacingRight=2;fontSize=12;fillColor=#D5E8D4;strokeColor=#82B366" parent="QNrw7z2RwkjMqDyv-cJb-R" vertex="1">
          <mxGeometry x="20" y="210" width="160" height="50" as="geometry" />
        </mxCell>
        <mxCell id="stFDFQULavDqY4hvBO_U05" value="Conduct Risk Management" style="style=rounded=1;whiteSpace=wrap;html=1;fontFamily=Helvetica;fontStyle=0;verticalAlign=middle;spacing=0;arcSize=4;spacingLeft=2;spacingRight=2;fontSize=12;fillColor=#D5E8D4;strokeColor=#82B366" parent="QNrw7z2RwkjMqDyv-cJb-R" vertex="1">
          <mxGeometry x="20" y="270" width="160" height="50" as="geometry" />
        </mxCell>
        <mxCell id="5bq2QK8O2uN_Xj9MyhQLQB" value="Customer Sanctions" style="style=rounded=1;whiteSpace=wrap;html=1;fontFamily=Helvetica;fontStyle=0;verticalAlign=middle;spacing=0;arcSize=4;spacingLeft=2;spacingRight=2;fontSize=12;fillColor=#D5E8D4;strokeColor=#82B366" parent="QNrw7z2RwkjMqDyv-cJb-R" vertex="1">
          <mxGeometry x="20" y="330" width="160" height="50" as="geometry" />
        </mxCell>
        <mxCell id="uBxOtPUvD8k0flJU7P2CXT" value="Data Privacy" style="style=rounded=1;whiteSpace=wrap;html=1;fontFamily=Helvetica;fontStyle=0;verticalAlign=middle;spacing=0;arcSize=4;spacingLeft=2;spacingRight=2;fontSize=12;fillColor=#FFF2CC;strokeColor=#D6B656" parent="QNrw7z2RwkjMqDyv-cJb-R" vertex="1">
          <mxGeometry x="190" y="90" width="160" height="50" as="geometry" />
        </mxCell>
        <mxCell id="SGm7g9noYfJpZjiElSbyjw" value="Financial Crime Prevention" style="style=rounded=1;whiteSpace=wrap;html=1;fontFamily=Helvetica;fontStyle=0;verticalAlign=middle;spacing=0;arcSize=4;spacingLeft=2;spacingRight=2;fontSize=12;fillColor=#D5E8D4;strokeColor=#82B366" parent="QNrw7z2RwkjMqDyv-cJb-R" vertex="1">
          <mxGeometry x="190" y="150" width="160" height="50" as="geometry" />
        </mxCell>
        <mxCell id="oH3_fv07qLGtJhPN4AjxHq" value="Know Your Customer" style="style=rounded=1;whiteSpace=wrap;html=1;fontFamily=Helvetica;fontStyle=0;verticalAlign=middle;spacing=0;arcSize=4;spacingLeft=2;spacingRight=2;fontSize=12;fillColor=#D5E8D4;strokeColor=#82B366" parent="QNrw7z2RwkjMqDyv-cJb-R" vertex="1">
          <mxGeometry x="190" y="210" width="160" height="50" as="geometry" />
        </mxCell>
        <mxCell id="GuTWaJz55qHFOtWEr0WEGg" value="&lt;br&gt;Regulatory Change Management" style="style=rounded=1;whiteSpace=wrap;html=1;fontFamily=Helvetica;fontStyle=0;verticalAlign=middle;spacing=0;arcSize=4;spacingLeft=2;spacingRight=2;fontSize=12;fillColor=#FFF2CC;strokeColor=#D6B656" parent="QNrw7z2RwkjMqDyv-cJb-R" vertex="1">
          <mxGeometry x="190" y="270" width="160" height="50" as="geometry" />
        </mxCell>
        <mxCell id="YIyGnHCP16_pTAw7dSyKMB" value="Regulatory Engagement" style="style=rounded=1;whiteSpace=wrap;html=1;fontFamily=Helvetica;fontStyle=0;verticalAlign=middle;spacing=0;arcSize=4;spacingLeft=2;spacingRight=2;fontSize=12;fillColor=#D5E8D4;strokeColor=#82B366" parent="QNrw7z2RwkjMqDyv-cJb-R" vertex="1">
          <mxGeometry x="190" y="330" width="160" height="50" as="geometry" />
        </mxCell>
        <mxCell id="a9kxVsbjp3dOuXKnxxpOcP" value="Regulatory Reporting" style="style=rounded=1;whiteSpace=wrap;html=1;fontFamily=Helvetica;fontStyle=0;verticalAlign=middle;spacing=0;arcSize=4;spacingLeft=2;spacingRight=2;fontSize=12;fillColor=#D5E8D4;strokeColor=#82B366" parent="QNrw7z2RwkjMqDyv-cJb-R" vertex="1">
          <mxGeometry x="360" y="90" width="160" height="50" as="geometry" />
        </mxCell>
        <mxCell id="nAP5O9TCly-npQNCLG9T_y" value="Risk and Control" style="style=rounded=1;whiteSpace=wrap;html=1;fontFamily=Helvetica;fontStyle=0;verticalAlign=middle;spacing=0;arcSize=4;spacingLeft=2;spacingRight=2;fontSize=12;fillColor=#D5E8D4;strokeColor=#82B366" parent="QNrw7z2RwkjMqDyv-cJb-R" vertex="1">
          <mxGeometry x="360" y="150" width="160" height="50" as="geometry" />
        </mxCell>
        <mxCell id="5N_dT1xRoI5xpbYpPLEFqX" value="Trade/Price Reporting" style="style=rounded=1;whiteSpace=wrap;html=1;fontFamily=Helvetica;fontStyle=0;verticalAlign=middle;spacing=0;arcSize=4;spacingLeft=2;spacingRight=2;fontSize=12;fillColor=#D5E8D4;strokeColor=#82B366" parent="QNrw7z2RwkjMqDyv-cJb-R" vertex="1">
          <mxGeometry x="360" y="210" width="160" height="50" as="geometry" />
        </mxCell>
        <mxCell id="UhjJhWetOZSm69A6ND18Er" value="Cyber Defense" style="style=rounded=1;whiteSpace=wrap;html=1;fontFamily=Helvetica;fontStyle=0;verticalAlign=middle;spacing=0;arcSize=4;spacingLeft=2;spacingRight=2;fontSize=12;fillColor=#D5E8D4;strokeColor=#82B366" parent="QNrw7z2RwkjMqDyv-cJb-R" vertex="1">
          <mxGeometry x="570" y="90" width="160" height="50" as="geometry" />
        </mxCell>
        <mxCell id="1gX9JWR6z1eMq5h8u3iNhm" value="Data Loss Prevention (DLP)" style="style=rounded=1;whiteSpace=wrap;html=1;fontFamily=Helvetica;fontStyle=0;verticalAlign=middle;spacing=0;arcSize=4;spacingLeft=2;spacingRight=2;fontSize=12;fillColor=#D5E8D4;strokeColor=#82B366" parent="QNrw7z2RwkjMqDyv-cJb-R" vertex="1">
          <mxGeometry x="570" y="150" width="160" height="50" as="geometry" />
        </mxCell>
        <mxCell id="xYhtK1eiJ0stO4EtsHsIWs" value="&lt;br&gt;Extended Detection and Response (XDR)" style="style=rounded=1;whiteSpace=wrap;html=1;fontFamily=Helvetica;fontStyle=0;verticalAlign=middle;spacing=0;arcSize=4;spacingLeft=2;spacingRight=2;fontSize=12;fillColor=#D5E8D4;strokeColor=#82B366" parent="QNrw7z2RwkjMqDyv-cJb-R" vertex="1">
          <mxGeometry x="570" y="210" width="160" height="50" as="geometry" />
        </mxCell>
        <mxCell id="kCDGDEoed0Y-qL3PlM8Fpb" value="&lt;br&gt;Identity and Access Management (IAM)" style="style=rounded=1;whiteSpace=wrap;html=1;fontFamily=Helvetica;fontStyle=0;verticalAlign=middle;spacing=0;arcSize=4;spacingLeft=2;spacingRight=2;fontSize=12;fillColor=#D5E8D4;strokeColor=#82B366" parent="QNrw7z2RwkjMqDyv-cJb-R" vertex="1">
          <mxGeometry x="570" y="270" width="160" height="50" as="geometry" />
        </mxCell>
        <mxCell id="FRuLWH9FRxL41f-u0D0txa" value="&lt;br&gt;Incident Response and Case Management" style="style=rounded=1;whiteSpace=wrap;html=1;fontFamily=Helvetica;fontStyle=0;verticalAlign=middle;spacing=0;arcSize=4;spacingLeft=2;spacingRight=2;fontSize=12;fillColor=#D5E8D4;strokeColor=#82B366" parent="QNrw7z2RwkjMqDyv-cJb-R" vertex="1">
          <mxGeometry x="570" y="330" width="160" height="50" as="geometry" />
        </mxCell>
        <mxCell id="cGSxGox8cNfASYg60VPMlZ" value="Security Analytics" style="style=rounded=1;whiteSpace=wrap;html=1;fontFamily=Helvetica;fontStyle=0;verticalAlign=middle;spacing=0;arcSize=4;spacingLeft=2;spacingRight=2;fontSize=12;fillColor=#D5E8D4;strokeColor=#82B366" parent="QNrw7z2RwkjMqDyv-cJb-R" vertex="1">
          <mxGeometry x="570" y="390" width="160" height="50" as="geometry" />
        </mxCell>
        <mxCell id="AsAfGMch15VbA61AlsIH7U" value="&lt;br&gt;Security Awareness and Training" style="style=rounded=1;whiteSpace=wrap;html=1;fontFamily=Helvetica;fontStyle=0;verticalAlign=middle;spacing=0;arcSize=4;spacingLeft=2;spacingRight=2;fontSize=12;fillColor=#D5E8D4;strokeColor=#82B366" parent="QNrw7z2RwkjMqDyv-cJb-R" vertex="1">
          <mxGeometry x="740" y="90" width="160" height="50" as="geometry" />
        </mxCell>
        <mxCell id="zjlZh_7vNA6pW_EYZ0oeIU" value="Security Logging" style="style=rounded=1;whiteSpace=wrap;html=1;fontFamily=Helvetica;fontStyle=0;verticalAlign=middle;spacing=0;arcSize=4;spacingLeft=2;spacingRight=2;fontSize=12;fillColor=#D5E8D4;strokeColor=#82B366" parent="QNrw7z2RwkjMqDyv-cJb-R" vertex="1">
          <mxGeometry x="740" y="150" width="160" height="50" as="geometry" />
        </mxCell>
        <mxCell id="zqFP83eQIgL4fIEKo5URIt" value="Security Monitoring" style="style=rounded=1;whiteSpace=wrap;html=1;fontFamily=Helvetica;fontStyle=0;verticalAlign=middle;spacing=0;arcSize=4;spacingLeft=2;spacingRight=2;fontSize=12;fillColor=#D5E8D4;strokeColor=#82B366" parent="QNrw7z2RwkjMqDyv-cJb-R" vertex="1">
          <mxGeometry x="740" y="210" width="160" height="50" as="geometry" />
        </mxCell>
        <mxCell id="kqN458udPC-foqOJCAAVD5" value="&lt;br&gt;Security Orchestration, Automation and Response (SOAR)" style="style=rounded=1;whiteSpace=wrap;html=1;fontFamily=Helvetica;fontStyle=0;verticalAlign=middle;spacing=0;arcSize=4;spacingLeft=2;spacingRight=2;fontSize=12;fillColor=#D5E8D4;strokeColor=#82B366" parent="QNrw7z2RwkjMqDyv-cJb-R" vertex="1">
          <mxGeometry x="740" y="270" width="160" height="50" as="geometry" />
        </mxCell>
        <mxCell id="44jvsiNd2bH3-mUfnGDq4M" value="Shadow IT Monitoring" style="style=rounded=1;whiteSpace=wrap;html=1;fontFamily=Helvetica;fontStyle=0;verticalAlign=middle;spacing=0;arcSize=4;spacingLeft=2;spacingRight=2;fontSize=12;fillColor=#D5E8D4;strokeColor=#82B366" parent="QNrw7z2RwkjMqDyv-cJb-R" vertex="1">
          <mxGeometry x="740" y="330" width="160" height="50" as="geometry" />
        </mxCell>
        <mxCell id="RnKOF0PY4mSL2pG0GxShrs" value="&lt;br&gt;Third Party Risk Management" style="style=rounded=1;whiteSpace=wrap;html=1;fontFamily=Helvetica;fontStyle=0;verticalAlign=middle;spacing=0;arcSize=4;spacingLeft=2;spacingRight=2;fontSize=12;fillColor=#FFF2CC;strokeColor=#D6B656" parent="QNrw7z2RwkjMqDyv-cJb-R" vertex="1">
          <mxGeometry x="740" y="390" width="160" height="50" as="geometry" />
        </mxCell>
        <mxCell id="SimFWJ-4tL_9sQtIoVjf13" value="Threat Hunting" style="style=rounded=1;whiteSpace=wrap;html=1;fontFamily=Helvetica;fontStyle=0;verticalAlign=middle;spacing=0;arcSize=4;spacingLeft=2;spacingRight=2;fontSize=12;fillColor=#D5E8D4;strokeColor=#82B366" parent="QNrw7z2RwkjMqDyv-cJb-R" vertex="1">
          <mxGeometry x="910" y="90" width="160" height="50" as="geometry" />
        </mxCell>
        <mxCell id="XYYW6yaAoxHIjOCQGy_aBl" value="Threat Intelligence" style="style=rounded=1;whiteSpace=wrap;html=1;fontFamily=Helvetica;fontStyle=0;verticalAlign=middle;spacing=0;arcSize=4;spacingLeft=2;spacingRight=2;fontSize=12;fillColor=#D5E8D4;strokeColor=#82B366" parent="QNrw7z2RwkjMqDyv-cJb-R" vertex="1">
          <mxGeometry x="910" y="150" width="160" height="50" as="geometry" />
        </mxCell>
        <mxCell id="DtP9k81BTXbtd1Yyl9K_6E" value="Vulnerability Management" style="style=rounded=1;whiteSpace=wrap;html=1;fontFamily=Helvetica;fontStyle=0;verticalAlign=middle;spacing=0;arcSize=4;spacingLeft=2;spacingRight=2;fontSize=12;fillColor=#FFF2CC;strokeColor=#D6B656" parent="QNrw7z2RwkjMqDyv-cJb-R" vertex="1">
          <mxGeometry x="910" y="210" width="160" height="50" as="geometry" />
        </mxCell>
        <mxCell id="LlAhMCsgevAoBA-rAuj1oz" value="eCrime" style="style=rounded=1;whiteSpace=wrap;html=1;fontFamily=Helvetica;fontStyle=0;verticalAlign=middle;spacing=0;arcSize=4;spacingLeft=2;spacingRight=2;fontSize=12;fillColor=#D5E8D4;strokeColor=#82B366" parent="QNrw7z2RwkjMqDyv-cJb-R" vertex="1">
          <mxGeometry x="910" y="270" width="160" height="50" as="geometry" />
        </mxCell>
        <mxCell id="Pc4xelQvTyBIynZLbJn9Fx" value="Chatbot Apps" style="style=rounded=1;whiteSpace=wrap;html=1;fontFamily=Helvetica;fontStyle=0;verticalAlign=middle;spacing=0;arcSize=4;spacingLeft=2;spacingRight=2;fontSize=12;fillColor=#FFF2CC;strokeColor=#D6B656" parent="QNrw7z2RwkjMqDyv-cJb-R" vertex="1">
          <mxGeometry x="1120" y="90" width="160" height="50" as="geometry" />
        </mxCell>
        <mxCell id="vpGZX_QJpSTx0ulEXeVQGI" value="Internal Apps" style="style=rounded=1;whiteSpace=wrap;html=1;fontFamily=Helvetica;fontStyle=0;verticalAlign=middle;spacing=0;arcSize=4;spacingLeft=2;spacingRight=2;fontSize=12;fillColor=#D5E8D4;strokeColor=#82B366" parent="QNrw7z2RwkjMqDyv-cJb-R" vertex="1">
          <mxGeometry x="1120" y="150" width="160" height="50" as="geometry" />
        </mxCell>
        <mxCell id="w1MF1OZAMzJrw_CG00Q3lq" value="Mobile Apps" style="style=rounded=1;whiteSpace=wrap;html=1;fontFamily=Helvetica;fontStyle=0;verticalAlign=middle;spacing=0;arcSize=4;spacingLeft=2;spacingRight=2;fontSize=12;fillColor=#D5E8D4;strokeColor=#82B366" parent="QNrw7z2RwkjMqDyv-cJb-R" vertex="1">
          <mxGeometry x="1120" y="210" width="160" height="50" as="geometry" />
        </mxCell>
        <mxCell id="kesxxlD5AyL4b39PbvR1LI" value="Online Apps" style="style=rounded=1;whiteSpace=wrap;html=1;fontFamily=Helvetica;fontStyle=0;verticalAlign=middle;spacing=0;arcSize=4;spacingLeft=2;spacingRight=2;fontSize=12;fillColor=#D5E8D4;strokeColor=#82B366" parent="QNrw7z2RwkjMqDyv-cJb-R" vertex="1">
          <mxGeometry x="1120" y="270" width="160" height="50" as="geometry" />
        </mxCell>
        <mxCell id="9zzW8O-jhhEfwDT4v9PM9Y" value="Partner Apps" style="style=rounded=1;whiteSpace=wrap;html=1;fontFamily=Helvetica;fontStyle=0;verticalAlign=middle;spacing=0;arcSize=4;spacingLeft=2;spacingRight=2;fontSize=12;fillColor=#FFF2CC;strokeColor=#D6B656" parent="QNrw7z2RwkjMqDyv-cJb-R" vertex="1">
          <mxGeometry x="1290" y="90" width="160" height="50" as="geometry" />
        </mxCell>
        <mxCell id="bIpNUQp3PBaSO-EI3F1hrd" value="Public Apps" style="style=rounded=1;whiteSpace=wrap;html=1;fontFamily=Helvetica;fontStyle=0;verticalAlign=middle;spacing=0;arcSize=4;spacingLeft=2;spacingRight=2;fontSize=12;fillColor=#FFF2CC;strokeColor=#D6B656" parent="QNrw7z2RwkjMqDyv-cJb-R" vertex="1">
          <mxGeometry x="1290" y="150" width="160" height="50" as="geometry" />
        </mxCell>
        <mxCell id="VdT3WmhVrDSaCjIiOWDv5_" value="Social Media Apps" style="style=rounded=1;whiteSpace=wrap;html=1;fontFamily=Helvetica;fontStyle=0;verticalAlign=middle;spacing=0;arcSize=4;spacingLeft=2;spacingRight=2;fontSize=12;fillColor=#D5E8D4;strokeColor=#82B366" parent="QNrw7z2RwkjMqDyv-cJb-R" vertex="1">
          <mxGeometry x="1290" y="210" width="160" height="50" as="geometry" />
        </mxCell>
        <mxCell id="_ngwjh13IgGBhD9cAkKRsi" value="Voice Assistant Apps" style="style=rounded=1;whiteSpace=wrap;html=1;fontFamily=Helvetica;fontStyle=0;verticalAlign=middle;spacing=0;arcSize=4;spacingLeft=2;spacingRight=2;fontSize=12;fillColor=#F8CECC;strokeColor=#b85450" parent="QNrw7z2RwkjMqDyv-cJb-R" vertex="1">
          <mxGeometry x="1290" y="270" width="160" height="50" as="geometry" />
        </mxCell>
        <mxCell id="rfOjGyTrZg0oMTEf1G5Yu-" value="Corporate Communications" style="style=rounded=1;whiteSpace=wrap;html=1;fontFamily=Helvetica;fontStyle=0;verticalAlign=middle;spacing=0;arcSize=4;spacingLeft=2;spacingRight=2;fontSize=12;fillColor=#D5E8D4;strokeColor=#82B366" parent="QNrw7z2RwkjMqDyv-cJb-R" vertex="1">
          <mxGeometry x="1500" y="90" width="160" height="50" as="geometry" />
        </mxCell>
        <mxCell id="bRjqyq558Uoa_CZQeD4ULx" value="Executive Office" style="style=rounded=1;whiteSpace=wrap;html=1;fontFamily=Helvetica;fontStyle=0;verticalAlign=middle;spacing=0;arcSize=4;spacingLeft=2;spacingRight=2;fontSize=12;fillColor=#D5E8D4;strokeColor=#82B366" parent="QNrw7z2RwkjMqDyv-cJb-R" vertex="1">
          <mxGeometry x="1500" y="150" width="160" height="50" as="geometry" />
        </mxCell>
        <mxCell id="7Ed0utBiiz8ALhStA_mcj8" value="Facilities Management" style="style=rounded=1;whiteSpace=wrap;html=1;fontFamily=Helvetica;fontStyle=0;verticalAlign=middle;spacing=0;arcSize=4;spacingLeft=2;spacingRight=2;fontSize=12;fillColor=#FFF2CC;strokeColor=#D6B656" parent="QNrw7z2RwkjMqDyv-cJb-R" vertex="1">
          <mxGeometry x="1500" y="210" width="160" height="50" as="geometry" />
        </mxCell>
        <mxCell id="sPY1VS9lVpbGIU4e5y4vIG" value="Finance" style="style=rounded=1;whiteSpace=wrap;html=1;fontFamily=Helvetica;fontStyle=0;verticalAlign=middle;spacing=0;arcSize=4;spacingLeft=2;spacingRight=2;fontSize=12;fillColor=#D5E8D4;strokeColor=#82B366" parent="QNrw7z2RwkjMqDyv-cJb-R" vertex="1">
          <mxGeometry x="1500" y="270" width="160" height="50" as="geometry" />
        </mxCell>
        <mxCell id="xi7kMqwa0lOYxG1l2fwOOb" value="Human Resources" style="style=rounded=1;whiteSpace=wrap;html=1;fontFamily=Helvetica;fontStyle=0;verticalAlign=middle;spacing=0;arcSize=4;spacingLeft=2;spacingRight=2;fontSize=12;fillColor=#D5E8D4;strokeColor=#82B366" parent="QNrw7z2RwkjMqDyv-cJb-R" vertex="1">
          <mxGeometry x="1500" y="330" width="160" height="50" as="geometry" />
        </mxCell>
        <mxCell id="0Dh-ykFR2Q63rEsKPd1feo" value="Internal Audit" style="style=rounded=1;whiteSpace=wrap;html=1;fontFamily=Helvetica;fontStyle=0;verticalAlign=middle;spacing=0;arcSize=4;spacingLeft=2;spacingRight=2;fontSize=12;fillColor=#D5E8D4;strokeColor=#82B366" parent="QNrw7z2RwkjMqDyv-cJb-R" vertex="1">
          <mxGeometry x="1670" y="90" width="160" height="50" as="geometry" />
        </mxCell>
        <mxCell id="WzTvLXszrzDzt2bUciL6xc" value="Legal" style="style=rounded=1;whiteSpace=wrap;html=1;fontFamily=Helvetica;fontStyle=0;verticalAlign=middle;spacing=0;arcSize=4;spacingLeft=2;spacingRight=2;fontSize=12;fillColor=#D5E8D4;strokeColor=#82B366" parent="QNrw7z2RwkjMqDyv-cJb-R" vertex="1">
          <mxGeometry x="1670" y="150" width="160" height="50" as="geometry" />
        </mxCell>
        <mxCell id="mWKGjieiU4JuecWC2f0WeM" value="Procurement" style="style=rounded=1;whiteSpace=wrap;html=1;fontFamily=Helvetica;fontStyle=0;verticalAlign=middle;spacing=0;arcSize=4;spacingLeft=2;spacingRight=2;fontSize=12;fillColor=#D5E8D4;strokeColor=#82B366" parent="QNrw7z2RwkjMqDyv-cJb-R" vertex="1">
          <mxGeometry x="1670" y="210" width="160" height="50" as="geometry" />
        </mxCell>
        <mxCell id="72FqFjE1ZTiUZJWEbOkVng" value="Strategy and Planning" style="style=rounded=1;whiteSpace=wrap;html=1;fontFamily=Helvetica;fontStyle=0;verticalAlign=middle;spacing=0;arcSize=4;spacingLeft=2;spacingRight=2;fontSize=12;fillColor=#D5E8D4;strokeColor=#82B366" parent="QNrw7z2RwkjMqDyv-cJb-R" vertex="1">
          <mxGeometry x="1670" y="270" width="160" height="50" as="geometry" />
        </mxCell>
        <mxCell id="bus7vnp9by-nC-Av9AOZRF" value="Travel and Expenses" style="style=rounded=1;whiteSpace=wrap;html=1;fontFamily=Helvetica;fontStyle=0;verticalAlign=middle;spacing=0;arcSize=4;spacingLeft=2;spacingRight=2;fontSize=12;fillColor=#D5E8D4;strokeColor=#82B366" parent="QNrw7z2RwkjMqDyv-cJb-R" vertex="1">
          <mxGeometry x="1670" y="330" width="160" height="50" as="geometry" />
        </mxCell>
        <mxCell id="WdQQDrimdz4w9g0pl9b21h" value="Complaints Handling" style="style=rounded=1;whiteSpace=wrap;html=1;fontFamily=Helvetica;fontStyle=0;verticalAlign=middle;spacing=0;arcSize=4;spacingLeft=2;spacingRight=2;fontSize=12;fillColor=#D5E8D4;strokeColor=#82B366" parent="QNrw7z2RwkjMqDyv-cJb-R" vertex="1">
          <mxGeometry x="20" y="560" width="160" height="50" as="geometry" />
        </mxCell>
        <mxCell id="_IzsmEzIBfNCuYaaiDXeOj" value="&lt;br&gt;Contact Party Administration" style="style=rounded=1;whiteSpace=wrap;html=1;fontFamily=Helvetica;fontStyle=0;verticalAlign=middle;spacing=0;arcSize=4;spacingLeft=2;spacingRight=2;fontSize=12;fillColor=#D5E8D4;strokeColor=#82B366" parent="QNrw7z2RwkjMqDyv-cJb-R" vertex="1">
          <mxGeometry x="20" y="620" width="160" height="50" as="geometry" />
        </mxCell>
        <mxCell id="I2-cctYL5VKkBgaznzkKUQ" value="Customer Acces Entitlement" style="style=rounded=1;whiteSpace=wrap;html=1;fontFamily=Helvetica;fontStyle=0;verticalAlign=middle;spacing=0;arcSize=4;spacingLeft=2;spacingRight=2;fontSize=12;fillColor=#D5E8D4;strokeColor=#82B366" parent="QNrw7z2RwkjMqDyv-cJb-R" vertex="1">
          <mxGeometry x="20" y="680" width="160" height="50" as="geometry" />
        </mxCell>
        <mxCell id="9kNlBAMQ_oTV_rbbHmE71E" value="Customer On-boarding" style="style=rounded=1;whiteSpace=wrap;html=1;fontFamily=Helvetica;fontStyle=0;verticalAlign=middle;spacing=0;arcSize=4;spacingLeft=2;spacingRight=2;fontSize=12;fillColor=#D5E8D4;strokeColor=#82B366" parent="QNrw7z2RwkjMqDyv-cJb-R" vertex="1">
          <mxGeometry x="20" y="740" width="160" height="50" as="geometry" />
        </mxCell>
        <mxCell id="lx_kwnwEXDIxziVAbgyUwY" value="Customer Service" style="style=rounded=1;whiteSpace=wrap;html=1;fontFamily=Helvetica;fontStyle=0;verticalAlign=middle;spacing=0;arcSize=4;spacingLeft=2;spacingRight=2;fontSize=12;fillColor=#D5E8D4;strokeColor=#82B366" parent="QNrw7z2RwkjMqDyv-cJb-R" vertex="1">
          <mxGeometry x="190" y="560" width="160" height="50" as="geometry" />
        </mxCell>
        <mxCell id="9vmwBsRELV2rkGaES5rvjJ" value="Dispute Resolution" style="style=rounded=1;whiteSpace=wrap;html=1;fontFamily=Helvetica;fontStyle=0;verticalAlign=middle;spacing=0;arcSize=4;spacingLeft=2;spacingRight=2;fontSize=12;fillColor=#D5E8D4;strokeColor=#82B366" parent="QNrw7z2RwkjMqDyv-cJb-R" vertex="1">
          <mxGeometry x="190" y="620" width="160" height="50" as="geometry" />
        </mxCell>
        <mxCell id="FXYoNF1aTKlq39HQuWyQCT" value="&lt;br&gt;Relationship and Contact Management" style="style=rounded=1;whiteSpace=wrap;html=1;fontFamily=Helvetica;fontStyle=0;verticalAlign=middle;spacing=0;arcSize=4;spacingLeft=2;spacingRight=2;fontSize=12;fillColor=#D5E8D4;strokeColor=#82B366" parent="QNrw7z2RwkjMqDyv-cJb-R" vertex="1">
          <mxGeometry x="190" y="680" width="160" height="50" as="geometry" />
        </mxCell>
        <mxCell id="7wSlzlrPirkYS1I2aUMjMT" value="Single Customer View" style="style=rounded=1;whiteSpace=wrap;html=1;fontFamily=Helvetica;fontStyle=0;verticalAlign=middle;spacing=0;arcSize=4;spacingLeft=2;spacingRight=2;fontSize=12;fillColor=#D5E8D4;strokeColor=#82B366" parent="QNrw7z2RwkjMqDyv-cJb-R" vertex="1">
          <mxGeometry x="190" y="740" width="160" height="50" as="geometry" />
        </mxCell>
        <mxCell id="Oj2kdcHrsxLp1iLhRoXeuH" value="Advanced Analytics" style="style=rounded=1;whiteSpace=wrap;html=1;fontFamily=Helvetica;fontStyle=0;verticalAlign=middle;spacing=0;arcSize=4;spacingLeft=2;spacingRight=2;fontSize=12;fillColor=#FFF2CC;strokeColor=#D6B656" parent="QNrw7z2RwkjMqDyv-cJb-R" vertex="1">
          <mxGeometry x="400" y="560" width="160" height="50" as="geometry" />
        </mxCell>
        <mxCell id="nE1I1fsEsW2ld2O_zM9Ozt" value="Artificial Intelligence" style="style=rounded=1;whiteSpace=wrap;html=1;fontFamily=Helvetica;fontStyle=0;verticalAlign=middle;spacing=0;arcSize=4;spacingLeft=2;spacingRight=2;fontSize=12;fillColor=#FFF2CC;strokeColor=#D6B656" parent="QNrw7z2RwkjMqDyv-cJb-R" vertex="1">
          <mxGeometry x="400" y="620" width="160" height="50" as="geometry" />
        </mxCell>
        <mxCell id="11oo0p6w46kGEvB0CrX2tn" value="Business Intelligence" style="style=rounded=1;whiteSpace=wrap;html=1;fontFamily=Helvetica;fontStyle=0;verticalAlign=middle;spacing=0;arcSize=4;spacingLeft=2;spacingRight=2;fontSize=12;fillColor=#FFF2CC;strokeColor=#D6B656" parent="QNrw7z2RwkjMqDyv-cJb-R" vertex="1">
          <mxGeometry x="400" y="680" width="160" height="50" as="geometry" />
        </mxCell>
        <mxCell id="blJdr644dsH2BZXIvbfGjF" value="Data Management" style="style=rounded=1;whiteSpace=wrap;html=1;fontFamily=Helvetica;fontStyle=0;verticalAlign=middle;spacing=0;arcSize=4;spacingLeft=2;spacingRight=2;fontSize=12;fillColor=#D5E8D4;strokeColor=#82B366" parent="QNrw7z2RwkjMqDyv-cJb-R" vertex="1">
          <mxGeometry x="570" y="560" width="160" height="50" as="geometry" />
        </mxCell>
        <mxCell id="ofHef8B2S6Q_NuNUEnIHv8" value="Data Warehousing" style="style=rounded=1;whiteSpace=wrap;html=1;fontFamily=Helvetica;fontStyle=0;verticalAlign=middle;spacing=0;arcSize=4;spacingLeft=2;spacingRight=2;fontSize=12;fillColor=#D5E8D4;strokeColor=#82B366" parent="QNrw7z2RwkjMqDyv-cJb-R" vertex="1">
          <mxGeometry x="570" y="620" width="160" height="50" as="geometry" />
        </mxCell>
        <mxCell id="tmyYxFYduWTjtltA_NXVnC" value="Mobile" style="style=rounded=1;whiteSpace=wrap;html=1;fontFamily=Helvetica;fontStyle=0;verticalAlign=middle;spacing=0;arcSize=4;spacingLeft=2;spacingRight=2;fontSize=12;fillColor=#D5E8D4;strokeColor=#82B366" parent="QNrw7z2RwkjMqDyv-cJb-R" vertex="1">
          <mxGeometry x="780" y="560" width="160" height="50" as="geometry" />
        </mxCell>
        <mxCell id="xqaDTeil0TwKYU4f2cYrOZ" value="Social Media" style="style=rounded=1;whiteSpace=wrap;html=1;fontFamily=Helvetica;fontStyle=0;verticalAlign=middle;spacing=0;arcSize=4;spacingLeft=2;spacingRight=2;fontSize=12;fillColor=#D5E8D4;strokeColor=#82B366" parent="QNrw7z2RwkjMqDyv-cJb-R" vertex="1">
          <mxGeometry x="780" y="620" width="160" height="50" as="geometry" />
        </mxCell>
        <mxCell id="l-D3-f3hFPNHv_c2UEw-eg" value="Web" style="style=rounded=1;whiteSpace=wrap;html=1;fontFamily=Helvetica;fontStyle=0;verticalAlign=middle;spacing=0;arcSize=4;spacingLeft=2;spacingRight=2;fontSize=12;fillColor=#D5E8D4;strokeColor=#82B366" parent="QNrw7z2RwkjMqDyv-cJb-R" vertex="1">
          <mxGeometry x="950" y="560" width="160" height="50" as="geometry" />
        </mxCell>
        <mxCell id="l3TTLFNai5x4xmMk5CxTL0" value="Application Architecture" style="style=rounded=1;whiteSpace=wrap;html=1;fontFamily=Helvetica;fontStyle=0;verticalAlign=middle;spacing=0;arcSize=4;spacingLeft=2;spacingRight=2;fontSize=12;fillColor=#D5E8D4;strokeColor=#82B366" parent="QNrw7z2RwkjMqDyv-cJb-R" vertex="1">
          <mxGeometry x="1160" y="560" width="160" height="50" as="geometry" />
        </mxCell>
        <mxCell id="D3wAV2TWTq30vzvHYFyUzS" value="Business Architecture" style="style=rounded=1;whiteSpace=wrap;html=1;fontFamily=Helvetica;fontStyle=0;verticalAlign=middle;spacing=0;arcSize=4;spacingLeft=2;spacingRight=2;fontSize=12;fillColor=#D5E8D4;strokeColor=#82B366" parent="QNrw7z2RwkjMqDyv-cJb-R" vertex="1">
          <mxGeometry x="1160" y="620" width="160" height="50" as="geometry" />
        </mxCell>
        <mxCell id="cVud4SAzdFVlrDk1F0nk25" value="Data Architecture" style="style=rounded=1;whiteSpace=wrap;html=1;fontFamily=Helvetica;fontStyle=0;verticalAlign=middle;spacing=0;arcSize=4;spacingLeft=2;spacingRight=2;fontSize=12;fillColor=#D5E8D4;strokeColor=#82B366" parent="QNrw7z2RwkjMqDyv-cJb-R" vertex="1">
          <mxGeometry x="1160" y="680" width="160" height="50" as="geometry" />
        </mxCell>
        <mxCell id="Jyrr3yBslQvvN1wGFzwS3k" value="Security Architecture" style="style=rounded=1;whiteSpace=wrap;html=1;fontFamily=Helvetica;fontStyle=0;verticalAlign=middle;spacing=0;arcSize=4;spacingLeft=2;spacingRight=2;fontSize=12;fillColor=#D5E8D4;strokeColor=#82B366" parent="QNrw7z2RwkjMqDyv-cJb-R" vertex="1">
          <mxGeometry x="1330" y="560" width="160" height="50" as="geometry" />
        </mxCell>
        <mxCell id="DwzDlMVrwya8L0_pLnECky" value="Technology Architecture" style="style=rounded=1;whiteSpace=wrap;html=1;fontFamily=Helvetica;fontStyle=0;verticalAlign=middle;spacing=0;arcSize=4;spacingLeft=2;spacingRight=2;fontSize=12;fillColor=#FFF2CC;strokeColor=#D6B656" parent="QNrw7z2RwkjMqDyv-cJb-R" vertex="1">
          <mxGeometry x="1330" y="620" width="160" height="50" as="geometry" />
        </mxCell>
        <mxCell id="mIGaVcege-aKFuAztnJ_qu" value="IT Asset Management" style="style=rounded=1;whiteSpace=wrap;html=1;fontFamily=Helvetica;fontStyle=0;verticalAlign=middle;spacing=0;arcSize=4;spacingLeft=2;spacingRight=2;fontSize=12;fillColor=#D5E8D4;strokeColor=#82B366" parent="QNrw7z2RwkjMqDyv-cJb-R" vertex="1">
          <mxGeometry x="1540" y="560" width="160" height="50" as="geometry" />
        </mxCell>
        <mxCell id="ec18H6CP-7jrAC0eTIs7xq" value="IT Financial Management" style="style=rounded=1;whiteSpace=wrap;html=1;fontFamily=Helvetica;fontStyle=0;verticalAlign=middle;spacing=0;arcSize=4;spacingLeft=2;spacingRight=2;fontSize=12;fillColor=#D5E8D4;strokeColor=#82B366" parent="QNrw7z2RwkjMqDyv-cJb-R" vertex="1">
          <mxGeometry x="1540" y="620" width="160" height="50" as="geometry" />
        </mxCell>
        <mxCell id="L-xhkKGv_y8gyBfajeg3Ej" value="IT Procurement" style="style=rounded=1;whiteSpace=wrap;html=1;fontFamily=Helvetica;fontStyle=0;verticalAlign=middle;spacing=0;arcSize=4;spacingLeft=2;spacingRight=2;fontSize=12;fillColor=#D5E8D4;strokeColor=#82B366" parent="QNrw7z2RwkjMqDyv-cJb-R" vertex="1">
          <mxGeometry x="1540" y="680" width="160" height="50" as="geometry" />
        </mxCell>
        <mxCell id="8dt3ge5IYf6gU0xGwtIVIc" value="IT Service Management" style="style=rounded=1;whiteSpace=wrap;html=1;fontFamily=Helvetica;fontStyle=0;verticalAlign=middle;spacing=0;arcSize=4;spacingLeft=2;spacingRight=2;fontSize=12;fillColor=#D5E8D4;strokeColor=#82B366" parent="QNrw7z2RwkjMqDyv-cJb-R" vertex="1">
          <mxGeometry x="1710" y="560" width="160" height="50" as="geometry" />
        </mxCell>
        <mxCell id="eHxzDrp3M3HEn-WQQkz7YO" value="IT Training" style="style=rounded=1;whiteSpace=wrap;html=1;fontFamily=Helvetica;fontStyle=0;verticalAlign=middle;spacing=0;arcSize=4;spacingLeft=2;spacingRight=2;fontSize=12;fillColor=#D5E8D4;strokeColor=#82B366" parent="QNrw7z2RwkjMqDyv-cJb-R" vertex="1">
          <mxGeometry x="1710" y="620" width="160" height="50" as="geometry" />
        </mxCell>
        <mxCell id="hy_-uZXPN8JtUwqzn7Tg66" value="Vendor Management" style="style=rounded=1;whiteSpace=wrap;html=1;fontFamily=Helvetica;fontStyle=0;verticalAlign=middle;spacing=0;arcSize=4;spacingLeft=2;spacingRight=2;fontSize=12;fillColor=#D5E8D4;strokeColor=#82B366" parent="QNrw7z2RwkjMqDyv-cJb-R" vertex="1">
          <mxGeometry x="1710" y="680" width="160" height="50" as="geometry" />
        </mxCell>
        <mxCell id="URezIXuu4P_GDlSXpkl--r" value="Bank Transfers" style="style=rounded=1;whiteSpace=wrap;html=1;fontFamily=Helvetica;fontStyle=0;verticalAlign=middle;spacing=0;arcSize=4;spacingLeft=2;spacingRight=2;fontSize=12;fillColor=#D5E8D4;strokeColor=#82B366" parent="QNrw7z2RwkjMqDyv-cJb-R" vertex="1">
          <mxGeometry x="20" y="910" width="160" height="50" as="geometry" />
        </mxCell>
        <mxCell id="PX6RuHNxd_7HvgyjCwXcPN" value="Card Payments" style="style=rounded=1;whiteSpace=wrap;html=1;fontFamily=Helvetica;fontStyle=0;verticalAlign=middle;spacing=0;arcSize=4;spacingLeft=2;spacingRight=2;fontSize=12;fillColor=#D5E8D4;strokeColor=#82B366" parent="QNrw7z2RwkjMqDyv-cJb-R" vertex="1">
          <mxGeometry x="20" y="970" width="160" height="50" as="geometry" />
        </mxCell>
        <mxCell id="qWhF54oIU_loRFHwuvFlqe" value="Cash Management" style="style=rounded=1;whiteSpace=wrap;html=1;fontFamily=Helvetica;fontStyle=0;verticalAlign=middle;spacing=0;arcSize=4;spacingLeft=2;spacingRight=2;fontSize=12;fillColor=#D5E8D4;strokeColor=#82B366" parent="QNrw7z2RwkjMqDyv-cJb-R" vertex="1">
          <mxGeometry x="20" y="1030" width="160" height="50" as="geometry" />
        </mxCell>
        <mxCell id="_xlGDo9NXmJf0OuDHM5j85" value="Check Processing" style="style=rounded=1;whiteSpace=wrap;html=1;fontFamily=Helvetica;fontStyle=0;verticalAlign=middle;spacing=0;arcSize=4;spacingLeft=2;spacingRight=2;fontSize=12;fillColor=#D5E8D4;strokeColor=#82B366" parent="QNrw7z2RwkjMqDyv-cJb-R" vertex="1">
          <mxGeometry x="20" y="1090" width="160" height="50" as="geometry" />
        </mxCell>
        <mxCell id="AH2-zNpA_Sz8sr-S_npRma" value="Direct Debits" style="style=rounded=1;whiteSpace=wrap;html=1;fontFamily=Helvetica;fontStyle=0;verticalAlign=middle;spacing=0;arcSize=4;spacingLeft=2;spacingRight=2;fontSize=12;fillColor=#FFF2CC;strokeColor=#D6B656" parent="QNrw7z2RwkjMqDyv-cJb-R" vertex="1">
          <mxGeometry x="190" y="910" width="160" height="50" as="geometry" />
        </mxCell>
        <mxCell id="fz7rEFI5WFax2UozRjU97_" value="Merchant Acquiring" style="style=rounded=1;whiteSpace=wrap;html=1;fontFamily=Helvetica;fontStyle=0;verticalAlign=middle;spacing=0;arcSize=4;spacingLeft=2;spacingRight=2;fontSize=12;fillColor=#D5E8D4;strokeColor=#82B366" parent="QNrw7z2RwkjMqDyv-cJb-R" vertex="1">
          <mxGeometry x="190" y="970" width="160" height="50" as="geometry" />
        </mxCell>
        <mxCell id="mqPb0dZ7JRpR6cWCE3ME4O" value="Payment Gateways" style="style=rounded=1;whiteSpace=wrap;html=1;fontFamily=Helvetica;fontStyle=0;verticalAlign=middle;spacing=0;arcSize=4;spacingLeft=2;spacingRight=2;fontSize=12;fillColor=#D5E8D4;strokeColor=#82B366" parent="QNrw7z2RwkjMqDyv-cJb-R" vertex="1">
          <mxGeometry x="190" y="1030" width="160" height="50" as="geometry" />
        </mxCell>
        <mxCell id="YDVLfznUdpwjrS-FmotNPq" value="Billing" style="style=rounded=1;whiteSpace=wrap;html=1;fontFamily=Helvetica;fontStyle=0;verticalAlign=middle;spacing=0;arcSize=4;spacingLeft=2;spacingRight=2;fontSize=12;fillColor=#FFF2CC;strokeColor=#D6B656" parent="QNrw7z2RwkjMqDyv-cJb-R" vertex="1">
          <mxGeometry x="400" y="910" width="160" height="50" as="geometry" />
        </mxCell>
        <mxCell id="ohsJJak915x2DrkHmYqUWp" value="Commissions and Incentives" style="style=rounded=1;whiteSpace=wrap;html=1;fontFamily=Helvetica;fontStyle=0;verticalAlign=middle;spacing=0;arcSize=4;spacingLeft=2;spacingRight=2;fontSize=12;fillColor=#D5E8D4;strokeColor=#82B366" parent="QNrw7z2RwkjMqDyv-cJb-R" vertex="1">
          <mxGeometry x="400" y="970" width="160" height="50" as="geometry" />
        </mxCell>
        <mxCell id="fI50J9rcSEBf4TGuMtNPGa" value="Pricing Engine" style="style=rounded=1;whiteSpace=wrap;html=1;fontFamily=Helvetica;fontStyle=0;verticalAlign=middle;spacing=0;arcSize=4;spacingLeft=2;spacingRight=2;fontSize=12;fillColor=#D5E8D4;strokeColor=#82B366" parent="QNrw7z2RwkjMqDyv-cJb-R" vertex="1">
          <mxGeometry x="400" y="1030" width="160" height="50" as="geometry" />
        </mxCell>
        <mxCell id="hugobVs-_4XmZ7y5hzEhG2" value="Product Catalog" style="style=rounded=1;whiteSpace=wrap;html=1;fontFamily=Helvetica;fontStyle=0;verticalAlign=middle;spacing=0;arcSize=4;spacingLeft=2;spacingRight=2;fontSize=12;fillColor=#D5E8D4;strokeColor=#82B366" parent="QNrw7z2RwkjMqDyv-cJb-R" vertex="1">
          <mxGeometry x="570" y="910" width="160" height="50" as="geometry" />
        </mxCell>
        <mxCell id="U9TBHjI37-A2KS_EVkQryT" value="Product Configuration" style="style=rounded=1;whiteSpace=wrap;html=1;fontFamily=Helvetica;fontStyle=0;verticalAlign=middle;spacing=0;arcSize=4;spacingLeft=2;spacingRight=2;fontSize=12;fillColor=#D5E8D4;strokeColor=#82B366" parent="QNrw7z2RwkjMqDyv-cJb-R" vertex="1">
          <mxGeometry x="570" y="970" width="160" height="50" as="geometry" />
        </mxCell>
        <mxCell id="St26GlUnETrpnSd1iH1jv8" value="Credit Cards" style="style=rounded=1;whiteSpace=wrap;html=1;fontFamily=Helvetica;fontStyle=0;verticalAlign=middle;spacing=0;arcSize=4;spacingLeft=2;spacingRight=2;fontSize=12;fillColor=#D5E8D4;strokeColor=#82B366" parent="QNrw7z2RwkjMqDyv-cJb-R" vertex="1">
          <mxGeometry x="780" y="910" width="160" height="50" as="geometry" />
        </mxCell>
        <mxCell id="G2Fii0jLWGHPl90t5U_fk3" value="Current Accounts" style="style=rounded=1;whiteSpace=wrap;html=1;fontFamily=Helvetica;fontStyle=0;verticalAlign=middle;spacing=0;arcSize=4;spacingLeft=2;spacingRight=2;fontSize=12;fillColor=#D5E8D4;strokeColor=#82B366" parent="QNrw7z2RwkjMqDyv-cJb-R" vertex="1">
          <mxGeometry x="780" y="970" width="160" height="50" as="geometry" />
        </mxCell>
        <mxCell id="jSEMVhtcaH7XsHvMO7EPX4" value="Foreign Exchange" style="style=rounded=1;whiteSpace=wrap;html=1;fontFamily=Helvetica;fontStyle=0;verticalAlign=middle;spacing=0;arcSize=4;spacingLeft=2;spacingRight=2;fontSize=12;fillColor=#D5E8D4;strokeColor=#82B366" parent="QNrw7z2RwkjMqDyv-cJb-R" vertex="1">
          <mxGeometry x="780" y="1030" width="160" height="50" as="geometry" />
        </mxCell>
        <mxCell id="SQE_bbr7m3i8Ngtq7KVlAa" value="Insurance" style="style=rounded=1;whiteSpace=wrap;html=1;fontFamily=Helvetica;fontStyle=0;verticalAlign=middle;spacing=0;arcSize=4;spacingLeft=2;spacingRight=2;fontSize=12;fillColor=#D5E8D4;strokeColor=#82B366" parent="QNrw7z2RwkjMqDyv-cJb-R" vertex="1">
          <mxGeometry x="780" y="1090" width="160" height="50" as="geometry" />
        </mxCell>
        <mxCell id="Lfj0sHtkBLhBQmrneUHpye" value="Investments" style="style=rounded=1;whiteSpace=wrap;html=1;fontFamily=Helvetica;fontStyle=0;verticalAlign=middle;spacing=0;arcSize=4;spacingLeft=2;spacingRight=2;fontSize=12;fillColor=#FFF2CC;strokeColor=#D6B656" parent="QNrw7z2RwkjMqDyv-cJb-R" vertex="1">
          <mxGeometry x="780" y="1150" width="160" height="50" as="geometry" />
        </mxCell>
        <mxCell id="QR2wsrH4ykgwBNB3F42ah7" value="Loans" style="style=rounded=1;whiteSpace=wrap;html=1;fontFamily=Helvetica;fontStyle=0;verticalAlign=middle;spacing=0;arcSize=4;spacingLeft=2;spacingRight=2;fontSize=12;fillColor=#FFF2CC;strokeColor=#D6B656" parent="QNrw7z2RwkjMqDyv-cJb-R" vertex="1">
          <mxGeometry x="950" y="910" width="160" height="50" as="geometry" />
        </mxCell>
        <mxCell id="-V6AuZV30bFMo0Tq4VMZPY" value="Mortgages" style="style=rounded=1;whiteSpace=wrap;html=1;fontFamily=Helvetica;fontStyle=0;verticalAlign=middle;spacing=0;arcSize=4;spacingLeft=2;spacingRight=2;fontSize=12;fillColor=#D5E8D4;strokeColor=#82B366" parent="QNrw7z2RwkjMqDyv-cJb-R" vertex="1">
          <mxGeometry x="950" y="970" width="160" height="50" as="geometry" />
        </mxCell>
        <mxCell id="ihgW5ysj1SaoHSAg46tpUX" value="Pensions" style="style=rounded=1;whiteSpace=wrap;html=1;fontFamily=Helvetica;fontStyle=0;verticalAlign=middle;spacing=0;arcSize=4;spacingLeft=2;spacingRight=2;fontSize=12;fillColor=#D5E8D4;strokeColor=#82B366" parent="QNrw7z2RwkjMqDyv-cJb-R" vertex="1">
          <mxGeometry x="950" y="1030" width="160" height="50" as="geometry" />
        </mxCell>
        <mxCell id="EOo41P60UoLEW1pgy2cYgT" value="Savings Accounts" style="style=rounded=1;whiteSpace=wrap;html=1;fontFamily=Helvetica;fontStyle=0;verticalAlign=middle;spacing=0;arcSize=4;spacingLeft=2;spacingRight=2;fontSize=12;fillColor=#D5E8D4;strokeColor=#82B366" parent="QNrw7z2RwkjMqDyv-cJb-R" vertex="1">
          <mxGeometry x="950" y="1090" width="160" height="50" as="geometry" />
        </mxCell>
        <mxCell id="flmExLrfN37q3WW67TgmwJ" value="Trade Finance" style="style=rounded=1;whiteSpace=wrap;html=1;fontFamily=Helvetica;fontStyle=0;verticalAlign=middle;spacing=0;arcSize=4;spacingLeft=2;spacingRight=2;fontSize=12;fillColor=#D5E8D4;strokeColor=#82B366" parent="QNrw7z2RwkjMqDyv-cJb-R" vertex="1">
          <mxGeometry x="950" y="1150" width="160" height="50" as="geometry" />
        </mxCell>
        <mxCell id="__AS48xrmCcwbaZq9hJmKE" value="&lt;br&gt;Asset and Liability Management" style="style=rounded=1;whiteSpace=wrap;html=1;fontFamily=Helvetica;fontStyle=0;verticalAlign=middle;spacing=0;arcSize=4;spacingLeft=2;spacingRight=2;fontSize=12;fillColor=#D5E8D4;strokeColor=#82B366" parent="QNrw7z2RwkjMqDyv-cJb-R" vertex="1">
          <mxGeometry x="1160" y="910" width="160" height="50" as="geometry" />
        </mxCell>
        <mxCell id="w3h_5pug5cFo5Zmktq2QDo" value="Credit Risk Management" style="style=rounded=1;whiteSpace=wrap;html=1;fontFamily=Helvetica;fontStyle=0;verticalAlign=middle;spacing=0;arcSize=4;spacingLeft=2;spacingRight=2;fontSize=12;fillColor=#D5E8D4;strokeColor=#82B366" parent="QNrw7z2RwkjMqDyv-cJb-R" vertex="1">
          <mxGeometry x="1160" y="970" width="160" height="50" as="geometry" />
        </mxCell>
        <mxCell id="JmFxZxUeW04-qgVhTQCfoa" value="&lt;br&gt;Financial Planning and Analysis" style="style=rounded=1;whiteSpace=wrap;html=1;fontFamily=Helvetica;fontStyle=0;verticalAlign=middle;spacing=0;arcSize=4;spacingLeft=2;spacingRight=2;fontSize=12;fillColor=#D5E8D4;strokeColor=#82B366" parent="QNrw7z2RwkjMqDyv-cJb-R" vertex="1">
          <mxGeometry x="1160" y="1030" width="160" height="50" as="geometry" />
        </mxCell>
        <mxCell id="ARRBuUo09YPd9sMtnpefTr" value="Liquidity Risk Management" style="style=rounded=1;whiteSpace=wrap;html=1;fontFamily=Helvetica;fontStyle=0;verticalAlign=middle;spacing=0;arcSize=4;spacingLeft=2;spacingRight=2;fontSize=12;fillColor=#D5E8D4;strokeColor=#82B366" parent="QNrw7z2RwkjMqDyv-cJb-R" vertex="1">
          <mxGeometry x="1160" y="1090" width="160" height="50" as="geometry" />
        </mxCell>
        <mxCell id="cyXFc1TkefPZszc1Vgm5Kb" value="Management Reporting" style="style=rounded=1;whiteSpace=wrap;html=1;fontFamily=Helvetica;fontStyle=0;verticalAlign=middle;spacing=0;arcSize=4;spacingLeft=2;spacingRight=2;fontSize=12;fillColor=#D5E8D4;strokeColor=#82B366" parent="QNrw7z2RwkjMqDyv-cJb-R" vertex="1">
          <mxGeometry x="1160" y="1150" width="160" height="50" as="geometry" />
        </mxCell>
        <mxCell id="K_RLCFqUtisvm3XzERmZh9" value="Market Risk Management" style="style=rounded=1;whiteSpace=wrap;html=1;fontFamily=Helvetica;fontStyle=0;verticalAlign=middle;spacing=0;arcSize=4;spacingLeft=2;spacingRight=2;fontSize=12;fillColor=#D5E8D4;strokeColor=#82B366" parent="QNrw7z2RwkjMqDyv-cJb-R" vertex="1">
          <mxGeometry x="1330" y="910" width="160" height="50" as="geometry" />
        </mxCell>
        <mxCell id="2Pfhfe6QAT54zq8ttTaSUW" value="&lt;br&gt;Operational Risk Management" style="style=rounded=1;whiteSpace=wrap;html=1;fontFamily=Helvetica;fontStyle=0;verticalAlign=middle;spacing=0;arcSize=4;spacingLeft=2;spacingRight=2;fontSize=12;fillColor=#D5E8D4;strokeColor=#82B366" parent="QNrw7z2RwkjMqDyv-cJb-R" vertex="1">
          <mxGeometry x="1330" y="970" width="160" height="50" as="geometry" />
        </mxCell>
        <mxCell id="qUVxXxQ-OnwuNrzXzAwL4K" value="Profitability Analysis" style="style=rounded=1;whiteSpace=wrap;html=1;fontFamily=Helvetica;fontStyle=0;verticalAlign=middle;spacing=0;arcSize=4;spacingLeft=2;spacingRight=2;fontSize=12;fillColor=#D5E8D4;strokeColor=#82B366" parent="QNrw7z2RwkjMqDyv-cJb-R" vertex="1">
          <mxGeometry x="1330" y="1030" width="160" height="50" as="geometry" />
        </mxCell>
        <mxCell id="kSGblOfnwsuWfx44ug-aEV" value="Regulatory Reporting" style="style=rounded=1;whiteSpace=wrap;html=1;fontFamily=Helvetica;fontStyle=0;verticalAlign=middle;spacing=0;arcSize=4;spacingLeft=2;spacingRight=2;fontSize=12;fillColor=#D5E8D4;strokeColor=#82B366" parent="QNrw7z2RwkjMqDyv-cJb-R" vertex="1">
          <mxGeometry x="1330" y="1090" width="160" height="50" as="geometry" />
        </mxCell>
        <mxCell id="1DYtzc08-_0Emf6BjcF82f" value="Treasury Management" style="style=rounded=1;whiteSpace=wrap;html=1;fontFamily=Helvetica;fontStyle=0;verticalAlign=middle;spacing=0;arcSize=4;spacingLeft=2;spacingRight=2;fontSize=12;fillColor=#FFF2CC;strokeColor=#D6B656" parent="QNrw7z2RwkjMqDyv-cJb-R" vertex="1">
          <mxGeometry x="1330" y="1150" width="160" height="50" as="geometry" />
        </mxCell>
        <mxCell id="po4tuwS5jpCYjbrMmQbw31" value="Account Management" style="style=rounded=1;whiteSpace=wrap;html=1;fontFamily=Helvetica;fontStyle=0;verticalAlign=middle;spacing=0;arcSize=4;spacingLeft=2;spacingRight=2;fontSize=12;fillColor=#D5E8D4;strokeColor=#82B366" parent="QNrw7z2RwkjMqDyv-cJb-R" vertex="1">
          <mxGeometry x="1540" y="910" width="160" height="50" as="geometry" />
        </mxCell>
        <mxCell id="Hr7ZkDTiOcrDQhGuwYO8vZ" value="Campaign Management" style="style=rounded=1;whiteSpace=wrap;html=1;fontFamily=Helvetica;fontStyle=0;verticalAlign=middle;spacing=0;arcSize=4;spacingLeft=2;spacingRight=2;fontSize=12;fillColor=#D5E8D4;strokeColor=#82B366" parent="QNrw7z2RwkjMqDyv-cJb-R" vertex="1">
          <mxGeometry x="1540" y="970" width="160" height="50" as="geometry" />
        </mxCell>
        <mxCell id="XziHzBAvBx2NIJLcYwYZNy" value="Contact Center" style="style=rounded=1;whiteSpace=wrap;html=1;fontFamily=Helvetica;fontStyle=0;verticalAlign=middle;spacing=0;arcSize=4;spacingLeft=2;spacingRight=2;fontSize=12;fillColor=#D5E8D4;strokeColor=#82B366" parent="QNrw7z2RwkjMqDyv-cJb-R" vertex="1">
          <mxGeometry x="1540" y="1030" width="160" height="50" as="geometry" />
        </mxCell>
        <mxCell id="rpvS-wMj0V0-hpIDenCRmx" value="Lead Management" style="style=rounded=1;whiteSpace=wrap;html=1;fontFamily=Helvetica;fontStyle=0;verticalAlign=middle;spacing=0;arcSize=4;spacingLeft=2;spacingRight=2;fontSize=12;fillColor=#D5E8D4;strokeColor=#82B366" parent="QNrw7z2RwkjMqDyv-cJb-R" vertex="1">
          <mxGeometry x="1710" y="910" width="160" height="50" as="geometry" />
        </mxCell>
        <mxCell id="hj44TKl9JVHPIojEe_EUwO" value="Opportunity Management" style="style=rounded=1;whiteSpace=wrap;html=1;fontFamily=Helvetica;fontStyle=0;verticalAlign=middle;spacing=0;arcSize=4;spacingLeft=2;spacingRight=2;fontSize=12;fillColor=#FFF2CC;strokeColor=#D6B656" parent="QNrw7z2RwkjMqDyv-cJb-R" vertex="1">
          <mxGeometry x="1710" y="970" width="160" height="50" as="geometry" />
        </mxCell>
        <mxCell id="JMWa507SUXdxjddM155XRw" value="Cash Management" style="style=rounded=1;whiteSpace=wrap;html=1;fontFamily=Helvetica;fontStyle=0;verticalAlign=middle;spacing=0;arcSize=4;spacingLeft=2;spacingRight=2;fontSize=12;fillColor=#D5E8D4;strokeColor=#82B366" parent="QNrw7z2RwkjMqDyv-cJb-R" vertex="1">
          <mxGeometry x="20" y="1320" width="160" height="50" as="geometry" />
        </mxCell>
        <mxCell id="kOhH3Oh7La9GnuH3l4iCRE" value="Liquidity Management" style="style=rounded=1;whiteSpace=wrap;html=1;fontFamily=Helvetica;fontStyle=0;verticalAlign=middle;spacing=0;arcSize=4;spacingLeft=2;spacingRight=2;fontSize=12;fillColor=#D5E8D4;strokeColor=#82B366" parent="QNrw7z2RwkjMqDyv-cJb-R" vertex="1">
          <mxGeometry x="20" y="1380" width="160" height="50" as="geometry" />
        </mxCell>
        <mxCell id="XS8PG-bEEuOzQ7SrqktYJs" value="Payments and Collections" style="style=rounded=1;whiteSpace=wrap;html=1;fontFamily=Helvetica;fontStyle=0;verticalAlign=middle;spacing=0;arcSize=4;spacingLeft=2;spacingRight=2;fontSize=12;fillColor=#D5E8D4;strokeColor=#82B366" parent="QNrw7z2RwkjMqDyv-cJb-R" vertex="1">
          <mxGeometry x="20" y="1440" width="160" height="50" as="geometry" />
        </mxCell>
        <mxCell id="kVc8E_40mNjFSN2G8lrxlN" value="Supply Chain Finance" style="style=rounded=1;whiteSpace=wrap;html=1;fontFamily=Helvetica;fontStyle=0;verticalAlign=middle;spacing=0;arcSize=4;spacingLeft=2;spacingRight=2;fontSize=12;fillColor=#D5E8D4;strokeColor=#82B366" parent="QNrw7z2RwkjMqDyv-cJb-R" vertex="1">
          <mxGeometry x="190" y="1320" width="160" height="50" as="geometry" />
        </mxCell>
        <mxCell id="wsEVEAQ0elK4W5n9-FmsZW" value="Trade Finance" style="style=rounded=1;whiteSpace=wrap;html=1;fontFamily=Helvetica;fontStyle=0;verticalAlign=middle;spacing=0;arcSize=4;spacingLeft=2;spacingRight=2;fontSize=12;fillColor=#FFF2CC;strokeColor=#D6B656" parent="QNrw7z2RwkjMqDyv-cJb-R" vertex="1">
          <mxGeometry x="190" y="1380" width="160" height="50" as="geometry" />
        </mxCell>
        <mxCell id="A3gzXtCJq_3xst3H8LKS08" value="Cash Management" style="style=rounded=1;whiteSpace=wrap;html=1;fontFamily=Helvetica;fontStyle=0;verticalAlign=middle;spacing=0;arcSize=4;spacingLeft=2;spacingRight=2;fontSize=12;fillColor=#D5E8D4;strokeColor=#82B366" parent="QNrw7z2RwkjMqDyv-cJb-R" vertex="1">
          <mxGeometry x="400" y="1320" width="160" height="50" as="geometry" />
        </mxCell>
        <mxCell id="9BhoyRNKH6lbUWiYFBF5eW" value="&lt;br&gt;Debt and Investment Management" style="style=rounded=1;whiteSpace=wrap;html=1;fontFamily=Helvetica;fontStyle=0;verticalAlign=middle;spacing=0;arcSize=4;spacingLeft=2;spacingRight=2;fontSize=12;fillColor=#D5E8D4;strokeColor=#82B366" parent="QNrw7z2RwkjMqDyv-cJb-R" vertex="1">
          <mxGeometry x="400" y="1380" width="160" height="50" as="geometry" />
        </mxCell>
        <mxCell id="uqaQbbmtt8h-JT4bmFi16G" value="Derivatives and Hedging" style="style=rounded=1;whiteSpace=wrap;html=1;fontFamily=Helvetica;fontStyle=0;verticalAlign=middle;spacing=0;arcSize=4;spacingLeft=2;spacingRight=2;fontSize=12;fillColor=#D5E8D4;strokeColor=#82B366" parent="QNrw7z2RwkjMqDyv-cJb-R" vertex="1">
          <mxGeometry x="570" y="1320" width="160" height="50" as="geometry" />
        </mxCell>
        <mxCell id="KpAgYk0NJ768iWPbLLCXXJ" value="Foreign Exchange" style="style=rounded=1;whiteSpace=wrap;html=1;fontFamily=Helvetica;fontStyle=0;verticalAlign=middle;spacing=0;arcSize=4;spacingLeft=2;spacingRight=2;fontSize=12;fillColor=#FFF2CC;strokeColor=#D6B656" parent="QNrw7z2RwkjMqDyv-cJb-R" vertex="1">
          <mxGeometry x="570" y="1380" width="160" height="50" as="geometry" />
        </mxCell>
        <mxCell id="LCb6t0tV5kaOIEDPdb6vPC" value="Brokerage Services" style="style=rounded=1;whiteSpace=wrap;html=1;fontFamily=Helvetica;fontStyle=0;verticalAlign=middle;spacing=0;arcSize=4;spacingLeft=2;spacingRight=2;fontSize=12;fillColor=#FFF2CC;strokeColor=#D6B656" parent="QNrw7z2RwkjMqDyv-cJb-R" vertex="1">
          <mxGeometry x="780" y="1320" width="160" height="50" as="geometry" />
        </mxCell>
        <mxCell id="tEQioiw6Ol8JZ_xHHooxYv" value="Financial Planning" style="style=rounded=1;whiteSpace=wrap;html=1;fontFamily=Helvetica;fontStyle=0;verticalAlign=middle;spacing=0;arcSize=4;spacingLeft=2;spacingRight=2;fontSize=12;fillColor=#D5E8D4;strokeColor=#82B366" parent="QNrw7z2RwkjMqDyv-cJb-R" vertex="1">
          <mxGeometry x="780" y="1380" width="160" height="50" as="geometry" />
        </mxCell>
        <mxCell id="1Aa4U5cfHs8BUzaAjxZRzV" value="Investment Research" style="style=rounded=1;whiteSpace=wrap;html=1;fontFamily=Helvetica;fontStyle=0;verticalAlign=middle;spacing=0;arcSize=4;spacingLeft=2;spacingRight=2;fontSize=12;fillColor=#D5E8D4;strokeColor=#82B366" parent="QNrw7z2RwkjMqDyv-cJb-R" vertex="1">
          <mxGeometry x="780" y="1440" width="160" height="50" as="geometry" />
        </mxCell>
        <mxCell id="GozJvh5Sd87UO3vKkWVYWR" value="Portfolio Management" style="style=rounded=1;whiteSpace=wrap;html=1;fontFamily=Helvetica;fontStyle=0;verticalAlign=middle;spacing=0;arcSize=4;spacingLeft=2;spacingRight=2;fontSize=12;fillColor=#D5E8D4;strokeColor=#82B366" parent="QNrw7z2RwkjMqDyv-cJb-R" vertex="1">
          <mxGeometry x="950" y="1320" width="160" height="50" as="geometry" />
        </mxCell>
        <mxCell id="w3M56M6dRXpHtWuyPl8thg" value="&lt;br&gt;Trust and Fiduciary Services" style="style=rounded=1;whiteSpace=wrap;html=1;fontFamily=Helvetica;fontStyle=0;verticalAlign=middle;spacing=0;arcSize=4;spacingLeft=2;spacingRight=2;fontSize=12;fillColor=#D5E8D4;strokeColor=#82B366" parent="QNrw7z2RwkjMqDyv-cJb-R" vertex="1">
          <mxGeometry x="950" y="1380" width="160" height="50" as="geometry" />
        </mxCell>
        <mxCell id="doIdyZ2QsrTsuRKof_k1Vm" value="Commercial Banking" style="style=rounded=1;whiteSpace=wrap;html=1;fontFamily=Helvetica;fontStyle=0;verticalAlign=middle;spacing=0;arcSize=4;spacingLeft=2;spacingRight=2;fontSize=12;fillColor=#D5E8D4;strokeColor=#82B366" parent="QNrw7z2RwkjMqDyv-cJb-R" vertex="1">
          <mxGeometry x="1160" y="1320" width="160" height="50" as="geometry" />
        </mxCell>
        <mxCell id="WpP-h9xXmL77JAuin8IhqJ" value="Corporate Banking" style="style=rounded=1;whiteSpace=wrap;html=1;fontFamily=Helvetica;fontStyle=0;verticalAlign=middle;spacing=0;arcSize=4;spacingLeft=2;spacingRight=2;fontSize=12;fillColor=#D5E8D4;strokeColor=#82B366" parent="QNrw7z2RwkjMqDyv-cJb-R" vertex="1">
          <mxGeometry x="1160" y="1380" width="160" height="50" as="geometry" />
        </mxCell>
        <mxCell id="ZNtD_tFf4qe8sM8GvyLa8V" value="Investment Banking" style="style=rounded=1;whiteSpace=wrap;html=1;fontFamily=Helvetica;fontStyle=0;verticalAlign=middle;spacing=0;arcSize=4;spacingLeft=2;spacingRight=2;fontSize=12;fillColor=#D5E8D4;strokeColor=#82B366" parent="QNrw7z2RwkjMqDyv-cJb-R" vertex="1">
          <mxGeometry x="1160" y="1440" width="160" height="50" as="geometry" />
        </mxCell>
        <mxCell id="pRt6mJUlWazpq_JNVZotkR" value="Structured Finance" style="style=rounded=1;whiteSpace=wrap;html=1;fontFamily=Helvetica;fontStyle=0;verticalAlign=middle;spacing=0;arcSize=4;spacingLeft=2;spacingRight=2;fontSize=12;fillColor=#D5E8D4;strokeColor=#82B366" parent="QNrw7z2RwkjMqDyv-cJb-R" vertex="1">
          <mxGeometry x="1330" y="1320" width="160" height="50" as="geometry" />
        </mxCell>
        <mxCell id="imXInbgVcJtCPgkljzpmFw" value="Syndicated Lending" style="style=rounded=1;whiteSpace=wrap;html=1;fontFamily=Helvetica;fontStyle=0;verticalAlign=middle;spacing=0;arcSize=4;spacingLeft=2;spacingRight=2;fontSize=12;fillColor=#D5E8D4;strokeColor=#82B366" parent="QNrw7z2RwkjMqDyv-cJb-R" vertex="1">
          <mxGeometry x="1330" y="1380" width="160" height="50" as="geometry" />
        </mxCell>
        <mxCell id="mfZuLShsVGuXqhie5Gay5d" value="Controls" style="locked=1" parent="0" />
        <mxCell id="2U9Jb4rN0N8h6tTeWzaLLM" value="Resilience" style="locked=1" parent="0" />
        <mxCell id="JYFtWe6PK0wbyfxGnrgxQp" value="Hosting" style="locked=1" parent="0" />
        <mxCell id="3X5qMLPD_1KzYp5pOIrciN" value="Metrics" style="locked=1" parent="0" />
        <mxCell id="5JwdctCJn4qbrOevUoQApG" value="TransactionCycle" style="locked=1" parent="0" />
        <mxCell id="IzTbZ65Hkq9EHwjbJswdzY" value="CO01" style="text;html=1;strokeColor=none;fillColor=none;align=center;verticalAlign=middle;whiteSpace=wrap;rounded=0;labelBackgroundColor=none;fontFamily=Helvetica;fontStyle=1;fontSize=12;fontColor=#333333;" parent="5JwdctCJn4qbrOevUoQApG" vertex="1">
          <mxGeometry x="20" y="90" width="60" height="20" as="geometry" />
        </mxCell>
        <mxCell id="fkFqS1lEeSLGmsKWxc7h5Z" value="CO11" style="text;html=1;strokeColor=none;fillColor=none;align=center;verticalAlign=middle;whiteSpace=wrap;rounded=0;labelBackgroundColor=none;fontFamily=Helvetica;fontStyle=1;fontSize=12;fontColor=#333333;" parent="5JwdctCJn4qbrOevUoQApG" vertex="1">
          <mxGeometry x="20" y="150" width="60" height="20" as="geometry" />
        </mxCell>
        <mxCell id="WEzdncavVpLSpd3x60TSVQ" value="CO10" style="text;html=1;strokeColor=none;fillColor=none;align=center;verticalAlign=middle;whiteSpace=wrap;rounded=0;labelBackgroundColor=none;fontFamily=Helvetica;fontStyle=1;fontSize=12;fontColor=#333333;" parent="5JwdctCJn4qbrOevUoQApG" vertex="1">
          <mxGeometry x="20" y="210" width="60" height="20" as="geometry" />
        </mxCell>
        <mxCell id="xbiEl34t7AYK3LbwqxBQIm" value="CO08 " style="text;html=1;strokeColor=none;fillColor=none;align=center;verticalAlign=middle;whiteSpace=wrap;rounded=0;labelBackgroundColor=none;fontFamily=Helvetica;fontStyle=1;fontSize=12;fontColor=#333333;" parent="5JwdctCJn4qbrOevUoQApG" vertex="1">
          <mxGeometry x="20" y="270" width="60" height="20" as="geometry" />
        </mxCell>
        <mxCell id="RUE5f6LiCah7SG6QvpzVtv" value="CO02" style="text;html=1;strokeColor=none;fillColor=none;align=center;verticalAlign=middle;whiteSpace=wrap;rounded=0;labelBackgroundColor=none;fontFamily=Helvetica;fontStyle=1;fontSize=12;fontColor=#333333;" parent="5JwdctCJn4qbrOevUoQApG" vertex="1">
          <mxGeometry x="20" y="330" width="60" height="20" as="geometry" />
        </mxCell>
        <mxCell id="T0llS2PIULx2p4iOQWOv8P" value="CO07 " style="text;html=1;strokeColor=none;fillColor=none;align=center;verticalAlign=middle;whiteSpace=wrap;rounded=0;labelBackgroundColor=none;fontFamily=Helvetica;fontStyle=1;fontSize=12;fontColor=#333333;" parent="5JwdctCJn4qbrOevUoQApG" vertex="1">
          <mxGeometry x="190" y="90" width="60" height="20" as="geometry" />
        </mxCell>
        <mxCell id="nkb2wa-V4fyNOIEBDNdVYF" value="CO06 " style="text;html=1;strokeColor=none;fillColor=none;align=center;verticalAlign=middle;whiteSpace=wrap;rounded=0;labelBackgroundColor=none;fontFamily=Helvetica;fontStyle=1;fontSize=12;fontColor=#333333;" parent="5JwdctCJn4qbrOevUoQApG" vertex="1">
          <mxGeometry x="190" y="150" width="60" height="20" as="geometry" />
        </mxCell>
        <mxCell id="ZK1DkRwNq54V8XB_erf95y" value="CO04 " style="text;html=1;strokeColor=none;fillColor=none;align=center;verticalAlign=middle;whiteSpace=wrap;rounded=0;labelBackgroundColor=none;fontFamily=Helvetica;fontStyle=1;fontSize=12;fontColor=#333333;" parent="5JwdctCJn4qbrOevUoQApG" vertex="1">
          <mxGeometry x="190" y="210" width="60" height="20" as="geometry" />
        </mxCell>
        <mxCell id="hP9yK_47TYX1ithAdTaM3U" value="CO09" style="text;html=1;strokeColor=none;fillColor=none;align=center;verticalAlign=middle;whiteSpace=wrap;rounded=0;labelBackgroundColor=none;fontFamily=Helvetica;fontStyle=1;fontSize=12;fontColor=#333333;" parent="5JwdctCJn4qbrOevUoQApG" vertex="1">
          <mxGeometry x="190" y="270" width="60" height="20" as="geometry" />
        </mxCell>
        <mxCell id="pKIrlQ27Z9aAl39vyM1uNl" value="CO12" style="text;html=1;strokeColor=none;fillColor=none;align=center;verticalAlign=middle;whiteSpace=wrap;rounded=0;labelBackgroundColor=none;fontFamily=Helvetica;fontStyle=1;fontSize=12;fontColor=#333333;" parent="5JwdctCJn4qbrOevUoQApG" vertex="1">
          <mxGeometry x="190" y="330" width="60" height="20" as="geometry" />
        </mxCell>
        <mxCell id="G_l_a_aUSFqGyOF3v-HhRd" value="CO03" style="text;html=1;strokeColor=none;fillColor=none;align=center;verticalAlign=middle;whiteSpace=wrap;rounded=0;labelBackgroundColor=none;fontFamily=Helvetica;fontStyle=1;fontSize=12;fontColor=#333333;" parent="5JwdctCJn4qbrOevUoQApG" vertex="1">
          <mxGeometry x="360" y="90" width="60" height="20" as="geometry" />
        </mxCell>
        <mxCell id="xnINJqF_MpvLMZmpjEu-pX" value="CO05 " style="text;html=1;strokeColor=none;fillColor=none;align=center;verticalAlign=middle;whiteSpace=wrap;rounded=0;labelBackgroundColor=none;fontFamily=Helvetica;fontStyle=1;fontSize=12;fontColor=#333333;" parent="5JwdctCJn4qbrOevUoQApG" vertex="1">
          <mxGeometry x="360" y="150" width="60" height="20" as="geometry" />
        </mxCell>
        <mxCell id="WtM39C7b2QqoD4_3s2aA-J" value="CO03-01 " style="text;html=1;strokeColor=none;fillColor=none;align=center;verticalAlign=middle;whiteSpace=wrap;rounded=0;labelBackgroundColor=none;fontFamily=Helvetica;fontStyle=1;fontSize=12;fontColor=#333333;" parent="5JwdctCJn4qbrOevUoQApG" vertex="1">
          <mxGeometry x="360" y="210" width="60" height="20" as="geometry" />
        </mxCell>
        <mxCell id="tfcbgr-RJyRoTbge9VYpd8" value="IS07-01" style="text;html=1;strokeColor=none;fillColor=none;align=center;verticalAlign=middle;whiteSpace=wrap;rounded=0;labelBackgroundColor=none;fontFamily=Helvetica;fontStyle=1;fontSize=12;fontColor=#333333;" parent="5JwdctCJn4qbrOevUoQApG" vertex="1">
          <mxGeometry x="570" y="90" width="60" height="20" as="geometry" />
        </mxCell>
        <mxCell id="PO8balNMZns0AZFe4KlNq6" value="IS07-03" style="text;html=1;strokeColor=none;fillColor=none;align=center;verticalAlign=middle;whiteSpace=wrap;rounded=0;labelBackgroundColor=none;fontFamily=Helvetica;fontStyle=1;fontSize=12;fontColor=#333333;" parent="5JwdctCJn4qbrOevUoQApG" vertex="1">
          <mxGeometry x="570" y="150" width="60" height="20" as="geometry" />
        </mxCell>
        <mxCell id="YkKulcAZc_Phh8F3bkpVIh" value="IS07-04" style="text;html=1;strokeColor=none;fillColor=none;align=center;verticalAlign=middle;whiteSpace=wrap;rounded=0;labelBackgroundColor=none;fontFamily=Helvetica;fontStyle=1;fontSize=12;fontColor=#333333;" parent="5JwdctCJn4qbrOevUoQApG" vertex="1">
          <mxGeometry x="570" y="210" width="60" height="20" as="geometry" />
        </mxCell>
        <mxCell id="-AhmYV1Jr5MR6kGfQIfAe6" value="IS07-02" style="text;html=1;strokeColor=none;fillColor=none;align=center;verticalAlign=middle;whiteSpace=wrap;rounded=0;labelBackgroundColor=none;fontFamily=Helvetica;fontStyle=1;fontSize=12;fontColor=#333333;" parent="5JwdctCJn4qbrOevUoQApG" vertex="1">
          <mxGeometry x="570" y="270" width="60" height="20" as="geometry" />
        </mxCell>
        <mxCell id="_pkIG4cZvIzBdM_Ugkh9EQ" value="IS07-06" style="text;html=1;strokeColor=none;fillColor=none;align=center;verticalAlign=middle;whiteSpace=wrap;rounded=0;labelBackgroundColor=none;fontFamily=Helvetica;fontStyle=1;fontSize=12;fontColor=#333333;" parent="5JwdctCJn4qbrOevUoQApG" vertex="1">
          <mxGeometry x="570" y="330" width="60" height="20" as="geometry" />
        </mxCell>
        <mxCell id="qL2CTxYRE7nJX97wBbLh1p" value="IS07-07" style="text;html=1;strokeColor=none;fillColor=none;align=center;verticalAlign=middle;whiteSpace=wrap;rounded=0;labelBackgroundColor=none;fontFamily=Helvetica;fontStyle=1;fontSize=12;fontColor=#333333;" parent="5JwdctCJn4qbrOevUoQApG" vertex="1">
          <mxGeometry x="570" y="390" width="60" height="20" as="geometry" />
        </mxCell>
        <mxCell id="ZblszPBpsgEZUWz3-DKWNY" value="IS07-14" style="text;html=1;strokeColor=none;fillColor=none;align=center;verticalAlign=middle;whiteSpace=wrap;rounded=0;labelBackgroundColor=none;fontFamily=Helvetica;fontStyle=1;fontSize=12;fontColor=#333333;" parent="5JwdctCJn4qbrOevUoQApG" vertex="1">
          <mxGeometry x="740" y="90" width="60" height="20" as="geometry" />
        </mxCell>
        <mxCell id="2VWOxxlwVXLhLlWbQhNPJX" value="IS07-08" style="text;html=1;strokeColor=none;fillColor=none;align=center;verticalAlign=middle;whiteSpace=wrap;rounded=0;labelBackgroundColor=none;fontFamily=Helvetica;fontStyle=1;fontSize=12;fontColor=#333333;" parent="5JwdctCJn4qbrOevUoQApG" vertex="1">
          <mxGeometry x="740" y="150" width="60" height="20" as="geometry" />
        </mxCell>
        <mxCell id="mwXUwxE9drDyILxPLQGKlD" value="IS07-09" style="text;html=1;strokeColor=none;fillColor=none;align=center;verticalAlign=middle;whiteSpace=wrap;rounded=0;labelBackgroundColor=none;fontFamily=Helvetica;fontStyle=1;fontSize=12;fontColor=#333333;" parent="5JwdctCJn4qbrOevUoQApG" vertex="1">
          <mxGeometry x="740" y="210" width="60" height="20" as="geometry" />
        </mxCell>
        <mxCell id="sgofwxDMx169Ac70hWEgVi" value="IS07-10" style="text;html=1;strokeColor=none;fillColor=none;align=center;verticalAlign=middle;whiteSpace=wrap;rounded=0;labelBackgroundColor=none;fontFamily=Helvetica;fontStyle=1;fontSize=12;fontColor=#333333;" parent="5JwdctCJn4qbrOevUoQApG" vertex="1">
          <mxGeometry x="740" y="270" width="60" height="20" as="geometry" />
        </mxCell>
        <mxCell id="Nx0WlzaxZ-YPB7UY9kP0LB" value="IS07-11" style="text;html=1;strokeColor=none;fillColor=none;align=center;verticalAlign=middle;whiteSpace=wrap;rounded=0;labelBackgroundColor=none;fontFamily=Helvetica;fontStyle=1;fontSize=12;fontColor=#333333;" parent="5JwdctCJn4qbrOevUoQApG" vertex="1">
          <mxGeometry x="740" y="330" width="60" height="20" as="geometry" />
        </mxCell>
        <mxCell id="9oWLWOsm0_NrtohHmZDSWI" value="IS07-15" style="text;html=1;strokeColor=none;fillColor=none;align=center;verticalAlign=middle;whiteSpace=wrap;rounded=0;labelBackgroundColor=none;fontFamily=Helvetica;fontStyle=1;fontSize=12;fontColor=#333333;" parent="5JwdctCJn4qbrOevUoQApG" vertex="1">
          <mxGeometry x="740" y="390" width="60" height="20" as="geometry" />
        </mxCell>
        <mxCell id="73ItQfasYXzr5gzHvSsQz4" value="IS07-12" style="text;html=1;strokeColor=none;fillColor=none;align=center;verticalAlign=middle;whiteSpace=wrap;rounded=0;labelBackgroundColor=none;fontFamily=Helvetica;fontStyle=1;fontSize=12;fontColor=#333333;" parent="5JwdctCJn4qbrOevUoQApG" vertex="1">
          <mxGeometry x="910" y="90" width="60" height="20" as="geometry" />
        </mxCell>
        <mxCell id="3ralKy648xE8u-G9vfi3sg" value="IS07-13" style="text;html=1;strokeColor=none;fillColor=none;align=center;verticalAlign=middle;whiteSpace=wrap;rounded=0;labelBackgroundColor=none;fontFamily=Helvetica;fontStyle=1;fontSize=12;fontColor=#333333;" parent="5JwdctCJn4qbrOevUoQApG" vertex="1">
          <mxGeometry x="910" y="150" width="60" height="20" as="geometry" />
        </mxCell>
        <mxCell id="G0PkcMGvkMMswJI5g89srG" value="IS07-13" style="text;html=1;strokeColor=none;fillColor=none;align=center;verticalAlign=middle;whiteSpace=wrap;rounded=0;labelBackgroundColor=none;fontFamily=Helvetica;fontStyle=1;fontSize=12;fontColor=#333333;" parent="5JwdctCJn4qbrOevUoQApG" vertex="1">
          <mxGeometry x="910" y="210" width="60" height="20" as="geometry" />
        </mxCell>
        <mxCell id="BzdP64s3Nen211vTQbBR0H" value="IS07-05" style="text;html=1;strokeColor=none;fillColor=none;align=center;verticalAlign=middle;whiteSpace=wrap;rounded=0;labelBackgroundColor=none;fontFamily=Helvetica;fontStyle=1;fontSize=12;fontColor=#333333;" parent="5JwdctCJn4qbrOevUoQApG" vertex="1">
          <mxGeometry x="910" y="270" width="60" height="20" as="geometry" />
        </mxCell>
        <mxCell id="5RSwqIwqXiNFwlxhliVfZu" value="AP15 " style="text;html=1;strokeColor=none;fillColor=none;align=center;verticalAlign=middle;whiteSpace=wrap;rounded=0;labelBackgroundColor=none;fontFamily=Helvetica;fontStyle=1;fontSize=12;fontColor=#333333;" parent="5JwdctCJn4qbrOevUoQApG" vertex="1">
          <mxGeometry x="1120" y="90" width="60" height="20" as="geometry" />
        </mxCell>
        <mxCell id="3ls2q_GiVzyd-ltRd62p6-" value="AP09 " style="text;html=1;strokeColor=none;fillColor=none;align=center;verticalAlign=middle;whiteSpace=wrap;rounded=0;labelBackgroundColor=none;fontFamily=Helvetica;fontStyle=1;fontSize=12;fontColor=#333333;" parent="5JwdctCJn4qbrOevUoQApG" vertex="1">
          <mxGeometry x="1120" y="150" width="60" height="20" as="geometry" />
        </mxCell>
        <mxCell id="wYpnKpw-DGzpKkMU-cDieA" value="AP05" style="text;html=1;strokeColor=none;fillColor=none;align=center;verticalAlign=middle;whiteSpace=wrap;rounded=0;labelBackgroundColor=none;fontFamily=Helvetica;fontStyle=1;fontSize=12;fontColor=#333333;" parent="5JwdctCJn4qbrOevUoQApG" vertex="1">
          <mxGeometry x="1120" y="210" width="60" height="20" as="geometry" />
        </mxCell>
        <mxCell id="S7Lzmi4GyPlP8iVWqFQwx0" value="AP03" style="text;html=1;strokeColor=none;fillColor=none;align=center;verticalAlign=middle;whiteSpace=wrap;rounded=0;labelBackgroundColor=none;fontFamily=Helvetica;fontStyle=1;fontSize=12;fontColor=#333333;" parent="5JwdctCJn4qbrOevUoQApG" vertex="1">
          <mxGeometry x="1120" y="270" width="60" height="20" as="geometry" />
        </mxCell>
        <mxCell id="SeHZkgyLXzMydeaxWO1Y2O" value="AP11 " style="text;html=1;strokeColor=none;fillColor=none;align=center;verticalAlign=middle;whiteSpace=wrap;rounded=0;labelBackgroundColor=none;fontFamily=Helvetica;fontStyle=1;fontSize=12;fontColor=#333333;" parent="5JwdctCJn4qbrOevUoQApG" vertex="1">
          <mxGeometry x="1290" y="90" width="60" height="20" as="geometry" />
        </mxCell>
        <mxCell id="gJGMsl7fbbbn3k4IgcCnle" value="AP13 " style="text;html=1;strokeColor=none;fillColor=none;align=center;verticalAlign=middle;whiteSpace=wrap;rounded=0;labelBackgroundColor=none;fontFamily=Helvetica;fontStyle=1;fontSize=12;fontColor=#333333;" parent="5JwdctCJn4qbrOevUoQApG" vertex="1">
          <mxGeometry x="1290" y="150" width="60" height="20" as="geometry" />
        </mxCell>
        <mxCell id="x-bIS0UG376Pv8vktJOnTq" value="AP07" style="text;html=1;strokeColor=none;fillColor=none;align=center;verticalAlign=middle;whiteSpace=wrap;rounded=0;labelBackgroundColor=none;fontFamily=Helvetica;fontStyle=1;fontSize=12;fontColor=#333333;" parent="5JwdctCJn4qbrOevUoQApG" vertex="1">
          <mxGeometry x="1290" y="210" width="60" height="20" as="geometry" />
        </mxCell>
        <mxCell id="3qa4VI8gIxCAgVpEz3vi_t" value="AP17" style="text;html=1;strokeColor=none;fillColor=none;align=center;verticalAlign=middle;whiteSpace=wrap;rounded=0;labelBackgroundColor=none;fontFamily=Helvetica;fontStyle=1;fontSize=12;fontColor=#333333;" parent="5JwdctCJn4qbrOevUoQApG" vertex="1">
          <mxGeometry x="1290" y="270" width="60" height="20" as="geometry" />
        </mxCell>
        <mxCell id="_yK_mayJuLFvGOTI23zMMe" value="CS08" style="text;html=1;strokeColor=none;fillColor=none;align=center;verticalAlign=middle;whiteSpace=wrap;rounded=0;labelBackgroundColor=none;fontFamily=Helvetica;fontStyle=1;fontSize=12;fontColor=#333333;" parent="5JwdctCJn4qbrOevUoQApG" vertex="1">
          <mxGeometry x="1500" y="90" width="60" height="20" as="geometry" />
        </mxCell>
        <mxCell id="zsUBwj4_a3dV2EFEC2-k_0" value="CS09" style="text;html=1;strokeColor=none;fillColor=none;align=center;verticalAlign=middle;whiteSpace=wrap;rounded=0;labelBackgroundColor=none;fontFamily=Helvetica;fontStyle=1;fontSize=12;fontColor=#333333;" parent="5JwdctCJn4qbrOevUoQApG" vertex="1">
          <mxGeometry x="1500" y="150" width="60" height="20" as="geometry" />
        </mxCell>
        <mxCell id="ISlhMX6WPw3z1VQAPOJDgu" value="CS04 " style="text;html=1;strokeColor=none;fillColor=none;align=center;verticalAlign=middle;whiteSpace=wrap;rounded=0;labelBackgroundColor=none;fontFamily=Helvetica;fontStyle=1;fontSize=12;fontColor=#333333;" parent="5JwdctCJn4qbrOevUoQApG" vertex="1">
          <mxGeometry x="1500" y="210" width="60" height="20" as="geometry" />
        </mxCell>
        <mxCell id="9NzlwPDoFXTphR6OeYLvF2" value="CS01" style="text;html=1;strokeColor=none;fillColor=none;align=center;verticalAlign=middle;whiteSpace=wrap;rounded=0;labelBackgroundColor=none;fontFamily=Helvetica;fontStyle=1;fontSize=12;fontColor=#333333;" parent="5JwdctCJn4qbrOevUoQApG" vertex="1">
          <mxGeometry x="1500" y="270" width="60" height="20" as="geometry" />
        </mxCell>
        <mxCell id="OwCCfw-IU3I16ftpCYv-_W" value="CS02" style="text;html=1;strokeColor=none;fillColor=none;align=center;verticalAlign=middle;whiteSpace=wrap;rounded=0;labelBackgroundColor=none;fontFamily=Helvetica;fontStyle=1;fontSize=12;fontColor=#333333;" parent="5JwdctCJn4qbrOevUoQApG" vertex="1">
          <mxGeometry x="1500" y="330" width="60" height="20" as="geometry" />
        </mxCell>
        <mxCell id="rBKZKu26hmj5h-QLK8q7kc" value="CS07" style="text;html=1;strokeColor=none;fillColor=none;align=center;verticalAlign=middle;whiteSpace=wrap;rounded=0;labelBackgroundColor=none;fontFamily=Helvetica;fontStyle=1;fontSize=12;fontColor=#333333;" parent="5JwdctCJn4qbrOevUoQApG" vertex="1">
          <mxGeometry x="1670" y="90" width="60" height="20" as="geometry" />
        </mxCell>
        <mxCell id="GA4kPG5AAHP0BlJzpxSBDw" value="CS06 " style="text;html=1;strokeColor=none;fillColor=none;align=center;verticalAlign=middle;whiteSpace=wrap;rounded=0;labelBackgroundColor=none;fontFamily=Helvetica;fontStyle=1;fontSize=12;fontColor=#333333;" parent="5JwdctCJn4qbrOevUoQApG" vertex="1">
          <mxGeometry x="1670" y="150" width="60" height="20" as="geometry" />
        </mxCell>
        <mxCell id="aIc9k8zfMmkqj2YO77Cnho" value="CS03 " style="text;html=1;strokeColor=none;fillColor=none;align=center;verticalAlign=middle;whiteSpace=wrap;rounded=0;labelBackgroundColor=none;fontFamily=Helvetica;fontStyle=1;fontSize=12;fontColor=#333333;" parent="5JwdctCJn4qbrOevUoQApG" vertex="1">
          <mxGeometry x="1670" y="210" width="60" height="20" as="geometry" />
        </mxCell>
        <mxCell id="mHQotivl3VIkzeSdT_S2Is" value="CS10" style="text;html=1;strokeColor=none;fillColor=none;align=center;verticalAlign=middle;whiteSpace=wrap;rounded=0;labelBackgroundColor=none;fontFamily=Helvetica;fontStyle=1;fontSize=12;fontColor=#333333;" parent="5JwdctCJn4qbrOevUoQApG" vertex="1">
          <mxGeometry x="1670" y="270" width="60" height="20" as="geometry" />
        </mxCell>
        <mxCell id="GYfGtMLDSSB1Q3kYHqFESC" value="CS05 " style="text;html=1;strokeColor=none;fillColor=none;align=center;verticalAlign=middle;whiteSpace=wrap;rounded=0;labelBackgroundColor=none;fontFamily=Helvetica;fontStyle=1;fontSize=12;fontColor=#333333;" parent="5JwdctCJn4qbrOevUoQApG" vertex="1">
          <mxGeometry x="1670" y="330" width="60" height="20" as="geometry" />
        </mxCell>
        <mxCell id="bTaje-sMIX3XIcPL4sLY7_" value="CU05" style="text;html=1;strokeColor=none;fillColor=none;align=center;verticalAlign=middle;whiteSpace=wrap;rounded=0;labelBackgroundColor=none;fontFamily=Helvetica;fontStyle=1;fontSize=12;fontColor=#333333;" parent="5JwdctCJn4qbrOevUoQApG" vertex="1">
          <mxGeometry x="20" y="560" width="60" height="20" as="geometry" />
        </mxCell>
        <mxCell id="gO2BSZQVRPXADdwHmAao4U" value="CU03-01" style="text;html=1;strokeColor=none;fillColor=none;align=center;verticalAlign=middle;whiteSpace=wrap;rounded=0;labelBackgroundColor=none;fontFamily=Helvetica;fontStyle=1;fontSize=12;fontColor=#333333;" parent="5JwdctCJn4qbrOevUoQApG" vertex="1">
          <mxGeometry x="20" y="620" width="60" height="20" as="geometry" />
        </mxCell>
        <mxCell id="2O0rgyuHAGlydDqxBQLYO-" value="CU03-02" style="text;html=1;strokeColor=none;fillColor=none;align=center;verticalAlign=middle;whiteSpace=wrap;rounded=0;labelBackgroundColor=none;fontFamily=Helvetica;fontStyle=1;fontSize=12;fontColor=#333333;" parent="5JwdctCJn4qbrOevUoQApG" vertex="1">
          <mxGeometry x="20" y="680" width="60" height="20" as="geometry" />
        </mxCell>
        <mxCell id="qdGLBbK8WMoioh5elUJz3T" value="CU02" style="text;html=1;strokeColor=none;fillColor=none;align=center;verticalAlign=middle;whiteSpace=wrap;rounded=0;labelBackgroundColor=none;fontFamily=Helvetica;fontStyle=1;fontSize=12;fontColor=#333333;" parent="5JwdctCJn4qbrOevUoQApG" vertex="1">
          <mxGeometry x="20" y="740" width="60" height="20" as="geometry" />
        </mxCell>
        <mxCell id="hQHfBpM24AnoS8JNRA4b7T" value="CU04" style="text;html=1;strokeColor=none;fillColor=none;align=center;verticalAlign=middle;whiteSpace=wrap;rounded=0;labelBackgroundColor=none;fontFamily=Helvetica;fontStyle=1;fontSize=12;fontColor=#333333;" parent="5JwdctCJn4qbrOevUoQApG" vertex="1">
          <mxGeometry x="190" y="560" width="60" height="20" as="geometry" />
        </mxCell>
        <mxCell id="3ddk4w1rQUFCH0hhJaYtYN" value="CU06" style="text;html=1;strokeColor=none;fillColor=none;align=center;verticalAlign=middle;whiteSpace=wrap;rounded=0;labelBackgroundColor=none;fontFamily=Helvetica;fontStyle=1;fontSize=12;fontColor=#333333;" parent="5JwdctCJn4qbrOevUoQApG" vertex="1">
          <mxGeometry x="190" y="620" width="60" height="20" as="geometry" />
        </mxCell>
        <mxCell id="4-X_qk1zwsBUqGYyioNiZJ" value="CU03" style="text;html=1;strokeColor=none;fillColor=none;align=center;verticalAlign=middle;whiteSpace=wrap;rounded=0;labelBackgroundColor=none;fontFamily=Helvetica;fontStyle=1;fontSize=12;fontColor=#333333;" parent="5JwdctCJn4qbrOevUoQApG" vertex="1">
          <mxGeometry x="190" y="680" width="60" height="20" as="geometry" />
        </mxCell>
        <mxCell id="5-ekXquT2xDHlwYEV3HLGr" value="CU01" style="text;html=1;strokeColor=none;fillColor=none;align=center;verticalAlign=middle;whiteSpace=wrap;rounded=0;labelBackgroundColor=none;fontFamily=Helvetica;fontStyle=1;fontSize=12;fontColor=#333333;" parent="5JwdctCJn4qbrOevUoQApG" vertex="1">
          <mxGeometry x="190" y="740" width="60" height="20" as="geometry" />
        </mxCell>
        <mxCell id="aUjM6UOmEog2_Olv8BEI5K" value="DA04" style="text;html=1;strokeColor=none;fillColor=none;align=center;verticalAlign=middle;whiteSpace=wrap;rounded=0;labelBackgroundColor=none;fontFamily=Helvetica;fontStyle=1;fontSize=12;fontColor=#333333;" parent="5JwdctCJn4qbrOevUoQApG" vertex="1">
          <mxGeometry x="400" y="560" width="60" height="20" as="geometry" />
        </mxCell>
        <mxCell id="L_F1xY4I0KqVj8dRKB1e5j" value="DA05" style="text;html=1;strokeColor=none;fillColor=none;align=center;verticalAlign=middle;whiteSpace=wrap;rounded=0;labelBackgroundColor=none;fontFamily=Helvetica;fontStyle=1;fontSize=12;fontColor=#333333;" parent="5JwdctCJn4qbrOevUoQApG" vertex="1">
          <mxGeometry x="400" y="620" width="60" height="20" as="geometry" />
        </mxCell>
        <mxCell id="-sfbfNewh8OYqQompLrJyv" value="DA03" style="text;html=1;strokeColor=none;fillColor=none;align=center;verticalAlign=middle;whiteSpace=wrap;rounded=0;labelBackgroundColor=none;fontFamily=Helvetica;fontStyle=1;fontSize=12;fontColor=#333333;" parent="5JwdctCJn4qbrOevUoQApG" vertex="1">
          <mxGeometry x="400" y="680" width="60" height="20" as="geometry" />
        </mxCell>
        <mxCell id="_Vt-bPpaB9mqFqrW2g4l72" value="DA01" style="text;html=1;strokeColor=none;fillColor=none;align=center;verticalAlign=middle;whiteSpace=wrap;rounded=0;labelBackgroundColor=none;fontFamily=Helvetica;fontStyle=1;fontSize=12;fontColor=#333333;" parent="5JwdctCJn4qbrOevUoQApG" vertex="1">
          <mxGeometry x="570" y="560" width="60" height="20" as="geometry" />
        </mxCell>
        <mxCell id="toW3RIeqfsX9EQF-moZ6qj" value="DA02" style="text;html=1;strokeColor=none;fillColor=none;align=center;verticalAlign=middle;whiteSpace=wrap;rounded=0;labelBackgroundColor=none;fontFamily=Helvetica;fontStyle=1;fontSize=12;fontColor=#333333;" parent="5JwdctCJn4qbrOevUoQApG" vertex="1">
          <mxGeometry x="570" y="620" width="60" height="20" as="geometry" />
        </mxCell>
        <mxCell id="udK2m96mrRgFB7e7X8Di3u" value="DC02" style="text;html=1;strokeColor=none;fillColor=none;align=center;verticalAlign=middle;whiteSpace=wrap;rounded=0;labelBackgroundColor=none;fontFamily=Helvetica;fontStyle=1;fontSize=12;fontColor=#333333;" parent="5JwdctCJn4qbrOevUoQApG" vertex="1">
          <mxGeometry x="780" y="560" width="60" height="20" as="geometry" />
        </mxCell>
        <mxCell id="RythOL4mEtNlRQzGHFLZIr" value="DC03" style="text;html=1;strokeColor=none;fillColor=none;align=center;verticalAlign=middle;whiteSpace=wrap;rounded=0;labelBackgroundColor=none;fontFamily=Helvetica;fontStyle=1;fontSize=12;fontColor=#333333;" parent="5JwdctCJn4qbrOevUoQApG" vertex="1">
          <mxGeometry x="780" y="620" width="60" height="20" as="geometry" />
        </mxCell>
        <mxCell id="dlosknCo01YdmUB30yUrMu" value="DC01" style="text;html=1;strokeColor=none;fillColor=none;align=center;verticalAlign=middle;whiteSpace=wrap;rounded=0;labelBackgroundColor=none;fontFamily=Helvetica;fontStyle=1;fontSize=12;fontColor=#333333;" parent="5JwdctCJn4qbrOevUoQApG" vertex="1">
          <mxGeometry x="950" y="560" width="60" height="20" as="geometry" />
        </mxCell>
        <mxCell id="R1ZH5DjOXsD6cwynL3kvI0" value="EA02" style="text;html=1;strokeColor=none;fillColor=none;align=center;verticalAlign=middle;whiteSpace=wrap;rounded=0;labelBackgroundColor=none;fontFamily=Helvetica;fontStyle=1;fontSize=12;fontColor=#333333;" parent="5JwdctCJn4qbrOevUoQApG" vertex="1">
          <mxGeometry x="1160" y="560" width="60" height="20" as="geometry" />
        </mxCell>
        <mxCell id="QramaV2dQg9gvTszTPqUyq" value="EA01" style="text;html=1;strokeColor=none;fillColor=none;align=center;verticalAlign=middle;whiteSpace=wrap;rounded=0;labelBackgroundColor=none;fontFamily=Helvetica;fontStyle=1;fontSize=12;fontColor=#333333;" parent="5JwdctCJn4qbrOevUoQApG" vertex="1">
          <mxGeometry x="1160" y="620" width="60" height="20" as="geometry" />
        </mxCell>
        <mxCell id="BMyXEmGo5wwXA6TTQhoOgH" value="EA03" style="text;html=1;strokeColor=none;fillColor=none;align=center;verticalAlign=middle;whiteSpace=wrap;rounded=0;labelBackgroundColor=none;fontFamily=Helvetica;fontStyle=1;fontSize=12;fontColor=#333333;" parent="5JwdctCJn4qbrOevUoQApG" vertex="1">
          <mxGeometry x="1160" y="680" width="60" height="20" as="geometry" />
        </mxCell>
        <mxCell id="hE2O4CD-x5skRJF0XhPdgE" value="EA05" style="text;html=1;strokeColor=none;fillColor=none;align=center;verticalAlign=middle;whiteSpace=wrap;rounded=0;labelBackgroundColor=none;fontFamily=Helvetica;fontStyle=1;fontSize=12;fontColor=#333333;" parent="5JwdctCJn4qbrOevUoQApG" vertex="1">
          <mxGeometry x="1330" y="560" width="60" height="20" as="geometry" />
        </mxCell>
        <mxCell id="s7zAjbYwA_jQ-Y4PEIoKVb" value="EA04" style="text;html=1;strokeColor=none;fillColor=none;align=center;verticalAlign=middle;whiteSpace=wrap;rounded=0;labelBackgroundColor=none;fontFamily=Helvetica;fontStyle=1;fontSize=12;fontColor=#333333;" parent="5JwdctCJn4qbrOevUoQApG" vertex="1">
          <mxGeometry x="1330" y="620" width="60" height="20" as="geometry" />
        </mxCell>
        <mxCell id="03VcHSGMKIjcFG_SPOFLQR" value="ES02" style="text;html=1;strokeColor=none;fillColor=none;align=center;verticalAlign=middle;whiteSpace=wrap;rounded=0;labelBackgroundColor=none;fontFamily=Helvetica;fontStyle=1;fontSize=12;fontColor=#333333;" parent="5JwdctCJn4qbrOevUoQApG" vertex="1">
          <mxGeometry x="1540" y="560" width="60" height="20" as="geometry" />
        </mxCell>
        <mxCell id="vGwpazoYyZe9o8QoslNIjL" value="ES03" style="text;html=1;strokeColor=none;fillColor=none;align=center;verticalAlign=middle;whiteSpace=wrap;rounded=0;labelBackgroundColor=none;fontFamily=Helvetica;fontStyle=1;fontSize=12;fontColor=#333333;" parent="5JwdctCJn4qbrOevUoQApG" vertex="1">
          <mxGeometry x="1540" y="620" width="60" height="20" as="geometry" />
        </mxCell>
        <mxCell id="_iBM3SSVPafrkn09tlqM23" value="ES05" style="text;html=1;strokeColor=none;fillColor=none;align=center;verticalAlign=middle;whiteSpace=wrap;rounded=0;labelBackgroundColor=none;fontFamily=Helvetica;fontStyle=1;fontSize=12;fontColor=#333333;" parent="5JwdctCJn4qbrOevUoQApG" vertex="1">
          <mxGeometry x="1540" y="680" width="60" height="20" as="geometry" />
        </mxCell>
        <mxCell id="-RcFVVzKYrpDyUexUb8hxd" value="ES01" style="text;html=1;strokeColor=none;fillColor=none;align=center;verticalAlign=middle;whiteSpace=wrap;rounded=0;labelBackgroundColor=none;fontFamily=Helvetica;fontStyle=1;fontSize=12;fontColor=#333333;" parent="5JwdctCJn4qbrOevUoQApG" vertex="1">
          <mxGeometry x="1710" y="560" width="60" height="20" as="geometry" />
        </mxCell>
        <mxCell id="BYzq9XN0WGTlBconazk5ho" value="ES06" style="text;html=1;strokeColor=none;fillColor=none;align=center;verticalAlign=middle;whiteSpace=wrap;rounded=0;labelBackgroundColor=none;fontFamily=Helvetica;fontStyle=1;fontSize=12;fontColor=#333333;" parent="5JwdctCJn4qbrOevUoQApG" vertex="1">
          <mxGeometry x="1710" y="620" width="60" height="20" as="geometry" />
        </mxCell>
        <mxCell id="Xx3m0tMEqZnxNXJeBA44TW" value="ES04" style="text;html=1;strokeColor=none;fillColor=none;align=center;verticalAlign=middle;whiteSpace=wrap;rounded=0;labelBackgroundColor=none;fontFamily=Helvetica;fontStyle=1;fontSize=12;fontColor=#333333;" parent="5JwdctCJn4qbrOevUoQApG" vertex="1">
          <mxGeometry x="1710" y="680" width="60" height="20" as="geometry" />
        </mxCell>
        <mxCell id="B4LKNstplChT6rl7U6D4no" value="PA02" style="text;html=1;strokeColor=none;fillColor=none;align=center;verticalAlign=middle;whiteSpace=wrap;rounded=0;labelBackgroundColor=none;fontFamily=Helvetica;fontStyle=1;fontSize=12;fontColor=#333333;" parent="5JwdctCJn4qbrOevUoQApG" vertex="1">
          <mxGeometry x="20" y="910" width="60" height="20" as="geometry" />
        </mxCell>
        <mxCell id="qPC0-tinqj89c28DFlUmMg" value="PA01" style="text;html=1;strokeColor=none;fillColor=none;align=center;verticalAlign=middle;whiteSpace=wrap;rounded=0;labelBackgroundColor=none;fontFamily=Helvetica;fontStyle=1;fontSize=12;fontColor=#333333;" parent="5JwdctCJn4qbrOevUoQApG" vertex="1">
          <mxGeometry x="20" y="970" width="60" height="20" as="geometry" />
        </mxCell>
        <mxCell id="zj0EMADMI_azkAXOfTlPmE" value="PA05" style="text;html=1;strokeColor=none;fillColor=none;align=center;verticalAlign=middle;whiteSpace=wrap;rounded=0;labelBackgroundColor=none;fontFamily=Helvetica;fontStyle=1;fontSize=12;fontColor=#333333;" parent="5JwdctCJn4qbrOevUoQApG" vertex="1">
          <mxGeometry x="20" y="1030" width="60" height="20" as="geometry" />
        </mxCell>
        <mxCell id="dqEWswtnQekXalot6iAcvu" value="PA04" style="text;html=1;strokeColor=none;fillColor=none;align=center;verticalAlign=middle;whiteSpace=wrap;rounded=0;labelBackgroundColor=none;fontFamily=Helvetica;fontStyle=1;fontSize=12;fontColor=#333333;" parent="5JwdctCJn4qbrOevUoQApG" vertex="1">
          <mxGeometry x="20" y="1090" width="60" height="20" as="geometry" />
        </mxCell>
        <mxCell id="Sv5i7PRT23UJmYu8_ys6Sq" value="PA03" style="text;html=1;strokeColor=none;fillColor=none;align=center;verticalAlign=middle;whiteSpace=wrap;rounded=0;labelBackgroundColor=none;fontFamily=Helvetica;fontStyle=1;fontSize=12;fontColor=#333333;" parent="5JwdctCJn4qbrOevUoQApG" vertex="1">
          <mxGeometry x="190" y="910" width="60" height="20" as="geometry" />
        </mxCell>
        <mxCell id="OxRt8J0WLR0Esezy0VE3E6" value="PA06" style="text;html=1;strokeColor=none;fillColor=none;align=center;verticalAlign=middle;whiteSpace=wrap;rounded=0;labelBackgroundColor=none;fontFamily=Helvetica;fontStyle=1;fontSize=12;fontColor=#333333;" parent="5JwdctCJn4qbrOevUoQApG" vertex="1">
          <mxGeometry x="190" y="970" width="60" height="20" as="geometry" />
        </mxCell>
        <mxCell id="nBWmM3YDAzkC5-magjjVCz" value="PA07" style="text;html=1;strokeColor=none;fillColor=none;align=center;verticalAlign=middle;whiteSpace=wrap;rounded=0;labelBackgroundColor=none;fontFamily=Helvetica;fontStyle=1;fontSize=12;fontColor=#333333;" parent="5JwdctCJn4qbrOevUoQApG" vertex="1">
          <mxGeometry x="190" y="1030" width="60" height="20" as="geometry" />
        </mxCell>
        <mxCell id="jjYjo0mUBMyJ4Mw6yO4_Y_" value="PP04" style="text;html=1;strokeColor=none;fillColor=none;align=center;verticalAlign=middle;whiteSpace=wrap;rounded=0;labelBackgroundColor=none;fontFamily=Helvetica;fontStyle=1;fontSize=12;fontColor=#333333;" parent="5JwdctCJn4qbrOevUoQApG" vertex="1">
          <mxGeometry x="400" y="910" width="60" height="20" as="geometry" />
        </mxCell>
        <mxCell id="Yf2mmUjKJocAG6lrNkVEkT" value="PP05" style="text;html=1;strokeColor=none;fillColor=none;align=center;verticalAlign=middle;whiteSpace=wrap;rounded=0;labelBackgroundColor=none;fontFamily=Helvetica;fontStyle=1;fontSize=12;fontColor=#333333;" parent="5JwdctCJn4qbrOevUoQApG" vertex="1">
          <mxGeometry x="400" y="970" width="60" height="20" as="geometry" />
        </mxCell>
        <mxCell id="OvzFQfJiB5cBiu3sQ6Gjwg" value="PP03" style="text;html=1;strokeColor=none;fillColor=none;align=center;verticalAlign=middle;whiteSpace=wrap;rounded=0;labelBackgroundColor=none;fontFamily=Helvetica;fontStyle=1;fontSize=12;fontColor=#333333;" parent="5JwdctCJn4qbrOevUoQApG" vertex="1">
          <mxGeometry x="400" y="1030" width="60" height="20" as="geometry" />
        </mxCell>
        <mxCell id="Cs0AHLkMuCw80iWEvMA8Dr" value="PP01" style="text;html=1;strokeColor=none;fillColor=none;align=center;verticalAlign=middle;whiteSpace=wrap;rounded=0;labelBackgroundColor=none;fontFamily=Helvetica;fontStyle=1;fontSize=12;fontColor=#333333;" parent="5JwdctCJn4qbrOevUoQApG" vertex="1">
          <mxGeometry x="570" y="910" width="60" height="20" as="geometry" />
        </mxCell>
        <mxCell id="8tRS6WpvlLEY6jvUlBEWm-" value="PP02" style="text;html=1;strokeColor=none;fillColor=none;align=center;verticalAlign=middle;whiteSpace=wrap;rounded=0;labelBackgroundColor=none;fontFamily=Helvetica;fontStyle=1;fontSize=12;fontColor=#333333;" parent="5JwdctCJn4qbrOevUoQApG" vertex="1">
          <mxGeometry x="570" y="970" width="60" height="20" as="geometry" />
        </mxCell>
        <mxCell id="9hWTOBhwf05AURrvnACbKw" value="PS05" style="text;html=1;strokeColor=none;fillColor=none;align=center;verticalAlign=middle;whiteSpace=wrap;rounded=0;labelBackgroundColor=none;fontFamily=Helvetica;fontStyle=1;fontSize=12;fontColor=#333333;" parent="5JwdctCJn4qbrOevUoQApG" vertex="1">
          <mxGeometry x="780" y="910" width="60" height="20" as="geometry" />
        </mxCell>
        <mxCell id="vUKjvN1kKx47v1eQmtoLdP" value="PS01" style="text;html=1;strokeColor=none;fillColor=none;align=center;verticalAlign=middle;whiteSpace=wrap;rounded=0;labelBackgroundColor=none;fontFamily=Helvetica;fontStyle=1;fontSize=12;fontColor=#333333;" parent="5JwdctCJn4qbrOevUoQApG" vertex="1">
          <mxGeometry x="780" y="970" width="60" height="20" as="geometry" />
        </mxCell>
        <mxCell id="SnWvAbEO9t-Q5t8l4Hx_m2" value="PS09" style="text;html=1;strokeColor=none;fillColor=none;align=center;verticalAlign=middle;whiteSpace=wrap;rounded=0;labelBackgroundColor=none;fontFamily=Helvetica;fontStyle=1;fontSize=12;fontColor=#333333;" parent="5JwdctCJn4qbrOevUoQApG" vertex="1">
          <mxGeometry x="780" y="1030" width="60" height="20" as="geometry" />
        </mxCell>
        <mxCell id="5rpF-jatFkW9V3etT2PT3P" value="PS06" style="text;html=1;strokeColor=none;fillColor=none;align=center;verticalAlign=middle;whiteSpace=wrap;rounded=0;labelBackgroundColor=none;fontFamily=Helvetica;fontStyle=1;fontSize=12;fontColor=#333333;" parent="5JwdctCJn4qbrOevUoQApG" vertex="1">
          <mxGeometry x="780" y="1090" width="60" height="20" as="geometry" />
        </mxCell>
        <mxCell id="cce6MkcVHVUzBXZ05ulL5C" value="PS07" style="text;html=1;strokeColor=none;fillColor=none;align=center;verticalAlign=middle;whiteSpace=wrap;rounded=0;labelBackgroundColor=none;fontFamily=Helvetica;fontStyle=1;fontSize=12;fontColor=#333333;" parent="5JwdctCJn4qbrOevUoQApG" vertex="1">
          <mxGeometry x="780" y="1150" width="60" height="20" as="geometry" />
        </mxCell>
        <mxCell id="dfZ5ns7JDvXYIxeQe0Y37Z" value="PS03" style="text;html=1;strokeColor=none;fillColor=none;align=center;verticalAlign=middle;whiteSpace=wrap;rounded=0;labelBackgroundColor=none;fontFamily=Helvetica;fontStyle=1;fontSize=12;fontColor=#333333;" parent="5JwdctCJn4qbrOevUoQApG" vertex="1">
          <mxGeometry x="950" y="910" width="60" height="20" as="geometry" />
        </mxCell>
        <mxCell id="U2pW8w5QrSLtyhBTjf0W45" value="PS04" style="text;html=1;strokeColor=none;fillColor=none;align=center;verticalAlign=middle;whiteSpace=wrap;rounded=0;labelBackgroundColor=none;fontFamily=Helvetica;fontStyle=1;fontSize=12;fontColor=#333333;" parent="5JwdctCJn4qbrOevUoQApG" vertex="1">
          <mxGeometry x="950" y="970" width="60" height="20" as="geometry" />
        </mxCell>
        <mxCell id="aG5hJDEsueWNIabK2iKGee" value="PS08" style="text;html=1;strokeColor=none;fillColor=none;align=center;verticalAlign=middle;whiteSpace=wrap;rounded=0;labelBackgroundColor=none;fontFamily=Helvetica;fontStyle=1;fontSize=12;fontColor=#333333;" parent="5JwdctCJn4qbrOevUoQApG" vertex="1">
          <mxGeometry x="950" y="1030" width="60" height="20" as="geometry" />
        </mxCell>
        <mxCell id="6tozOKIZqs_Q4Nqn4wa6Ry" value="PS02" style="text;html=1;strokeColor=none;fillColor=none;align=center;verticalAlign=middle;whiteSpace=wrap;rounded=0;labelBackgroundColor=none;fontFamily=Helvetica;fontStyle=1;fontSize=12;fontColor=#333333;" parent="5JwdctCJn4qbrOevUoQApG" vertex="1">
          <mxGeometry x="950" y="1090" width="60" height="20" as="geometry" />
        </mxCell>
        <mxCell id="kYiX6zo6byXsOLWPX-QRHn" value="PS10" style="text;html=1;strokeColor=none;fillColor=none;align=center;verticalAlign=middle;whiteSpace=wrap;rounded=0;labelBackgroundColor=none;fontFamily=Helvetica;fontStyle=1;fontSize=12;fontColor=#333333;" parent="5JwdctCJn4qbrOevUoQApG" vertex="1">
          <mxGeometry x="950" y="1150" width="60" height="20" as="geometry" />
        </mxCell>
        <mxCell id="getjxT2K_80_2XbTmbAMb1" value="RF06" style="text;html=1;strokeColor=none;fillColor=none;align=center;verticalAlign=middle;whiteSpace=wrap;rounded=0;labelBackgroundColor=none;fontFamily=Helvetica;fontStyle=1;fontSize=12;fontColor=#333333;" parent="5JwdctCJn4qbrOevUoQApG" vertex="1">
          <mxGeometry x="1160" y="910" width="60" height="20" as="geometry" />
        </mxCell>
        <mxCell id="VcEF_p8SGsIkMVy8MviGLd" value="RF01" style="text;html=1;strokeColor=none;fillColor=none;align=center;verticalAlign=middle;whiteSpace=wrap;rounded=0;labelBackgroundColor=none;fontFamily=Helvetica;fontStyle=1;fontSize=12;fontColor=#333333;" parent="5JwdctCJn4qbrOevUoQApG" vertex="1">
          <mxGeometry x="1160" y="970" width="60" height="20" as="geometry" />
        </mxCell>
        <mxCell id="pFcBgbn1Abn1JKtjyUbHer" value="RF08" style="text;html=1;strokeColor=none;fillColor=none;align=center;verticalAlign=middle;whiteSpace=wrap;rounded=0;labelBackgroundColor=none;fontFamily=Helvetica;fontStyle=1;fontSize=12;fontColor=#333333;" parent="5JwdctCJn4qbrOevUoQApG" vertex="1">
          <mxGeometry x="1160" y="1030" width="60" height="20" as="geometry" />
        </mxCell>
        <mxCell id="MBZIDLUQuj9YkN9jPjIKEA" value="RF04" style="text;html=1;strokeColor=none;fillColor=none;align=center;verticalAlign=middle;whiteSpace=wrap;rounded=0;labelBackgroundColor=none;fontFamily=Helvetica;fontStyle=1;fontSize=12;fontColor=#333333;" parent="5JwdctCJn4qbrOevUoQApG" vertex="1">
          <mxGeometry x="1160" y="1090" width="60" height="20" as="geometry" />
        </mxCell>
        <mxCell id="mZPnrQu0-le-w6LU2PSXSJ" value="RF09" style="text;html=1;strokeColor=none;fillColor=none;align=center;verticalAlign=middle;whiteSpace=wrap;rounded=0;labelBackgroundColor=none;fontFamily=Helvetica;fontStyle=1;fontSize=12;fontColor=#333333;" parent="5JwdctCJn4qbrOevUoQApG" vertex="1">
          <mxGeometry x="1160" y="1150" width="60" height="20" as="geometry" />
        </mxCell>
        <mxCell id="qbUCaSF0jL29m6rR9UThXT" value="RF02" style="text;html=1;strokeColor=none;fillColor=none;align=center;verticalAlign=middle;whiteSpace=wrap;rounded=0;labelBackgroundColor=none;fontFamily=Helvetica;fontStyle=1;fontSize=12;fontColor=#333333;" parent="5JwdctCJn4qbrOevUoQApG" vertex="1">
          <mxGeometry x="1330" y="910" width="60" height="20" as="geometry" />
        </mxCell>
        <mxCell id="B9lPw5lxlTPFbimUadFzs6" value="RF03" style="text;html=1;strokeColor=none;fillColor=none;align=center;verticalAlign=middle;whiteSpace=wrap;rounded=0;labelBackgroundColor=none;fontFamily=Helvetica;fontStyle=1;fontSize=12;fontColor=#333333;" parent="5JwdctCJn4qbrOevUoQApG" vertex="1">
          <mxGeometry x="1330" y="970" width="60" height="20" as="geometry" />
        </mxCell>
        <mxCell id="ZsNeW4YCi0KOw57mH_b8nZ" value="RF07" style="text;html=1;strokeColor=none;fillColor=none;align=center;verticalAlign=middle;whiteSpace=wrap;rounded=0;labelBackgroundColor=none;fontFamily=Helvetica;fontStyle=1;fontSize=12;fontColor=#333333;" parent="5JwdctCJn4qbrOevUoQApG" vertex="1">
          <mxGeometry x="1330" y="1030" width="60" height="20" as="geometry" />
        </mxCell>
        <mxCell id="IpGjDlirOHfAHctikaOLGs" value="RF10" style="text;html=1;strokeColor=none;fillColor=none;align=center;verticalAlign=middle;whiteSpace=wrap;rounded=0;labelBackgroundColor=none;fontFamily=Helvetica;fontStyle=1;fontSize=12;fontColor=#333333;" parent="5JwdctCJn4qbrOevUoQApG" vertex="1">
          <mxGeometry x="1330" y="1090" width="60" height="20" as="geometry" />
        </mxCell>
        <mxCell id="xDK3BVNHIhLLKNMNKXm5nb" value="RF05" style="text;html=1;strokeColor=none;fillColor=none;align=center;verticalAlign=middle;whiteSpace=wrap;rounded=0;labelBackgroundColor=none;fontFamily=Helvetica;fontStyle=1;fontSize=12;fontColor=#333333;" parent="5JwdctCJn4qbrOevUoQApG" vertex="1">
          <mxGeometry x="1330" y="1150" width="60" height="20" as="geometry" />
        </mxCell>
        <mxCell id="IdwEzQoVdsqSZ6z5MwypOH" value="SR04" style="text;html=1;strokeColor=none;fillColor=none;align=center;verticalAlign=middle;whiteSpace=wrap;rounded=0;labelBackgroundColor=none;fontFamily=Helvetica;fontStyle=1;fontSize=12;fontColor=#333333;" parent="5JwdctCJn4qbrOevUoQApG" vertex="1">
          <mxGeometry x="1540" y="910" width="60" height="20" as="geometry" />
        </mxCell>
        <mxCell id="9YudrlT0Jo0ImUE29jwSga" value="SR01" style="text;html=1;strokeColor=none;fillColor=none;align=center;verticalAlign=middle;whiteSpace=wrap;rounded=0;labelBackgroundColor=none;fontFamily=Helvetica;fontStyle=1;fontSize=12;fontColor=#333333;" parent="5JwdctCJn4qbrOevUoQApG" vertex="1">
          <mxGeometry x="1540" y="970" width="60" height="20" as="geometry" />
        </mxCell>
        <mxCell id="yC3WF0IOW8WEk94KmSJMeR" value="SR05" style="text;html=1;strokeColor=none;fillColor=none;align=center;verticalAlign=middle;whiteSpace=wrap;rounded=0;labelBackgroundColor=none;fontFamily=Helvetica;fontStyle=1;fontSize=12;fontColor=#333333;" parent="5JwdctCJn4qbrOevUoQApG" vertex="1">
          <mxGeometry x="1540" y="1030" width="60" height="20" as="geometry" />
        </mxCell>
        <mxCell id="lMfQYdIFVjjTUt_DEqgCIf" value="SR02" style="text;html=1;strokeColor=none;fillColor=none;align=center;verticalAlign=middle;whiteSpace=wrap;rounded=0;labelBackgroundColor=none;fontFamily=Helvetica;fontStyle=1;fontSize=12;fontColor=#333333;" parent="5JwdctCJn4qbrOevUoQApG" vertex="1">
          <mxGeometry x="1710" y="910" width="60" height="20" as="geometry" />
        </mxCell>
        <mxCell id="QDacqiVzEZLJVQMXE_IX8M" value="SR03" style="text;html=1;strokeColor=none;fillColor=none;align=center;verticalAlign=middle;whiteSpace=wrap;rounded=0;labelBackgroundColor=none;fontFamily=Helvetica;fontStyle=1;fontSize=12;fontColor=#333333;" parent="5JwdctCJn4qbrOevUoQApG" vertex="1">
          <mxGeometry x="1710" y="970" width="60" height="20" as="geometry" />
        </mxCell>
        <mxCell id="G3urApV3rccJKy69loK5pu" value="TB01" style="text;html=1;strokeColor=none;fillColor=none;align=center;verticalAlign=middle;whiteSpace=wrap;rounded=0;labelBackgroundColor=none;fontFamily=Helvetica;fontStyle=1;fontSize=12;fontColor=#333333;" parent="5JwdctCJn4qbrOevUoQApG" vertex="1">
          <mxGeometry x="20" y="1320" width="60" height="20" as="geometry" />
        </mxCell>
        <mxCell id="DZA4Fla2Z7Ny_OESQsQViO" value="TB02" style="text;html=1;strokeColor=none;fillColor=none;align=center;verticalAlign=middle;whiteSpace=wrap;rounded=0;labelBackgroundColor=none;fontFamily=Helvetica;fontStyle=1;fontSize=12;fontColor=#333333;" parent="5JwdctCJn4qbrOevUoQApG" vertex="1">
          <mxGeometry x="20" y="1380" width="60" height="20" as="geometry" />
        </mxCell>
        <mxCell id="w9IJbPUE9RSv8V3wQ4zOVc" value="TB03" style="text;html=1;strokeColor=none;fillColor=none;align=center;verticalAlign=middle;whiteSpace=wrap;rounded=0;labelBackgroundColor=none;fontFamily=Helvetica;fontStyle=1;fontSize=12;fontColor=#333333;" parent="5JwdctCJn4qbrOevUoQApG" vertex="1">
          <mxGeometry x="20" y="1440" width="60" height="20" as="geometry" />
        </mxCell>
        <mxCell id="5Hbt83t_AsYQrQZjbZFM2y" value="TB05" style="text;html=1;strokeColor=none;fillColor=none;align=center;verticalAlign=middle;whiteSpace=wrap;rounded=0;labelBackgroundColor=none;fontFamily=Helvetica;fontStyle=1;fontSize=12;fontColor=#333333;" parent="5JwdctCJn4qbrOevUoQApG" vertex="1">
          <mxGeometry x="190" y="1320" width="60" height="20" as="geometry" />
        </mxCell>
        <mxCell id="muqX5QoRy6E5q2JfN8l9wy" value="TB04" style="text;html=1;strokeColor=none;fillColor=none;align=center;verticalAlign=middle;whiteSpace=wrap;rounded=0;labelBackgroundColor=none;fontFamily=Helvetica;fontStyle=1;fontSize=12;fontColor=#333333;" parent="5JwdctCJn4qbrOevUoQApG" vertex="1">
          <mxGeometry x="190" y="1380" width="60" height="20" as="geometry" />
        </mxCell>
        <mxCell id="0JT4kspm9GwR0YUpKoHy6A" value="TS01" style="text;html=1;strokeColor=none;fillColor=none;align=center;verticalAlign=middle;whiteSpace=wrap;rounded=0;labelBackgroundColor=none;fontFamily=Helvetica;fontStyle=1;fontSize=12;fontColor=#333333;" parent="5JwdctCJn4qbrOevUoQApG" vertex="1">
          <mxGeometry x="400" y="1320" width="60" height="20" as="geometry" />
        </mxCell>
        <mxCell id="B9RYTx1vCmAGn92rFeHpxw" value="TS02" style="text;html=1;strokeColor=none;fillColor=none;align=center;verticalAlign=middle;whiteSpace=wrap;rounded=0;labelBackgroundColor=none;fontFamily=Helvetica;fontStyle=1;fontSize=12;fontColor=#333333;" parent="5JwdctCJn4qbrOevUoQApG" vertex="1">
          <mxGeometry x="400" y="1380" width="60" height="20" as="geometry" />
        </mxCell>
        <mxCell id="TChxrPMmv_AmqUOnzjODQW" value="TS04" style="text;html=1;strokeColor=none;fillColor=none;align=center;verticalAlign=middle;whiteSpace=wrap;rounded=0;labelBackgroundColor=none;fontFamily=Helvetica;fontStyle=1;fontSize=12;fontColor=#333333;" parent="5JwdctCJn4qbrOevUoQApG" vertex="1">
          <mxGeometry x="570" y="1320" width="60" height="20" as="geometry" />
        </mxCell>
        <mxCell id="NKaaSqiHHW58Fg9Kxst9-i" value="TS03" style="text;html=1;strokeColor=none;fillColor=none;align=center;verticalAlign=middle;whiteSpace=wrap;rounded=0;labelBackgroundColor=none;fontFamily=Helvetica;fontStyle=1;fontSize=12;fontColor=#333333;" parent="5JwdctCJn4qbrOevUoQApG" vertex="1">
          <mxGeometry x="570" y="1380" width="60" height="20" as="geometry" />
        </mxCell>
        <mxCell id="k0d6Sr3acMzPt0P2OG-1IP" value="WA05" style="text;html=1;strokeColor=none;fillColor=none;align=center;verticalAlign=middle;whiteSpace=wrap;rounded=0;labelBackgroundColor=none;fontFamily=Helvetica;fontStyle=1;fontSize=12;fontColor=#333333;" parent="5JwdctCJn4qbrOevUoQApG" vertex="1">
          <mxGeometry x="780" y="1320" width="60" height="20" as="geometry" />
        </mxCell>
        <mxCell id="LBC-blVtVWyPdiD9OyWaKQ" value="WA01" style="text;html=1;strokeColor=none;fillColor=none;align=center;verticalAlign=middle;whiteSpace=wrap;rounded=0;labelBackgroundColor=none;fontFamily=Helvetica;fontStyle=1;fontSize=12;fontColor=#333333;" parent="5JwdctCJn4qbrOevUoQApG" vertex="1">
          <mxGeometry x="780" y="1380" width="60" height="20" as="geometry" />
        </mxCell>
        <mxCell id="-wO9uLPx2YIEtitv5WHAoB" value="WA03" style="text;html=1;strokeColor=none;fillColor=none;align=center;verticalAlign=middle;whiteSpace=wrap;rounded=0;labelBackgroundColor=none;fontFamily=Helvetica;fontStyle=1;fontSize=12;fontColor=#333333;" parent="5JwdctCJn4qbrOevUoQApG" vertex="1">
          <mxGeometry x="780" y="1440" width="60" height="20" as="geometry" />
        </mxCell>
        <mxCell id="XLWx8-la1U5ihgfUXGtdej" value="WA02" style="text;html=1;strokeColor=none;fillColor=none;align=center;verticalAlign=middle;whiteSpace=wrap;rounded=0;labelBackgroundColor=none;fontFamily=Helvetica;fontStyle=1;fontSize=12;fontColor=#333333;" parent="5JwdctCJn4qbrOevUoQApG" vertex="1">
          <mxGeometry x="950" y="1320" width="60" height="20" as="geometry" />
        </mxCell>
        <mxCell id="IjC4SqMCTB_KkWxhbmzE6n" value="WA04" style="text;html=1;strokeColor=none;fillColor=none;align=center;verticalAlign=middle;whiteSpace=wrap;rounded=0;labelBackgroundColor=none;fontFamily=Helvetica;fontStyle=1;fontSize=12;fontColor=#333333;" parent="5JwdctCJn4qbrOevUoQApG" vertex="1">
          <mxGeometry x="950" y="1380" width="60" height="20" as="geometry" />
        </mxCell>
        <mxCell id="tiVFEAssnh2lxeAOX4hIeT" value="WB03" style="text;html=1;strokeColor=none;fillColor=none;align=center;verticalAlign=middle;whiteSpace=wrap;rounded=0;labelBackgroundColor=none;fontFamily=Helvetica;fontStyle=1;fontSize=12;fontColor=#333333;" parent="5JwdctCJn4qbrOevUoQApG" vertex="1">
          <mxGeometry x="1160" y="1320" width="60" height="20" as="geometry" />
        </mxCell>
        <mxCell id="ffmcgVZTvm27rpUxQHBRcP" value="WB01" style="text;html=1;strokeColor=none;fillColor=none;align=center;verticalAlign=middle;whiteSpace=wrap;rounded=0;labelBackgroundColor=none;fontFamily=Helvetica;fontStyle=1;fontSize=12;fontColor=#333333;" parent="5JwdctCJn4qbrOevUoQApG" vertex="1">
          <mxGeometry x="1160" y="1380" width="60" height="20" as="geometry" />
        </mxCell>
        <mxCell id="lSskT-0s58Vy8ILO__kOr8" value="WB02" style="text;html=1;strokeColor=none;fillColor=none;align=center;verticalAlign=middle;whiteSpace=wrap;rounded=0;labelBackgroundColor=none;fontFamily=Helvetica;fontStyle=1;fontSize=12;fontColor=#333333;" parent="5JwdctCJn4qbrOevUoQApG" vertex="1">
          <mxGeometry x="1160" y="1440" width="60" height="20" as="geometry" />
        </mxCell>
        <mxCell id="cL95dJofBQM6sPutZWCAH7" value="WB05" style="text;html=1;strokeColor=none;fillColor=none;align=center;verticalAlign=middle;whiteSpace=wrap;rounded=0;labelBackgroundColor=none;fontFamily=Helvetica;fontStyle=1;fontSize=12;fontColor=#333333;" parent="5JwdctCJn4qbrOevUoQApG" vertex="1">
          <mxGeometry x="1330" y="1320" width="60" height="20" as="geometry" />
        </mxCell>
        <mxCell id="gA8xUfVqret_asu17mPTya" value="WB04" style="text;html=1;strokeColor=none;fillColor=none;align=center;verticalAlign=middle;whiteSpace=wrap;rounded=0;labelBackgroundColor=none;fontFamily=Helvetica;fontStyle=1;fontSize=12;fontColor=#333333;" parent="5JwdctCJn4qbrOevUoQApG" vertex="1">
          <mxGeometry x="1330" y="1380" width="60" height="20" as="geometry" />
        </mxCell>
        <mxCell id="JMqRWLNq0aVrpTFkL5QAMm" value="LinkOverlay" style="locked=1" parent="0" />
        <UserObject link="/Compliance+Detail" label="" id="fFI2_icq_oA_bkYzQUvj9v">
          <mxCell style="fillColor=none;strokeColor=none;" parent="JMqRWLNq0aVrpTFkL5QAMm" vertex="1">
            <mxGeometry width="540" height="400" as="geometry" />
          </mxCell>
        </UserObject>
        <UserObject link="/Information+Security+Detail" label="" id="tBeQDOAGTJPcAAU0QY_Iaq">
          <mxCell style="fillColor=none;strokeColor=none;" parent="JMqRWLNq0aVrpTFkL5QAMm" vertex="1">
            <mxGeometry x="550" width="540" height="460" as="geometry" />
          </mxCell>
        </UserObject>
        <UserObject link="/Apps+Detail" label="" id="YAI8_NaWvicnijKuij7Tkf">
          <mxCell style="fillColor=none;strokeColor=none;" parent="JMqRWLNq0aVrpTFkL5QAMm" vertex="1">
            <mxGeometry x="1100" width="370" height="340" as="geometry" />
          </mxCell>
        </UserObject>
        <UserObject link="/Corporate+Support+Services+Detail" label="" id="wA4We-3ClbGYPe2kcPIXGu">
          <mxCell style="fillColor=none;strokeColor=none;" parent="JMqRWLNq0aVrpTFkL5QAMm" vertex="1">
            <mxGeometry x="1480" width="370" height="400" as="geometry" />
          </mxCell>
        </UserObject>
        <UserObject link="/Customer+Management+Detail" label="" id="dW9SH9cW4o9y18xYKK3w_A">
          <mxCell style="fillColor=none;strokeColor=none;" parent="JMqRWLNq0aVrpTFkL5QAMm" vertex="1">
            <mxGeometry y="470" width="370" height="340" as="geometry" />
          </mxCell>
        </UserObject>
        <UserObject link="/Data+and+Analytics+Detail" label="" id="0x2tk4fhgkHLA2PsZsqFno">
          <mxCell style="fillColor=none;strokeColor=none;" parent="JMqRWLNq0aVrpTFkL5QAMm" vertex="1">
            <mxGeometry x="380" y="470" width="370" height="280" as="geometry" />
          </mxCell>
        </UserObject>
        <UserObject link="/Digital+Channels+Detail" label="" id="pquiENPKS37VSwJClP4PdE">
          <mxCell style="fillColor=none;strokeColor=none;" parent="JMqRWLNq0aVrpTFkL5QAMm" vertex="1">
            <mxGeometry x="760" y="470" width="370" height="220" as="geometry" />
          </mxCell>
        </UserObject>
        <UserObject link="/Enterprise+Architecture+Detail" label="" id="rOoQBOhgtzfUDt8n9Q4Uh5">
          <mxCell style="fillColor=none;strokeColor=none;" parent="JMqRWLNq0aVrpTFkL5QAMm" vertex="1">
            <mxGeometry x="1140" y="470" width="370" height="280" as="geometry" />
          </mxCell>
        </UserObject>
        <UserObject link="/Enterprise+Support+Services+Detail" label="" id="oS9-jAbRaVHlunrmdFWjEK">
          <mxCell style="fillColor=none;strokeColor=none;" parent="JMqRWLNq0aVrpTFkL5QAMm" vertex="1">
            <mxGeometry x="1520" y="470" width="370" height="280" as="geometry" />
          </mxCell>
        </UserObject>
        <UserObject link="/Payments+Detail" label="" id="q_wYogHuf30teSTvNZkn3c">
          <mxCell style="fillColor=none;strokeColor=none;" parent="JMqRWLNq0aVrpTFkL5QAMm" vertex="1">
            <mxGeometry y="820" width="370" height="340" as="geometry" />
          </mxCell>
        </UserObject>
        <UserObject link="/Product+and+Pricing+Detail" label="" id="suikL-wWM1kfuL5h3STG2w">
          <mxCell style="fillColor=none;strokeColor=none;" parent="JMqRWLNq0aVrpTFkL5QAMm" vertex="1">
            <mxGeometry x="380" y="820" width="370" height="280" as="geometry" />
          </mxCell>
        </UserObject>
        <UserObject link="/Products+and+Services+Detail" label="" id="WPhyo_jxE4-LinTamMPzpf">
          <mxCell style="fillColor=none;strokeColor=none;" parent="JMqRWLNq0aVrpTFkL5QAMm" vertex="1">
            <mxGeometry x="760" y="820" width="370" height="400" as="geometry" />
          </mxCell>
        </UserObject>
        <UserObject link="/Risk+and+Finance+Detail" label="" id="Iwz8WKUDjIWxihAHkJAGi1">
          <mxCell style="fillColor=none;strokeColor=none;" parent="JMqRWLNq0aVrpTFkL5QAMm" vertex="1">
            <mxGeometry x="1140" y="820" width="370" height="400" as="geometry" />
          </mxCell>
        </UserObject>
        <UserObject link="/Sales+and+Relationship+Management+Detail" label="" id="R-LOYoNhpzIvbxoGu7uLiX">
          <mxCell style="fillColor=none;strokeColor=none;" parent="JMqRWLNq0aVrpTFkL5QAMm" vertex="1">
            <mxGeometry x="1520" y="820" width="370" height="280" as="geometry" />
          </mxCell>
        </UserObject>
        <UserObject link="/Transaction+Banking+Detail" label="" id="vI49rDCz8dOJlQLortENlJ">
          <mxCell style="fillColor=none;strokeColor=none;" parent="JMqRWLNq0aVrpTFkL5QAMm" vertex="1">
            <mxGeometry y="1230" width="370" height="280" as="geometry" />
          </mxCell>
        </UserObject>
        <UserObject link="/Treasury+Services+Detail" label="" id="q-1NdID-Eoyi6uz1BctuzD">
          <mxCell style="fillColor=none;strokeColor=none;" parent="JMqRWLNq0aVrpTFkL5QAMm" vertex="1">
            <mxGeometry x="380" y="1230" width="370" height="220" as="geometry" />
          </mxCell>
        </UserObject>
        <UserObject link="/Wealth+and+Asset+Management+Detail" label="" id="dqt0_1qLS-B3o1hcMEA2mB">
          <mxCell style="fillColor=none;strokeColor=none;" parent="JMqRWLNq0aVrpTFkL5QAMm" vertex="1">
            <mxGeometry x="760" y="1230" width="370" height="280" as="geometry" />
          </mxCell>
        </UserObject>
        <UserObject link="/Wholesale+Banking+Detail" label="" id="2oZSIyYhySHl8cpBhtS3s0">
          <mxCell style="fillColor=none;strokeColor=none;" parent="JMqRWLNq0aVrpTFkL5QAMm" vertex="1">
            <mxGeometry x="1140" y="1230" width="370" height="280" as="geometry" />
          </mxCell>
        </UserObject>
      </root>
    </mxGraphModel>
  </diagram>
</mxfile>
